SplineFontDB: 3.0
FontName: AdventPro-Light
FullName: Advent Pro Light
FamilyName: Advent Pro
Weight: Light
Copyright: Copyright (c) 2008 Andreas Kalpakidis (hello@inderesting.com), with Reserved Font Name "Advent Pro"
Version: 001.001
ItalicAngle: 0
UnderlinePosition: -50
UnderlineWidth: 50
Ascent: 800
Descent: 200
sfntRevision: 0x00020083
LayerCount: 2
Layer: 0 1 "Back"  1
Layer: 1 1 "Fore"  0
NeedsXUIDChange: 1
XUID: [1021 288 713564382 8071783]
FSType: 0
OS2Version: 2
OS2_WeightWidthSlopeOnly: 0
OS2_UseTypoMetrics: 1
CreationTime: 1322417988
ModificationTime: 1322447168
PfmFamily: 17
TTFWeight: 300
TTFWidth: 5
LineGap: 0
VLineGap: 0
Panose: 2 0 5 6 4 0 0 2 0 4
OS2TypoAscent: 162
OS2TypoAOffset: 1
OS2TypoDescent: -32
OS2TypoDOffset: 1
OS2TypoLinegap: 0
OS2WinAscent: 5
OS2WinAOffset: 1
OS2WinDescent: 13
OS2WinDOffset: 1
HheadAscent: 7
HheadAOffset: 1
HheadDescent: -13
HheadDOffset: 1
OS2SubXSize: 650
OS2SubYSize: 600
OS2SubXOff: 0
OS2SubYOff: 75
OS2SupXSize: 650
OS2SupYSize: 600
OS2SupXOff: 0
OS2SupYOff: 350
OS2StrikeYSize: 50
OS2StrikeYPos: 250
OS2Vendor: 'ADBE'
OS2CodePages: 0000009b.00000000
OS2UnicodeRanges: 800000af.1000204a.00000000.00000000
Lookup: 258 0 0 "'kern' Horizontal Kerning in Latin lookup 0"  {"'kern' Horizontal Kerning in Latin lookup 0 subtable"  } ['kern' ('DFLT' <'dflt' > 'latn' <'dflt' > ) ]
MarkAttachClasses: 1
DEI: 91125
TtTable: prep
PUSHW_1
 511
SCANCTRL
PUSHB_1
 4
SCANTYPE
EndTTInstrs
LangName: 1033 "" "" "" "AndreasKalpakidis: Advent Pro Light: 2008" "AdventPro-Light" "Version 2.002 2007" "" "Advent Pro Thin is a trademark of INDE Andreas Kalpakidis." "Andreas Kalpakidis" "Andreas Kalpakidis" "" "www.inderesting.com" "www.inderesting.com" "This Font Software is licensed under the SIL Open Font License, Version 1.1. This license is available with a FAQ at: http://scripts.sil.org/OFL" "http://scripts.sil.org/OFL" 
GaspTable: 1 65535 15
Encoding: UnicodeBmp
UnicodeInterp: none
NameList: Adobe Glyph List
DisplaySize: -36
AntiAlias: 1

StartChar: .notdef
Encoding: 65536 -1 0
Width: 500
Flags: HMW
HStem: 0 41 658 42
VStem: 0 42 458 42
LayerCount: 2
Fore
SplineSet
0 700 m 1,0,-1
 500 700 l 1,1,-1
 500 0 l 1,2,-1
 0 0 l 1,3,-1
 0 700 l 1,0,-1
50 650 m 1,4,-1
 50 50 l 1,5,-1
 450 50 l 1,6,-1
 450 650 l 1,7,-1
 50 650 l 1,4,-1
73 571 m 1,8,-1
 113 600 l 1,9,-1
 250 395 l 1,10,-1
 386 599 l 1,11,-1
 425 567 l 1,12,-1
 280 350 l 1,13,-1
 425 133 l 1,14,-1
 386 101 l 1,15,-1
 250 305 l 1,16,-1
 113 100 l 1,17,-1
 73 129 l 1,18,-1
 220 350 l 1,19,-1
 73 571 l 1,8,-1
EndSplineSet
EndChar

StartChar: numbersign
Encoding: 35 35 4
Width: 613
Flags: HMW
HStem: 0 21G<110 154 110 110 295 339 295 295> 225 20G<34 167 167 167 211 352 352 352 396 582 582 582> 413 45<34 207 34 218 262 392 34 251 446 582>
VStem: 34 548<200 245 200 245 413 458 200 458> 110 44<0 0> 274 44<700 700> 295 44<0 0> 459 44<700 700>
LayerCount: 2
Fore
SplineSet
274 700 m 1,0,-1
 318 700 l 1,1,-1
 262 458 l 1,2,-1
 402 458 l 1,3,-1
 459 700 l 1,4,-1
 503 700 l 1,5,-1
 446 458 l 1,6,-1
 582 458 l 1,7,-1
 582 413 l 1,8,-1
 436 413 l 1,9,-1
 396 245 l 1,10,-1
 582 245 l 1,11,-1
 582 200 l 1,12,-1
 386 200 l 1,13,-1
 339 0 l 1,14,-1
 295 0 l 1,15,-1
 341 200 l 1,16,-1
 201 200 l 1,17,-1
 154 0 l 1,18,-1
 110 0 l 1,19,-1
 157 200 l 1,20,-1
 34 200 l 1,21,-1
 34 245 l 1,22,-1
 167 245 l 1,23,-1
 207 413 l 1,24,-1
 34 413 l 1,25,-1
 34 458 l 1,26,-1
 218 458 l 1,27,-1
 274 700 l 1,0,-1
251 413 m 1,28,-1
 211 245 l 1,29,-1
 352 245 l 1,30,-1
 392 413 l 1,31,-1
 251 413 l 1,28,-1
EndSplineSet
EndChar

StartChar: dollar
Encoding: 36 36 5
Width: 540
Flags: HMW
HStem: -17 80 178 172 710 20G 711 20G
VStem: -117 21 22 46 34 46<178 178> 52 47<500 573 500 577> 130 20 231 45 246 45<-114 -10 -114 -10 33 343 405 664 664 664 710 817> 276 221 397 14 409 14 449 48 461 48<135 231>
LayerCount: 2
Fore
SplineSet
246 817 m 1,0,-1
 291 817 l 1,1,-1
 291 710 l 1,2,3
 363 708 363 708 423 680 c 1,4,-1
 409 637 l 1,5,6
 358 663 358 663 291 666 c 1,7,-1
 291 390 l 1,8,9
 421.769230769 344.230769231 421.769230769 344.230769231 463.5 302.5 c 0,10,11
 482 284 482 284 495.5 254.5 c 128,-1,12
 509 225 509 225 509 190 c 0,13,14
 509 103 509 103 455.5 49 c 128,-1,15
 402 -5 402 -5 291 -10 c 1,16,-1
 291 -114 l 1,17,-1
 246 -114 l 1,18,-1
 246 -10 l 1,19,20
 148 -3 148 -3 92 53 c 128,-1,21
 36 109 36 109 34 178 c 1,22,-1
 80 178 l 1,23,24
 83 126 83 126 127.5 82.5 c 128,-1,25
 172 39 172 39 246 33 c 1,26,-1
 246 358 l 1,27,28
 201 374 201 374 172.5 386.5 c 128,-1,29
 144 399 144 399 113 420 c 0,30,31
 52 461.322580645 52 461.322580645 52 531.661290323 c 128,-1,32
 52 602 52 602 101.5 651 c 128,-1,33
 151 700 151 700 246 708 c 1,34,-1
 246 817 l 1,0,-1
291 343 m 1,35,-1
 291 32 l 1,36,37
 366 37 366 37 413.5 74 c 128,-1,38
 461 111 461 111 461 180.424528302 c 128,-1,39
 461 249.849056604 461 249.849056604 412.666666667 283.591194969 c 128,-1,40
 364.333333333 317.333333333 364.333333333 317.333333333 291 343 c 1,35,-1
139 623.5 m 128,-1,42
 99 590 99 590 99 538.5 c 128,-1,43
 99 487 99 487 137 458.5 c 128,-1,44
 175 430 175 430 246 405 c 1,45,-1
 246 664 l 1,46,41
 179 657 179 657 139 623.5 c 128,-1,42
EndSplineSet
EndChar

StartChar: percent
Encoding: 37 37 6
Width: 670
Flags: HMW
HStem: 34 99 133 103 308 55 480 103 583 103 654 55 711 20G
VStem: 79 103 182 103 336 106 390 103 493 103
LayerCount: 2
Fore
SplineSet
599 740 m 1,0,-1
 632 707 l 1,1,-1
 67 1 l 1,2,-1
 39 34 l 1,3,-1
 599 740 l 1,0,-1
493 277 m 128,-1,5
 553 277 553 277 595 235 c 128,-1,6
 637 193 637 193 637 133 c 128,-1,7
 637 73 637 73 595 31 c 128,-1,8
 553 -11 553 -11 493 -11 c 128,-1,9
 433 -11 433 -11 391 31 c 128,-1,10
 349 73 349 73 349 133 c 128,-1,11
 349 193 349 193 391 235 c 128,-1,4
 433 277 433 277 493 277 c 128,-1,5
390 133 m 128,-1,13
 390 92 390 92 418 61 c 128,-1,14
 446 30 446 30 493 30 c 128,-1,15
 540 30 540 30 568 61 c 128,-1,16
 596 92 596 92 596 133 c 128,-1,17
 596 174 596 174 567.5 205 c 128,-1,18
 539 236 539 236 493 236 c 128,-1,19
 447 236 447 236 418.5 205 c 128,-1,12
 390 174 390 174 390 133 c 128,-1,13
182 727 m 128,-1,21
 242 727 242 727 284 685 c 128,-1,22
 326 643 326 643 326 583 c 128,-1,23
 326 523 326 523 284 481 c 128,-1,24
 242 439 242 439 182 439 c 128,-1,25
 122 439 122 439 80 481 c 128,-1,26
 38 523 38 523 38 583 c 128,-1,27
 38 643 38 643 80 685 c 128,-1,20
 122 727 122 727 182 727 c 128,-1,21
79 583 m 128,-1,29
 79 542 79 542 107.5 511 c 128,-1,30
 136 480 136 480 182 480 c 128,-1,31
 228 480 228 480 256.5 511 c 128,-1,32
 285 542 285 542 285 583 c 128,-1,33
 285 624 285 624 256.5 655 c 128,-1,34
 228 686 228 686 182 686 c 128,-1,35
 136 686 136 686 107.5 655 c 128,-1,28
 79 624 79 624 79 583 c 128,-1,29
EndSplineSet
EndChar

StartChar: ampersand
Encoding: 38 38 7
Width: 546
Flags: HMW
HStem: -12 75 383 21G
VStem: 36 183 201 185 432 83<135 457 457 609 457 484>
LayerCount: 2
Fore
SplineSet
381 699 m 1,0,-1
 356 662 l 1,1,2
 331.315789474 669.736842105 331.315789474 669.736842105 301.315789474 669.736842105 c 128,-1,3
 271.315789474 669.736842105 271.315789474 669.736842105 241 647 c 0,4,5
 199.857142857 616.142857143 199.857142857 616.142857143 199.857142857 569.12244898 c 0,6,7
 199.857142857 561.285714286 199.857142857 561.285714286 201 553 c 0,8,9
 209 498 209 498 250.5 476 c 0,10,11
 279.03125 460.875 279.03125 460.875 301.671875 460.875 c 128,-1,12
 324.3125 460.875 324.3125 460.875 339 464 c 2,13,-1
 386 474 l 1,14,-1
 386 609 l 1,15,-1
 432 609 l 1,16,-1
 432 484 l 1,17,-1
 505 500 l 1,18,-1
 515 457 l 1,19,-1
 432 439 l 1,20,-1
 432 135 l 2,21,22
 432 45 432 45 495 24 c 1,23,-1
 482 -11 l 1,24,25
 443 1 443 1 420.5 29.5 c 128,-1,26
 398 58 398 58 393 95 c 1,27,28
 329 -11 329 -11 213 -11 c 0,29,30
 123 -11 123 -11 75.5 52.5 c 0,31,32
 34.8468468468 106.846846847 34.8468468468 106.846846847 34.8468468468 179.139680221 c 0,33,34
 34.8468468468 242.143924412 34.8468468468 242.143924412 58.4234234234 287.571962206 c 128,-1,35
 82 333 82 333 116.5 360.5 c 128,-1,36
 151 388 151 388 179 403.5 c 128,-1,37
 207 419 207 419 247 436 c 1,38,39
 213 441 213 441 186.5 472 c 0,40,41
 155 508.849056604 155 508.849056604 155 567.25308642 c 0,42,43
 155 642.166666667 155 642.166666667 219 683.5 c 0,44,45
 262.2 711.4 262.2 711.4 303.6 711.4 c 128,-1,46
 345 711.4 345 711.4 381 699 c 1,0,-1
386 214 m 2,47,-1
 386 429 l 1,48,49
 233.870689655 396.400862069 233.870689655 396.400862069 159 339 c 0,50,51
 129 316 129 316 106 279 c 0,52,53
 79.3975903614 236.204819277 79.3975903614 236.204819277 79.3975903614 178.271084337 c 128,-1,54
 79.3975903614 120.337349398 79.3975903614 120.337349398 113.698795181 76.1686746988 c 128,-1,55
 148 32 148 32 220 32 c 128,-1,56
 292 32 292 32 339 88 c 128,-1,57
 386 144 386 144 386 214 c 2,47,-1
EndSplineSet
EndChar

StartChar: quoteright
Encoding: 8217 8217 8
Width: 329
Flags: HMW
HStem: 456 50 603 111 644 111
VStem: -27 104 36 58<670.5 674>
LayerCount: 2
Fore
SplineSet
60 642 m 1,0,-1
 53 644 l 1,1,2
 36 654 36 654 36.5 669.5 c 0,3,4
 37 685 37 685 44.5294117647 692.058823529 c 0,5,6
 52.0588235294 699.117647059 52.0588235294 699.117647059 57.8235294118 699.117647059 c 0,7,8
 63.5882352941 699.117647059 63.5882352941 699.117647059 69.7941176471 698.558823529 c 0,9,10
 76 698 76 698 85 688.5 c 128,-1,11
 94 679 94 679 94 668 c 0,12,13
 94 613 94 613 30 560 c 1,14,-1
 -2 583 l 1,15,16
 20 595 20 595 35.5 610 c 128,-1,17
 51 625 51 625 60 642 c 1,0,-1
EndSplineSet
EndChar

StartChar: parenleft
Encoding: 40 40 9
Width: 278
Flags: HMW
HStem: -198 21G 711 20G 794 21
VStem: 78 45<71 627 627 636>
LayerCount: 2
Fore
SplineSet
183 817 m 1,0,-1
 198 786 l 1,1,2
 163 762 163 762 143 729 c 128,-1,3
 123 696 123 696 123 636 c 2,4,-1
 123 63 l 2,5,6
 123 2 123 2 143.5 -31 c 128,-1,7
 164 -64 164 -64 198 -88 c 1,8,-1
 183 -119 l 1,9,10
 126 -86 126 -86 102 -46.5 c 128,-1,11
 78 -7 78 -7 78 71 c 2,12,-1
 78 627 l 2,13,14
 78 705 78 705 102 744.5 c 128,-1,15
 126 784 126 784 183 817 c 1,0,-1
EndSplineSet
EndChar

StartChar: parenright
Encoding: 41 41 10
Width: 278
Flags: HMW
HStem: -198 21G 711 20G
VStem: 97 56
LayerCount: 2
Fore
SplineSet
78 786 m 1,0,-1
 93 817 l 1,1,2
 150 784 150 784 174 744.5 c 128,-1,3
 198 705 198 705 198 627 c 2,4,-1
 198 71 l 2,5,6
 198 -7 198 -7 174 -46.5 c 128,-1,7
 150 -86 150 -86 93 -119 c 1,8,-1
 78 -88 l 1,9,10
 112 -64 112 -64 132.5 -31 c 128,-1,11
 153 2 153 2 153 63 c 2,12,-1
 153 636 l 2,13,14
 153 696 153 696 133 729 c 128,-1,15
 113 762 113 762 78 786 c 1,0,-1
EndSplineSet
EndChar

StartChar: asterisk
Encoding: 42 42 11
Width: 352
Flags: HMW
HStem: 694 20G
VStem: 152 44<580 700>
LayerCount: 2
Fore
SplineSet
40 623 m 1,0,-1
 153 580 l 1,1,-1
 152 700 l 1,2,-1
 196 700 l 1,3,-1
 196 580 l 1,4,-1
 310 623 l 1,5,-1
 326 583 l 1,6,-1
 210 543 l 1,7,-1
 281 447 l 1,8,-1
 248 422 l 1,9,-1
 175 522 l 1,10,-1
 106 422 l 1,11,-1
 70 447 l 1,12,-1
 138 543 l 1,13,-1
 26 583 l 1,14,-1
 40 623 l 1,0,-1
EndSplineSet
EndChar

StartChar: plus
Encoding: 43 43 12
Width: 385
Flags: HMW
HStem: 0 21G 112 321
VStem: 34 320<369 413 369 413> 172 45<234 369 234 369 413 545>
LayerCount: 2
Fore
SplineSet
172 545 m 1,0,-1
 217 545 l 1,1,-1
 217 413 l 1,2,-1
 354 413 l 1,3,-1
 354 369 l 1,4,-1
 217 369 l 1,5,-1
 217 234 l 1,6,-1
 172 234 l 1,7,-1
 172 369 l 1,8,-1
 34 369 l 1,9,-1
 34 413 l 1,10,-1
 172 413 l 1,11,-1
 172 545 l 1,0,-1
EndSplineSet
EndChar

StartChar: comma
Encoding: 44 44 13
Width: 165
Flags: HMW
HStem: 0 111
VStem: 55 58<26.5 30>
LayerCount: 2
Fore
SplineSet
79 -2 m 1,0,-1
 72 0 l 1,1,2
 55 10 55 10 55.5 25.5 c 0,3,4
 56 41 56 41 63.5294117647 48.0588235294 c 0,5,6
 71.0588235294 55.1176470588 71.0588235294 55.1176470588 76.8235294118 55.1176470588 c 0,7,8
 82.5882352941 55.1176470588 82.5882352941 55.1176470588 88.7941176471 54.5588235294 c 0,9,10
 95 54 95 54 104 44.5 c 128,-1,11
 113 35 113 35 113 24 c 0,12,13
 113 -31 113 -31 49 -84 c 1,14,-1
 17 -61 l 1,15,16
 39 -49 39 -49 54.5 -34 c 128,-1,17
 70 -19 70 -19 79 -2 c 1,0,-1
EndSplineSet
EndChar

StartChar: hyphen
Encoding: 45 45 14
Width: 410
Flags: HMW
HStem: 238 80
VStem: 45 320<369 413 369 413>
LayerCount: 2
Fore
SplineSet
45 413 m 1,0,-1
 365 413 l 1,1,-1
 365 369 l 1,2,-1
 45 369 l 1,3,-1
 45 413 l 1,0,-1
EndSplineSet
EndChar

StartChar: period
Encoding: 46 46 15
Width: 123
Flags: HMW
HStem: 0 111
VStem: 17 55<20.5 35.5>
LayerCount: 2
Fore
SplineSet
44 55 m 128,-1,1
 55 55 55 55 63.5 47 c 128,-1,2
 72 39 72 39 72 28 c 128,-1,3
 72 17 72 17 63.5 8.5 c 128,-1,4
 55 0 55 0 44 0 c 128,-1,5
 33 0 33 0 25 8.5 c 128,-1,6
 17 17 17 17 17 28 c 128,-1,7
 17 39 17 39 25 47 c 128,-1,0
 33 55 33 55 44 55 c 128,-1,1
EndSplineSet
EndChar

StartChar: slash
Encoding: 47 47 16
Width: 422
Flags: HMW
HStem: 711 20G
VStem: -14 456
LayerCount: 2
Fore
SplineSet
350 817 m 1,0,-1
 396 817 l 1,1,-1
 74 -114 l 1,2,-1
 26 -114 l 1,3,-1
 350 817 l 1,0,-1
EndSplineSet
EndChar

StartChar: zero
Encoding: 48 48 17
Width: 549
Flags: HMW
HStem: -12 75 32 684<230 316.5> 634 75
VStem: 63 376<186 507 507 514 514 566 186 577.5> 66 53 108 375<131.5 185 185 506 111.5 514> 182 21 364 53
LayerCount: 2
Fore
SplineSet
63 185 m 2,0,-1
 63 507 l 2,1,2
 63 610 63 610 119.5 663 c 128,-1,3
 176 716 176 716 275 716 c 128,-1,4
 374 716 374 716 428.5 660 c 128,-1,5
 483 604 483 604 483 506 c 2,6,-1
 483 185 l 2,7,8
 483 84 483 84 421.5 36.5 c 128,-1,9
 360 -11 360 -11 274 -11 c 128,-1,10
 188 -11 188 -11 125.5 36.5 c 128,-1,11
 63 84 63 84 63 185 c 2,0,-1
108 514 m 2,12,-1
 108 185 l 2,13,14
 108 109 108 109 155.5 70.5 c 128,-1,15
 203 32 203 32 274 32 c 0,16,17
 345 32 345 32 392 69.5 c 128,-1,18
 439 107 439 107 439 186 c 2,19,-1
 439 514 l 2,20,21
 439 591 439 591 394.5 632 c 128,-1,22
 350 673 350 673 273 673 c 128,-1,23
 196 673 196 673 152 632 c 128,-1,24
 108 591 108 591 108 514 c 2,12,-1
EndSplineSet
EndChar

StartChar: one
Encoding: 49 49 18
Width: 210
Flags: HMW
HStem: 0 21G<139 184 139 139> 508 68
VStem: 139 45<0 642 642 642 0 700>
LayerCount: 2
Fore
SplineSet
139 700 m 1,0,-1
 184 700 l 1,1,-1
 184 0 l 1,2,-1
 139 0 l 1,3,-1
 139 642 l 1,4,5
 121 623 121 623 95 610 c 128,-1,6
 69 597 69 597 52.5 593 c 2,7,-1
 36 589 l 1,8,-1
 26 631 l 1,9,10
 34 632 34 632 46.5 634.5 c 128,-1,11
 59 637 59 637 89 654.5 c 128,-1,12
 119 672 119 672 139 700 c 1,0,-1
EndSplineSet
EndChar

StartChar: two
Encoding: 50 50 19
Width: 403
Flags: HMW
HStem: 0 75 634 75
VStem: 26 52<42 42 42 43 42 43> 315 62
LayerCount: 2
Fore
SplineSet
81 574 m 1,0,-1
 39 590 l 1,1,2
 58 643 58 643 100 676.5 c 128,-1,3
 142 710 142 710 209 710 c 128,-1,4
 276 710 276 710 323 667.5 c 0,5,6
 375.462962963 620.060086682 375.462962963 620.060086682 375.462962963 552.826339638 c 128,-1,7
 375.462962963 485.592592593 375.462962963 485.592592593 331 413 c 1,8,-1
 78 42 l 1,9,-1
 377 42 l 1,10,-1
 377 0 l 1,11,-1
 26 0 l 1,12,-1
 26 43 l 1,13,-1
 291 434 l 1,14,15
 328.531914894 493.872340426 328.531914894 493.872340426 328.531914894 541.36713445 c 0,16,17
 328.531914894 598.949121184 328.531914894 598.949121184 291.265957447 632.974560592 c 128,-1,18
 254 667 254 667 206.5 667 c 128,-1,19
 159 667 159 667 127 641 c 128,-1,20
 95 615 95 615 81 574 c 1,0,-1
EndSplineSet
EndChar

StartChar: three
Encoding: 51 51 20
Width: 442
Flags: HMW
HStem: -12 75 634 75
VStem: 26 38<83 107> 99 199 371 45<157 249.5>
LayerCount: 2
Fore
SplineSet
73 700 m 1,0,-1
 360 700 l 1,1,-1
 360 660 l 1,2,-1
 188 413 l 1,3,-1
 203 413 l 2,4,5
 292 413 292 413 354 351 c 128,-1,6
 416 289 416 289 416 200.5 c 0,7,8
 416 112 416 112 354 50 c 128,-1,9
 292 -12 292 -12 203 -12 c 0,10,11
 149 -12 149 -12 102 13.5 c 128,-1,12
 55 39 55 39 26 83 c 1,13,-1
 64 107 l 1,14,15
 87 73 87 73 123.5 53 c 128,-1,16
 160 33 160 33 203 33 c 0,17,18
 275 33 275 33 323 83 c 128,-1,19
 371 133 371 133 371 202 c 0,20,21
 371 271 371 271 323 318.5 c 128,-1,22
 275 366 275 366 209 369 c 1,23,-1
 106 369 l 1,24,-1
 305 655 l 1,25,-1
 73 655 l 1,26,-1
 73 700 l 1,0,-1
EndSplineSet
EndChar

StartChar: four
Encoding: 52 52 21
Width: 490
Flags: HMW
HStem: 0 21G<346 391 346 346> 166 75
VStem: 346 45<0 369 0 369 413 700>
LayerCount: 2
Fore
SplineSet
213 700 m 1,0,-1
 260 700 l 1,1,-1
 103 413 l 1,2,-1
 346 413 l 1,3,-1
 346 700 l 1,4,-1
 391 700 l 1,5,-1
 391 413 l 1,6,-1
 464 413 l 1,7,-1
 449 369 l 1,8,-1
 391 369 l 1,9,-1
 391 0 l 1,10,-1
 346 0 l 1,11,-1
 346 369 l 1,12,-1
 26 369 l 1,13,-1
 213 700 l 1,0,-1
EndSplineSet
EndChar

StartChar: five
Encoding: 53 53 22
Width: 442
Flags: HMW
HStem: -12 75 392 75 622 75
VStem: 26 37<83 107> 371 45<156 246>
LayerCount: 2
Fore
SplineSet
95 700 m 1,0,-1
 360 700 l 1,1,-1
 360 655 l 1,2,-1
 134 655 l 1,3,-1
 109 413 l 1,4,-1
 203 413 l 2,5,6
 292 413 292 413 354 351 c 128,-1,7
 416 289 416 289 416 200.5 c 0,8,9
 416 112 416 112 354 50 c 128,-1,10
 292 -12 292 -12 203 -12 c 0,11,12
 149 -12 149 -12 102 13.5 c 128,-1,13
 55 39 55 39 26 83 c 1,14,-1
 63 107 l 1,15,16
 85 73 85 73 122.5 53 c 128,-1,17
 160 33 160 33 203 33 c 0,18,19
 274 33 274 33 322.5 82.5 c 128,-1,20
 371 132 371 132 371 201 c 128,-1,21
 371 270 371 270 323 319.5 c 128,-1,22
 275 369 275 369 203 369 c 2,23,-1
 60 369 l 1,24,-1
 95 700 l 1,0,-1
EndSplineSet
EndChar

StartChar: six
Encoding: 54 54 23
Width: 477
Flags: HMW
HStem: -12 213<26 297> 201 212<26 297 70 297>
VStem: 26 44<201 208 318 452> 238 67 238 213
LayerCount: 2
Fore
SplineSet
270 700 m 2,0,-1
 305 700 l 1,1,-1
 305 655 l 1,2,-1
 266 655 l 2,3,4
 191 655 191 655 133 609 c 0,5,6
 104 586 104 586 87 545.5 c 128,-1,7
 70 505 70 505 70 452 c 2,8,-1
 70 318 l 1,9,10
 94 365 94 365 139.5 389 c 128,-1,11
 185 413 185 413 238 413 c 0,12,13
 327 413 327 413 389 351 c 128,-1,14
 451 289 451 289 451 200.5 c 128,-1,15
 451 112 451 112 388.5 50 c 128,-1,16
 326 -12 326 -12 238 -12 c 128,-1,17
 150 -12 150 -12 88 50 c 128,-1,18
 26 112 26 112 26 201 c 2,19,-1
 26 461 l 2,20,21
 26 544.037735849 26 544.037735849 76.5 615.5 c 0,22,23
 103 653 103 653 153 676.5 c 128,-1,24
 203 700 203 700 270 700 c 2,0,-1
70 208 m 1,25,-1
 70 201 l 2,26,27
 70 130 70 130 119 81 c 128,-1,28
 168 32 168 32 238 32 c 128,-1,29
 308 32 308 32 357.5 81 c 128,-1,30
 407 130 407 130 407 200.5 c 128,-1,31
 407 271 407 271 358 320 c 128,-1,32
 309 369 309 369 239 369 c 128,-1,33
 169 369 169 369 120.5 322.5 c 128,-1,34
 72 276 72 276 70 208 c 1,25,-1
EndSplineSet
EndChar

StartChar: seven
Encoding: 55 55 24
Width: 446
Flags: HMW
HStem: 0 21G<39 88 39 39> 655 45<26 368 26 420 26 420>
VStem: 26 394<655 700 655 700>
LayerCount: 2
Fore
SplineSet
26 700 m 1,0,-1
 420 700 l 1,1,-1
 420 655 l 1,2,-1
 88 0 l 1,3,-1
 39 0 l 1,4,-1
 368 655 l 1,5,-1
 26 655 l 1,6,-1
 26 700 l 1,0,-1
EndSplineSet
EndChar

StartChar: eight
Encoding: 56 56 25
Width: 474
Flags: HMW
HStem: -12 75 363 44 381 21G 634 75
VStem: 26 81 65 303<504 571 497.5 583> 71 377<151.5 238 139 243.5> 173 32 403 9
LayerCount: 2
Fore
SplineSet
232 363 m 1,0,1
 164 361 164 361 117.5 313.5 c 128,-1,2
 71 266 71 266 71 197 c 128,-1,3
 71 128 71 128 119 80.5 c 128,-1,4
 167 33 167 33 237 33 c 128,-1,5
 307 33 307 33 355 80.5 c 128,-1,6
 403 128 403 128 403 197 c 128,-1,7
 403 266 403 266 354 313.5 c 128,-1,8
 305 361 305 361 232 363 c 1,0,1
151 388 m 1,9,10
 112 409 112 409 88.5 449 c 128,-1,11
 65 489 65 489 65 534 c 0,12,13
 65 608 65 608 115 658.5 c 128,-1,14
 165 709 165 709 238 709 c 128,-1,15
 311 709 311 709 361.5 658.5 c 128,-1,16
 412 608 412 608 412 534 c 0,17,18
 412 488 412 488 388.5 448.5 c 128,-1,19
 365 409 365 409 324 387 c 1,20,21
 380 363 380 363 414 310.5 c 128,-1,22
 448 258 448 258 448 198 c 0,23,24
 448 110 448 110 387 49 c 128,-1,25
 326 -12 326 -12 237 -12 c 128,-1,26
 148 -12 148 -12 87 49 c 128,-1,27
 26 110 26 110 26 198 c 0,28,29
 26 260 26 260 60 311.5 c 128,-1,30
 94 363 94 363 151 388 c 1,9,10
145 627.5 m 128,-1,32
 107 589 107 589 107 535 c 128,-1,33
 107 481 107 481 145 444.5 c 128,-1,34
 183 408 183 408 236 407.5 c 128,-1,35
 289 407 289 407 328.5 443.5 c 128,-1,36
 368 480 368 480 368 535 c 128,-1,37
 368 590 368 590 330.5 628 c 128,-1,38
 293 666 293 666 238 666 c 128,-1,31
 183 666 183 666 145 627.5 c 128,-1,32
EndSplineSet
EndChar

StartChar: nine
Encoding: 57 57 26
Width: 477
Flags: HMW
HStem: -12 75 241 75 634 75
VStem: 25 213 171 67 395 55
LayerCount: 2
Fore
SplineSet
207 0 m 2,0,-1
 172 0 l 1,1,-1
 172 45 l 1,2,-1
 211 45 l 2,3,4
 290 45 290 45 348.5 95 c 128,-1,5
 407 145 407 145 407 247 c 2,6,-1
 407 378 l 1,7,8
 383 331 383 331 337.5 307.5 c 128,-1,9
 292 284 292 284 239 284 c 0,10,11
 150 284 150 284 88 346 c 128,-1,12
 26 408 26 408 26 496 c 128,-1,13
 26 584 26 584 88 646.5 c 128,-1,14
 150 709 150 709 238.5 709 c 128,-1,15
 327 709 327 709 389 647 c 128,-1,16
 451 585 451 585 451 496 c 2,17,-1
 451 238 l 2,18,19
 451 154.962264151 451 154.962264151 400.5 83.5 c 0,20,21
 374 46 374 46 324 23 c 128,-1,22
 274 0 274 0 207 0 c 2,0,-1
407 489 m 1,23,-1
 407 496 l 2,24,25
 407 567 407 567 358 616 c 128,-1,26
 309 665 309 665 238.5 665 c 128,-1,27
 168 665 168 665 119 615.5 c 128,-1,28
 70 566 70 566 70 496 c 128,-1,29
 70 426 70 426 119 377 c 128,-1,30
 168 328 168 328 238 328 c 128,-1,31
 308 328 308 328 356 374.5 c 128,-1,32
 404 421 404 421 407 489 c 1,23,-1
EndSplineSet
EndChar

StartChar: colon
Encoding: 58 58 27
Width: 107
Flags: HMW
HStem: 0 111 362 111 406 111
VStem: 4 21 26 55<131.5 146.5 382.5 397.5>
LayerCount: 2
Fore
SplineSet
53 166 m 128,-1,1
 64 166 64 166 72.5 158 c 128,-1,2
 81 150 81 150 81 139 c 128,-1,3
 81 128 81 128 72.5 119.5 c 128,-1,4
 64 111 64 111 53 111 c 128,-1,5
 42 111 42 111 34 119.5 c 128,-1,6
 26 128 26 128 26 139 c 128,-1,7
 26 150 26 150 34 158 c 128,-1,0
 42 166 42 166 53 166 c 128,-1,1
53 417 m 128,-1,9
 64 417 64 417 72.5 409 c 128,-1,10
 81 401 81 401 81 390 c 128,-1,11
 81 379 81 379 72.5 370.5 c 128,-1,12
 64 362 64 362 53 362 c 128,-1,13
 42 362 42 362 34 370.5 c 128,-1,14
 26 379 26 379 26 390 c 128,-1,15
 26 401 26 401 34 409 c 128,-1,8
 42 417 42 417 53 417 c 128,-1,9
EndSplineSet
EndChar

StartChar: semicolon
Encoding: 59 59 28
Width: 148
Flags: HMW
HStem: 0 111 1 111 245 111 406 111
VStem: 58 69 64 58<27.5 31> 65 55<265.5 280.5>
LayerCount: 2
Fore
SplineSet
92 300 m 128,-1,1
 103 300 103 300 111.5 292 c 128,-1,2
 120 284 120 284 120 273 c 128,-1,3
 120 262 120 262 111.5 253.5 c 128,-1,4
 103 245 103 245 92 245 c 128,-1,5
 81 245 81 245 73 253.5 c 128,-1,6
 65 262 65 262 65 273 c 128,-1,7
 65 284 65 284 73 292 c 128,-1,0
 81 300 81 300 92 300 c 128,-1,1
88 -1 m 1,8,-1
 81 1 l 1,9,10
 64 11 64 11 64.5 26.5 c 0,11,12
 65 42 65 42 72.5294117647 49.0588235294 c 0,13,14
 80.0588235294 56.1176470588 80.0588235294 56.1176470588 85.8235294118 56.1176470588 c 0,15,16
 91.5882352941 56.1176470588 91.5882352941 56.1176470588 97.7941176471 55.5588235294 c 0,17,18
 104 55 104 55 113 45.5 c 128,-1,19
 122 36 122 36 122 25 c 0,20,21
 122 -30 122 -30 58 -83 c 1,22,-1
 26 -60 l 1,23,24
 48 -48 48 -48 63.5 -33 c 128,-1,25
 79 -18 79 -18 88 -1 c 1,8,-1
EndSplineSet
EndChar

StartChar: less
Encoding: 60 60 29
Width: 361
Flags: HMW
HStem: -8 21G
VStem: 26 309<111 359 111 359>
LayerCount: 2
Fore
SplineSet
304 637 m 1,0,-1
 335 606 l 1,1,-1
 86 358 l 1,2,-1
 335 111 l 1,3,-1
 304 80 l 1,4,-1
 26 358 l 1,5,-1
 26 359 l 1,6,-1
 304 637 l 1,0,-1
EndSplineSet
EndChar

StartChar: equal
Encoding: 61 61 30
Width: 372
Flags: HMW
HStem: 133 80 238 80
VStem: 26 320<264 308 264 308 369 413 264 413>
LayerCount: 2
Fore
SplineSet
26 413 m 1,0,-1
 346 413 l 1,1,-1
 346 369 l 1,2,-1
 26 369 l 1,3,-1
 26 413 l 1,0,-1
26 308 m 1,4,-1
 346 308 l 1,5,-1
 346 264 l 1,6,-1
 26 264 l 1,7,-1
 26 308 l 1,4,-1
EndSplineSet
EndChar

StartChar: greater
Encoding: 62 62 31
Width: 361
Flags: HMW
HStem: -8 21G
VStem: -44 313 26 309<111 359 358 606>
LayerCount: 2
Fore
SplineSet
26 606 m 1,0,-1
 57 637 l 1,1,-1
 335 359 l 1,2,-1
 335 358 l 1,3,-1
 57 80 l 1,4,-1
 26 111 l 1,5,-1
 275 358 l 1,6,-1
 26 606 l 1,0,-1
EndSplineSet
EndChar

StartChar: question
Encoding: 63 63 32
Width: 407
Flags: HMW
HStem: 33 86 656 75
VStem: 26 45<532 577.5 532 578.5> 171 41<119 180 119 204 119 269.5> 322 59
LayerCount: 2
Fore
SplineSet
71 532 m 1,0,-1
 26 532 l 1,1,2
 26 607 26 607 72.5 658 c 128,-1,3
 119 709 119 709 204 709 c 0,4,5
 256 709 256 709 298 682.5 c 0,6,7
 379.99 630.768214286 379.99 630.768214286 379.99 536.595 c 0,8,9
 379.99 474.803636364 379.99 474.803636364 343 421 c 0,10,11
 324 394 324 394 296 365.5 c 128,-1,12
 268 337 268 337 252.5 320.5 c 128,-1,13
 237 304 237 304 224.5 268 c 128,-1,14
 212 232 212 232 212 180 c 2,15,-1
 212 119 l 1,16,-1
 171 119 l 1,17,-1
 171 204 l 2,18,19
 171 250 171 250 185 287 c 128,-1,20
 199 324 199 324 216.5 343.5 c 128,-1,21
 234 363 234 363 260.5 391 c 128,-1,22
 287 419 287 419 300 437 c 1,23,24
 332.666666667 489.266666667 332.666666667 489.266666667 332.666666667 537.177777778 c 0,25,26
 332.666666667 592.406392694 332.666666667 592.406392694 294.833333333 629.203196347 c 128,-1,27
 257 666 257 666 202 666 c 128,-1,28
 147 666 147 666 109 631.5 c 128,-1,29
 71 597 71 597 71 532 c 1,0,-1
191 55 m 128,-1,31
 202 55 202 55 210.5 47 c 128,-1,32
 219 39 219 39 219 28 c 128,-1,33
 219 17 219 17 210.5 8.5 c 128,-1,34
 202 0 202 0 191 0 c 128,-1,35
 180 0 180 0 171.5 8.5 c 128,-1,36
 163 17 163 17 163 28 c 128,-1,37
 163 39 163 39 171.5 47 c 128,-1,30
 180 55 180 55 191 55 c 128,-1,31
EndSplineSet
EndChar

StartChar: at
Encoding: 64 64 33
Width: 711
Flags: HMW
HStem: -17 55 125 65 131 68 505 68 676 55
VStem: 33 68 176 75 446 68 676 68
LayerCount: 2
Fore
SplineSet
322.232638889 54.4583333333 m 0,0,1
 159.942073171 54.4583333333 159.942073171 54.4583333333 149 204 c 1,2,-1
 149 305 l 2,3,4
 149 416 149 416 237 449 c 0,5,6
 269.666666667 461 269.666666667 461 308.222222222 461 c 0,7,8
 385.333333333 461 385.333333333 461 486 413 c 1,9,10
 482 474 482 474 438.5 505.5 c 0,11,12
 393.590277778 538.020833333 393.590277778 538.020833333 318.43359375 538.020833333 c 0,13,14
 211.520833333 538.020833333 211.520833333 538.020833333 141.260416667 491.510416667 c 128,-1,15
 71 445 71 445 71 342 c 2,16,-1
 71 190 l 2,17,18
 71 85 71 85 141.354545455 31.4909090909 c 128,-1,19
 211.709090909 -22.0181818182 211.709090909 -22.0181818182 320.940826446 -22.0181818182 c 0,20,21
 322.963636364 -22.0181818182 322.963636364 -22.0181818182 325 -22 c 0,22,23
 448 -22 448 -22 528 27.5 c 128,-1,24
 608 77 608 77 608 162 c 2,25,-1
 608 353 l 2,26,27
 608 432.5 608 432.5 621 452 c 0,28,29
 638.860465116 478.790697674 638.860465116 478.790697674 672 491 c 1,30,-1
 685 460 l 1,31,32
 651 445 651 445 651 390 c 2,33,-1
 652 171 l 2,34,35
 652 108 652 108 621.5 60 c 128,-1,36
 591 12 591 12 541 -14 c 0,37,38
 440.745475113 -66.1323529412 440.745475113 -66.1323529412 318.942590498 -66.1323529412 c 128,-1,39
 197.139705882 -66.1323529412 197.139705882 -66.1323529412 111.569852941 -2.56617647059 c 128,-1,40
 26 61 26 61 26 186 c 2,41,-1
 26 341 l 2,42,43
 26 464.384615385 26 464.384615385 115 526 c 0,44,45
 191.555555556 579 191.555555556 579 315.5 579 c 0,46,47
 448.164705882 579 448.164705882 579 502 507.5 c 0,48,49
 534 465 534 465 534 398 c 1,50,-1
 571 382 l 1,51,-1
 571 341 l 1,52,-1
 534 357 l 1,53,-1
 534 91 l 1,54,55
 397.799242424 54.4583333333 397.799242424 54.4583333333 322.232638889 54.4583333333 c 0,0,1
489 372 m 1,56,57
 393.523770492 418.573770492 393.523770492 418.573770492 300.769416823 418.573770492 c 0,58,59
 255.426229508 418.573770492 255.426229508 418.573770492 224.213114754 390.286885246 c 128,-1,60
 193 362 193 362 193 302 c 2,61,-1
 193 205 l 1,62,63
 194.307692308 93.8461538462 194.307692308 93.8461538462 333.763313609 93.8461538462 c 0,64,65
 401.076923077 93.8461538462 401.076923077 93.8461538462 489 125 c 1,66,-1
 489 372 l 1,56,57
EndSplineSet
EndChar

StartChar: A
Encoding: 65 65 34
Width: 527
Flags: HMW
HStem: 0 21G<12 59 12 12 469 517 469 469> 607 20G<263 263>
VStem: 59 410<0 0>
LayerCount: 2
Fore
SplineSet
242 700 m 1,0,-1
 284 700 l 1,1,-1
 517 0 l 1,2,-1
 469 0 l 1,3,-1
 383 256 l 1,4,-1
 143 256 l 1,5,-1
 59 0 l 1,6,-1
 12 0 l 1,7,-1
 242 700 l 1,0,-1
263 627 m 1,8,-1
 157 300 l 1,9,-1
 371 300 l 1,10,-1
 263 627 l 1,8,-1
EndSplineSet
EndChar

StartChar: B
Encoding: 66 66 35
Width: 546
Flags: HMW
HStem: 369 0<123 123 319 319> 657 0<123 123 291 291>
VStem: 78 45<43 369 413 657> 291 184 319 192<161.5 369>
LayerCount: 2
Fore
SplineSet
78 700 m 1,0,-1
 299 700 l 2,1,2
 381 700 381 700 428.010309278 657.93814433 c 128,-1,3
 475.020618557 615.87628866 475.020618557 615.87628866 475.020618557 528.044329897 c 128,-1,4
 475.020618557 440.212371134 475.020618557 440.212371134 403 397 c 0,5,6
 402 396 402 396 402 395 c 2,7,-1
 402 394 l 1,8,9
 449 374 449 374 480 328.5 c 128,-1,10
 511 283 511 283 511 209 c 0,11,12
 511 128.837209302 511 128.837209302 470.5 69.5 c 0,13,14
 449 38 449 38 407.5 19 c 128,-1,15
 366 0 366 0 308 0 c 2,16,-1
 78 0 l 1,17,-1
 78 700 l 1,0,-1
123 657 m 1,18,-1
 123 413 l 1,19,-1
 308 413 l 2,20,21
 361 413 361 413 395.012987013 443.967047877 c 128,-1,22
 429.025974026 474.934095755 429.025974026 474.934095755 429.025974026 536.356658267 c 128,-1,23
 429.025974026 597.779220779 429.025974026 597.779220779 392.012987013 627.38961039 c 128,-1,24
 355 657 355 657 291 657 c 2,25,-1
 123 657 l 1,18,-1
123 369 m 1,26,-1
 123 43 l 1,27,-1
 306 43 l 2,28,29
 463 43 463 43 463 213 c 0,30,31
 463 285 463 285 422 327 c 128,-1,32
 381 369 381 369 319 369 c 2,33,-1
 123 369 l 1,26,-1
EndSplineSet
EndChar

StartChar: C
Encoding: 67 67 36
Width: 434
Flags: HMW
HStem: -12 52 659 51
VStem: 66 45<183 185 185 504 504 513>
LayerCount: 2
Fore
SplineSet
427 23 m 1,0,1
 341.745951417 -10.0576923077 341.745951417 -10.0576923077 265.350591716 -10.0576923077 c 0,2,3
 248.615384615 -10.0576923077 248.615384615 -10.0576923077 216.307692308 -7.02884615385 c 128,-1,4
 184 -4 184 -4 147.5 15.5 c 128,-1,5
 111 35 111 35 88.5 77.5 c 128,-1,6
 66 120 66 120 66 183 c 2,7,-1
 66 504 l 2,8,9
 66 580 66 580 87.5 619 c 128,-1,10
 109 658 109 658 153 685 c 1,11,12
 198.161290323 710.290322581 198.161290323 710.290322581 260.046826223 710.290322581 c 0,13,14
 337.638709677 710.290322581 337.638709677 710.290322581 402 677 c 1,15,-1
 388 645 l 1,16,17
 330 669 330 669 273 669 c 0,18,19
 192.75 669 192.75 669 151.5 629 c 0,20,21
 135 613 135 613 123 583 c 128,-1,22
 111 553 111 553 111 513 c 2,23,-1
 111 185 l 2,24,25
 111 78 111 78 189.5 44.5 c 0,26,27
 220.994011976 31.0598802395 220.994011976 31.0598802395 274.386227545 31.0598802395 c 128,-1,28
 327.778443114 31.0598802395 327.778443114 31.0598802395 417 61 c 1,29,-1
 427 23 l 1,0,1
EndSplineSet
EndChar

StartChar: D
Encoding: 68 68 37
Width: 576
Flags: HMW
HStem: 0 197<78 453> 659 42<123 123 123 266 266 276>
VStem: 78 45<41 659 41 701 41 701> 276 222
LayerCount: 2
Fore
SplineSet
78 701 m 1,0,-1
 266 701 l 2,1,2
 379 701 379 701 438.5 639 c 128,-1,3
 498 577 498 577 498 474 c 2,4,-1
 498 200 l 2,5,6
 498 0 498 0 286 0 c 2,7,-1
 78 0 l 1,8,-1
 78 701 l 1,0,-1
123 659 m 1,9,-1
 123 41 l 1,10,-1
 272 41 l 2,11,12
 337.571428571 41 337.571428571 41 389 65 c 0,13,14
 453 94.8666666667 453 94.8666666667 453 197 c 2,15,-1
 453 479 l 2,16,17
 453 570 453 570 400.5 614.5 c 128,-1,18
 348 659 348 659 276 659 c 2,19,-1
 123 659 l 1,9,-1
EndSplineSet
EndChar

StartChar: E
Encoding: 69 69 38
Width: 465
Flags: HMW
HStem: 0 41<123 410 123 410> 658 42<123 412 123 123>
VStem: 78 45<41 369 413 658>
LayerCount: 2
Fore
SplineSet
78 700 m 1,0,-1
 412 700 l 1,1,-1
 412 658 l 1,2,-1
 123 658 l 1,3,-1
 123 413 l 1,4,-1
 325 413 l 1,5,-1
 310 369 l 1,6,-1
 123 369 l 1,7,-1
 123 41 l 1,8,-1
 410 41 l 1,9,-1
 410 0 l 1,10,-1
 78 0 l 1,11,-1
 78 700 l 1,0,-1
EndSplineSet
EndChar

StartChar: F
Encoding: 70 70 39
Width: 447
Flags: HMW
HStem: 657 43<123 412 123 123>
VStem: 78 45<0 369 413 657> 421 21
LayerCount: 2
Fore
SplineSet
78 700 m 1,0,-1
 412 700 l 1,1,-1
 412 657 l 1,2,-1
 123 657 l 1,3,-1
 123 413 l 1,4,-1
 305 413 l 1,5,-1
 286 369 l 1,6,-1
 123 369 l 1,7,-1
 123 0 l 1,8,-1
 78 0 l 1,9,-1
 78 700 l 1,0,-1
EndSplineSet
EndChar

StartChar: G
Encoding: 71 71 40
Width: 537
Flags: HMW
HStem: 0 21G<442 476 442 442> 35 20G<432 432> 659 51
VStem: 65 45<189 503 503 507> 432 44<55 55>
LayerCount: 2
Fore
SplineSet
110 507 m 2,0,-1
 110 187 l 2,1,2
 110 116 110 116 156 74.5 c 128,-1,3
 202 33 202 33 277 33 c 128,-1,4
 352 33 352 33 392.5 76 c 128,-1,5
 433 119 433 119 433 185 c 2,6,-1
 433 256 l 1,7,-1
 354 256 l 1,8,-1
 338 300 l 1,9,-1
 476 300 l 1,10,-1
 476 0 l 1,11,-1
 442 0 l 1,12,-1
 432 55 l 1,13,14
 383 -10 383 -10 276 -10 c 0,15,16
 188 -10 188 -10 126.5 40 c 128,-1,17
 65 90 65 90 65 189 c 2,18,-1
 65 503 l 2,19,20
 65 631 65 631 152 684 c 1,21,22
 197.161290323 709.290322581 197.161290323 709.290322581 258.638917794 709.290322581 c 0,23,24
 335.529032258 709.290322581 335.529032258 709.290322581 401 676 c 1,25,-1
 388 644 l 1,26,27
 331 668 331 668 277 669 c 1,28,29
 110 669 110 669 110 507 c 2,0,-1
EndSplineSet
EndChar

StartChar: H
Encoding: 72 72 41
Width: 588
Flags: HMW
VStem: 78 45<0 369 413 700> 79 21 463 45<0 369 369 369 413 700 0 700>
LayerCount: 2
Fore
SplineSet
78 700 m 1,0,-1
 123 700 l 1,1,-1
 123 413 l 1,2,-1
 463 413 l 1,3,-1
 463 700 l 1,4,-1
 508 700 l 1,5,-1
 508 0 l 1,6,-1
 463 0 l 1,7,-1
 463 369 l 1,8,-1
 123 369 l 1,9,-1
 123 0 l 1,10,-1
 78 0 l 1,11,-1
 78 700 l 1,0,-1
EndSplineSet
EndChar

StartChar: I
Encoding: 73 73 42
Width: 196
Flags: HMW
VStem: 101 45<0 658 658 658> 238 20
LayerCount: 2
Fore
SplineSet
29 700 m 1,0,-1
 146 700 l 1,1,-1
 146 0 l 1,2,-1
 101 0 l 1,3,-1
 101 658 l 1,4,-1
 29 660 l 1,5,-1
 29 700 l 1,0,-1
EndSplineSet
EndChar

StartChar: J
Encoding: 74 74 43
Width: 178
Flags: HMW
HStem: -17 80
VStem: 83 45<115 119 119 658 658 658> 283 20
LayerCount: 2
Fore
SplineSet
11 700 m 1,0,-1
 128 700 l 1,1,-1
 128 119 l 2,2,3
 128 -31 128 -31 9 -37 c 1,4,-1
 -2 -6 l 1,5,6
 33 -4 33 -4 58 24 c 128,-1,7
 83 52 83 52 83 115 c 2,8,-1
 83 658 l 1,9,-1
 11 660 l 1,10,-1
 11 700 l 1,0,-1
EndSplineSet
EndChar

StartChar: K
Encoding: 75 75 44
Width: 476
Flags: HMW
HStem: 694 20G
VStem: 79 45<0 272 349 701>
LayerCount: 2
Fore
SplineSet
79 701 m 1,0,-1
 124 701 l 1,1,-1
 124 349 l 1,2,-1
 372 701 l 1,3,-1
 424 701 l 1,4,-1
 215 404 l 1,5,-1
 476 0 l 1,6,-1
 423 0 l 1,7,-1
 187 362 l 1,8,-1
 124 272 l 1,9,-1
 124 0 l 1,10,-1
 79 0 l 1,11,-1
 79 701 l 1,0,-1
EndSplineSet
EndChar

StartChar: L
Encoding: 76 76 45
Width: 440
Flags: HMW
HStem: 0 80 694 20G
VStem: 84 61
LayerCount: 2
Fore
SplineSet
78 700 m 1,0,-1
 123 700 l 1,1,-1
 123 41 l 1,2,-1
 439 41 l 1,3,-1
 439 0 l 1,4,-1
 78 0 l 1,5,-1
 78 700 l 1,0,-1
EndSplineSet
EndChar

StartChar: M
Encoding: 77 77 46
Width: 694
Flags: HMW
HStem: 0 21G<78 123 78 78 321 369 321 321 569 614 569 569> 0 69<345 345 345 369 321 345> 569 131<78 123>
VStem: -47 20 78 45<0 569 0 700> 569 45<0 569 569 569 0 700>
LayerCount: 2
Fore
SplineSet
78 700 m 1,0,-1
 123 700 l 1,1,-1
 345 69 l 1,2,-1
 569 700 l 1,3,-1
 614 700 l 1,4,-1
 614 0 l 1,5,-1
 569 0 l 1,6,-1
 569 569 l 1,7,-1
 369 0 l 1,8,-1
 321 0 l 1,9,-1
 123 569 l 1,10,-1
 123 0 l 1,11,-1
 78 0 l 1,12,-1
 78 700 l 1,0,-1
EndSplineSet
EndChar

StartChar: N
Encoding: 78 78 47
Width: 650
Flags: HMW
HStem: 0 82<526 570 526 526> 619 81<78 123>
VStem: 34 20 78 45<0 619 0 700> 526 44<0 700 82 700 0 700>
LayerCount: 2
Fore
SplineSet
78 700 m 1,0,-1
 123 700 l 1,1,-1
 526 82 l 1,2,-1
 526 700 l 1,3,-1
 570 700 l 1,4,-1
 570 0 l 1,5,-1
 526 0 l 1,6,-1
 123 619 l 1,7,-1
 123 0 l 1,8,-1
 78 0 l 1,9,-1
 78 700 l 1,0,-1
EndSplineSet
EndChar

StartChar: O
Encoding: 79 79 48
Width: 549
Flags: HMW
HStem: 0 42 32 684<230 316.5>
VStem: 63 376<186 507 507 514 514 566 186 577.5> 108 375<131.5 185 185 506 111.5 514> 182 21
LayerCount: 2
Fore
SplineSet
63 185 m 2,0,-1
 63 507 l 2,1,2
 63 610 63 610 119.5 663 c 128,-1,3
 176 716 176 716 275 716 c 128,-1,4
 374 716 374 716 428.5 660 c 128,-1,5
 483 604 483 604 483 506 c 2,6,-1
 483 185 l 2,7,8
 483 84 483 84 421.5 36.5 c 128,-1,9
 360 -11 360 -11 274 -11 c 128,-1,10
 188 -11 188 -11 125.5 36.5 c 128,-1,11
 63 84 63 84 63 185 c 2,0,-1
108 514 m 2,12,-1
 108 185 l 2,13,14
 108 109 108 109 155.5 70.5 c 128,-1,15
 203 32 203 32 274 32 c 0,16,17
 345 32 345 32 392 69.5 c 128,-1,18
 439 107 439 107 439 186 c 2,19,-1
 439 514 l 2,20,21
 439 591 439 591 394.5 632 c 128,-1,22
 350 673 350 673 273 673 c 128,-1,23
 196 673 196 673 152 632 c 128,-1,24
 108 591 108 591 108 514 c 2,12,-1
EndSplineSet
EndChar

StartChar: P
Encoding: 80 80 49
Width: 547
Flags: HMW
HStem: 657 43<123 123 123 324 324 327> 700 21G<78 324 324 390>
VStem: 78 21<0 700 700 700> 123 0<0 0 256 256 300 300 657 657> 325 142
LayerCount: 2
Fore
SplineSet
123 657 m 1,0,-1
 123 300 l 1,1,-1
 325 300 l 2,2,3
 365 300 365 300 393 314.5 c 128,-1,4
 421 329 421 329 435 347.5 c 128,-1,5
 449 366 449 366 457 395 c 0,6,7
 467 431.25 467 431.25 467 486 c 0,8,9
 467 569 467 569 431 613 c 128,-1,10
 395 657 395 657 327 657 c 2,11,-1
 123 657 l 1,0,-1
78 700 m 1,12,-1
 324 700 l 2,13,14
 419 700 419 700 465.5 642 c 128,-1,15
 512 584 512 584 512 486 c 0,16,17
 512 363.789473684 512 363.789473684 467 310.5 c 0,18,19
 448 288 448 288 411.5 272 c 128,-1,20
 375 256 375 256 325 256 c 2,21,-1
 123 256 l 1,22,-1
 123 0 l 1,23,-1
 78 0 l 1,24,-1
 78 700 l 1,12,-1
EndSplineSet
EndChar

StartChar: Q
Encoding: 81 81 50
Width: 549
Flags: HMW
HStem: -94 83 32 684 673 21G<228 319.5>
VStem: -47 143 16 21 63 189<95 507> 108 375<133.5 185 185 506 123 516> 301 137
LayerCount: 2
Fore
SplineSet
63 185 m 2,0,-1
 63 507 l 2,1,2
 63 610 63 610 119.5 663 c 128,-1,3
 176 716 176 716 275 716 c 128,-1,4
 374 716 374 716 428.5 660 c 128,-1,5
 483 604 483 604 483 506 c 2,6,-1
 483 185 l 2,7,8
 483 98 483 98 436.5 50.5 c 128,-1,9
 390 3 390 3 315 -8 c 1,10,11
 340 -51 340 -51 428 -51 c 1,12,-1
 428 -94 l 1,13,14
 307 -94 307 -94 269 -11 c 1,15,16
 183 -9 183 -9 123 38.5 c 128,-1,17
 63 86 63 86 63 185 c 2,0,-1
108 516 m 2,18,-1
 108 185 l 2,19,20
 108 113 108 113 151 74.5 c 128,-1,21
 194 36 194 36 256 32 c 1,22,23
 252 56 252 56 252 95 c 2,24,-1
 252 174 l 1,25,-1
 297 174 l 1,26,-1
 297 96 l 2,27,28
 297 56 297 56 301 33 c 1,29,30
 364 39 364 39 401 79 c 128,-1,31
 438 119 438 119 438 187 c 2,32,-1
 438 516 l 2,33,34
 438 594 438 594 392.5 633.5 c 128,-1,35
 347 673 347 673 273.5 673 c 0,36,37
 200 673 200 673 154 634 c 128,-1,38
 108 595 108 595 108 516 c 2,18,-1
EndSplineSet
EndChar

StartChar: R
Encoding: 82 82 51
Width: 564
Flags: HMW
HStem: 657 43<123 123 123 322 322 324>
VStem: 78 45<0 256 0 300 300 657> 324 188<453 657> 597 21
LayerCount: 2
Fore
SplineSet
78 700 m 1,0,-1
 322 700 l 2,1,2
 418 700 418 700 465 642 c 128,-1,3
 512 584 512 584 512 486 c 0,4,5
 512 317 512 317 410 272 c 1,6,-1
 513 0 l 1,7,-1
 467 0 l 1,8,-1
 367 258 l 1,9,10
 345 256 345 256 331 256 c 2,11,-1
 123 256 l 1,12,-1
 123 0 l 1,13,-1
 78 0 l 1,14,-1
 78 700 l 1,0,-1
123 657 m 1,15,-1
 123 300 l 1,16,-1
 327 300 l 2,17,18
 467 300 467 300 467 486 c 0,19,20
 467 570 467 570 429.5 613.5 c 128,-1,21
 392 657 392 657 324 657 c 2,22,-1
 123 657 l 1,15,-1
EndSplineSet
EndChar

StartChar: S
Encoding: 83 83 52
Width: 561
Flags: HMW
HStem: -17 80 651 80
VStem: -114 21 37 46<178 178> 55 47<448.5 578 448.5 580> 412 14 464 48<132.5 287>
LayerCount: 2
Fore
SplineSet
37 178 m 1,0,-1
 83 178 l 1,1,2
 87 122 87 122 138 77 c 128,-1,3
 189 32 189 32 272 32 c 128,-1,4
 355 32 355 32 409.5 69 c 128,-1,5
 464 106 464 106 464 187 c 0,6,7
 464 234 464 234 433.5 267.5 c 128,-1,8
 403 301 403 301 358 318 c 128,-1,9
 313 335 313 335 259.5 354.5 c 128,-1,10
 206 374 206 374 161 393 c 128,-1,11
 116 412 116 412 85.5 449 c 128,-1,12
 55 486 55 486 55 538 c 0,13,14
 55 608 55 608 113 659 c 128,-1,15
 171 710 171 710 280 710 c 0,16,17
 363 710 363 710 426 680 c 1,18,-1
 412 637 l 1,19,20
 355 666 355 666 278.5 666 c 0,21,22
 202 666 202 666 152 632 c 128,-1,23
 102 598 102 598 102 535 c 0,24,25
 102 495 102 495 132.5 465.5 c 128,-1,26
 163 436 163 436 208.5 420.5 c 128,-1,27
 254 405 254 405 307 385.5 c 128,-1,28
 360 366 360 366 405.5 345.5 c 128,-1,29
 451 325 451 325 481.5 285 c 128,-1,30
 512 245 512 245 512 190 c 0,31,32
 512 98 512 98 453.5 43.5 c 128,-1,33
 395 -11 395 -11 279.5 -11 c 0,34,35
 164 -11 164 -11 101.5 46.5 c 128,-1,36
 39 104 39 104 37 178 c 1,0,-1
EndSplineSet
EndChar

StartChar: T
Encoding: 84 84 53
Width: 402
Flags: HMW
HStem: 0 21G<176 221 176 176> 634 80
VStem: -171 21 176 45<0 659 0 659> 393 20
LayerCount: 2
Fore
SplineSet
0 700 m 1,0,-1
 402 700 l 1,1,-1
 402 659 l 1,2,-1
 221 659 l 1,3,-1
 221 0 l 1,4,-1
 176 0 l 1,5,-1
 176 659 l 1,6,-1
 0 659 l 1,7,-1
 0 700 l 1,0,-1
EndSplineSet
EndChar

StartChar: U
Encoding: 85 85 54
Width: 566
Flags: HMW
HStem: -17 80 694 20G
VStem: 74 45<186 701> 102 20 450 45<180 186 186 701>
LayerCount: 2
Fore
SplineSet
74 701 m 1,0,-1
 119 701 l 1,1,-1
 119 180 l 2,2,3
 119 110 119 110 168 72 c 128,-1,4
 217 34 217 34 285 34 c 128,-1,5
 353 34 353 34 401.5 72 c 128,-1,6
 450 110 450 110 450 180 c 2,7,-1
 450 701 l 1,8,-1
 495 701 l 1,9,-1
 495 186 l 2,10,11
 495 133 495 133 476.5 94 c 128,-1,12
 458 55 458 55 426.5 34 c 128,-1,13
 395 13 395 13 360 3 c 128,-1,14
 325 -7 325 -7 285 -7 c 128,-1,15
 245 -7 245 -7 209.5 3 c 128,-1,16
 174 13 174 13 142.5 34 c 128,-1,17
 111 55 111 55 92.5 94 c 128,-1,18
 74 133 74 133 74 186 c 2,19,-1
 74 701 l 1,0,-1
EndSplineSet
EndChar

StartChar: V
Encoding: 86 86 55
Width: 591
Flags: HMW
HStem: 0 21G<287 348 287 287> 0 95 694 20G
VStem: -25 21 126 382<700 700>
LayerCount: 2
Fore
SplineSet
78 700 m 1,0,-1
 126 700 l 1,1,-1
 317 56 l 1,2,-1
 508 700 l 1,3,-1
 556 700 l 1,4,-1
 348 0 l 1,5,-1
 287 0 l 1,6,-1
 78 700 l 1,0,-1
EndSplineSet
EndChar

StartChar: W
Encoding: 87 87 56
Width: 809
Flags: HMW
HStem: 0 21G<248 314 248 248 540 606 540 540> 0 120 600 114 694 20G
VStem: 78 696<700 700> 313 21
LayerCount: 2
Fore
SplineSet
78 700 m 1,0,-1
 126 700 l 1,1,-1
 278 59 l 1,2,-1
 397 700 l 1,3,-1
 457 700 l 1,4,-1
 576 59 l 1,5,-1
 725 700 l 1,6,-1
 774 700 l 1,7,-1
 606 0 l 1,8,-1
 540 0 l 1,9,-1
 427 615 l 1,10,-1
 314 0 l 1,11,-1
 248 0 l 1,12,-1
 78 700 l 1,0,-1
EndSplineSet
EndChar

StartChar: X
Encoding: 88 88 57
Width: 587
Flags: HMW
HStem: 0 21G<45 101 45 45 497 497> 694 20G
VStem: -208 21 64 472<700 700>
LayerCount: 2
Fore
SplineSet
64 700 m 1,0,-1
 114 700 l 1,1,-1
 299 399 l 1,2,-1
 484 700 l 1,3,-1
 536 700 l 1,4,-1
 326 356 l 1,5,-1
 552 1 l 1,6,-1
 497 0 l 1,7,-1
 299 310 l 1,8,-1
 101 0 l 1,9,-1
 45 0 l 1,10,-1
 272 356 l 1,11,-1
 64 700 l 1,0,-1
EndSplineSet
EndChar

StartChar: Y
Encoding: 89 89 58
Width: 556
Flags: HMW
HStem: 0 21G 694 20G
VStem: -31 20 60 45<453 700> 458 46<152 153 153 308 308 308 401 700>
LayerCount: 2
Fore
SplineSet
60 700 m 1,0,-1
 105 700 l 1,1,-1
 105 447 l 2,2,3
 105 371 105 371 154 330 c 128,-1,4
 203 289 203 289 278.5 289 c 128,-1,5
 354 289 354 289 401 318.5 c 128,-1,6
 448 348 448 348 458 401 c 1,7,-1
 458 700 l 1,8,-1
 504 700 l 1,9,-1
 504 153 l 2,10,11
 504 11 504 11 399 -7 c 1,12,-1
 388 24 l 1,13,14
 438.477272727 43.4143356643 438.477272727 43.4143356643 451.5 92.5 c 0,15,16
 458 117 458 117 458 152 c 2,17,-1
 458 308 l 1,18,19
 431 276 431 276 382 260.5 c 128,-1,20
 333 245 333 245 289 245 c 0,21,22
 183 245 183 245 121.5 297.5 c 128,-1,23
 60 350 60 350 60 453 c 2,24,-1
 60 700 l 1,0,-1
EndSplineSet
EndChar

StartChar: Z
Encoding: 90 90 59
Width: 550
Flags: HMW
HStem: 0 80 634 80
VStem: 31 487<0 41 0 41>
LayerCount: 2
Fore
SplineSet
44 700 m 1,0,-1
 512 700 l 1,1,-1
 512 659 l 1,2,-1
 88 41 l 1,3,-1
 518 41 l 1,4,-1
 518 0 l 1,5,-1
 31 0 l 1,6,-1
 31 41 l 1,7,-1
 455 659 l 1,8,-1
 44 659 l 1,9,-1
 44 700 l 1,0,-1
EndSplineSet
EndChar

StartChar: bracketleft
Encoding: 91 91 60
Width: 319
Flags: HMW
HStem: -198 68 663 68
VStem: 78 45<-70 773 -70 817 -70 817>
LayerCount: 2
Fore
SplineSet
78 817 m 1,0,-1
 239 817 l 1,1,-1
 239 780 l 1,2,-1
 123 773 l 1,3,-1
 123 -70 l 1,4,-1
 239 -77 l 1,5,-1
 239 -114 l 1,6,-1
 78 -114 l 1,7,-1
 78 817 l 1,0,-1
EndSplineSet
EndChar

StartChar: backslash
Encoding: 92 92 61
Width: 483
Flags: HMW
HStem: -17 21G 711 20G
VStem: 32 456 38 274
LayerCount: 2
Fore
SplineSet
78 817 m 1,0,-1
 124 817 l 1,1,-1
 448 -114 l 1,2,-1
 400 -114 l 1,3,-1
 78 817 l 1,0,-1
EndSplineSet
EndChar

StartChar: bracketright
Encoding: 93 93 62
Width: 319
Flags: HMW
HStem: -198 68 663 68
VStem: 191 56 194 45<-70 773 773 773>
LayerCount: 2
Fore
SplineSet
78 817 m 1,0,-1
 239 817 l 1,1,-1
 239 -114 l 1,2,-1
 78 -114 l 1,3,-1
 78 -77 l 1,4,-1
 194 -70 l 1,5,-1
 194 773 l 1,6,-1
 78 780 l 1,7,-1
 78 817 l 1,0,-1
EndSplineSet
EndChar

StartChar: asciicircum
Encoding: 94 94 63
Width: 403
Flags: HMW
HStem: 264 433
VStem: 78 290<758 758>
LayerCount: 2
Fore
SplineSet
78 758 m 1,0,-1
 226 899 l 1,1,-1
 368 758 l 1,2,-1
 337 726 l 1,3,-1
 225 837 l 1,4,-1
 109 726 l 1,5,-1
 78 758 l 1,0,-1
EndSplineSet
EndChar

StartChar: underscore
Encoding: 95 95 64
Width: 514
Flags: HMW
HStem: -125 50
VStem: 76 320<-44 0 -44 0>
LayerCount: 2
Fore
SplineSet
76 0 m 1,0,-1
 396 0 l 1,1,-1
 396 -44 l 1,2,-1
 76 -44 l 1,3,-1
 76 0 l 1,0,-1
EndSplineSet
EndChar

StartChar: quoteleft
Encoding: 8216 8216 65
Width: 329
Flags: HMW
HStem: 456 111 517 111 633 84
VStem: -3 104 -2 58<598 601.5 598 625.5>
LayerCount: 2
Fore
SplineSet
32 630 m 1,0,-1
 39 628 l 1,1,2
 56 618 56 618 55.5 602.5 c 0,3,4
 55 587 55 587 47.4705882353 579.941176471 c 0,5,6
 39.9411764706 572.882352941 39.9411764706 572.882352941 34.1764705882 572.882352941 c 0,7,8
 28.4117647059 572.882352941 28.4117647059 572.882352941 22.2058823529 573.441176471 c 0,9,10
 16 574 16 574 7 583.5 c 128,-1,11
 -2 593 -2 593 -2 604 c 0,12,13
 -2 659 -2 659 62 712 c 1,14,-1
 94 689 l 1,15,16
 72 677 72 677 56.5 662 c 128,-1,17
 41 647 41 647 32 630 c 1,0,-1
EndSplineSet
EndChar

StartChar: a
Encoding: 97 97 66
Width: 458
Flags: HMW
HStem: -12 51 473 36<211 318>
VStem: 37 44<169 249> 377 45<38 298 0 309 0 309>
LayerCount: 2
Fore
SplineSet
256.334339872 -9.83092731104 m 0,0,1
 37 -9.83092731104 37 -9.83092731104 37 169 c 2,2,-1
 37 252 l 2,3,4
 37 351 37 351 107 385 c 0,5,6
 143.486486486 401.891891892 143.486486486 401.891891892 179.608108108 401.891891892 c 0,7,8
 301.545945946 401.891891892 301.545945946 401.891891892 377 346 c 1,9,10
 377 403 377 403 342.479452055 438.01369863 c 128,-1,11
 307.95890411 473.02739726 307.95890411 473.02739726 216.214486771 473.02739726 c 0,12,13
 213.630136986 473.02739726 213.630136986 473.02739726 211 473 c 1,14,-1
 214 509 l 1,15,16
 295 509 295 509 334 489.5 c 0,17,18
 355 479 355 479 371 468 c 128,-1,19
 387 457 387 457 396 439 c 128,-1,20
 405 421 405 421 411 407.5 c 128,-1,21
 417 394 417 394 419 371 c 0,22,23
 422 336.5 422 336.5 422 298 c 2,24,-1
 422 0 l 1,25,26
 317.792170503 -9.83092731104 317.792170503 -9.83092731104 256.334339872 -9.83092731104 c 0,0,1
81 249 m 2,27,-1
 81 162 l 2,28,29
 81 114 81 114 104.5 83 c 128,-1,30
 128 52 128 52 168.5 41.5 c 0,31,32
 258.304347826 18.2173913043 258.304347826 18.2173913043 377 38 c 1,33,-1
 377 309 l 1,34,35
 293.732240437 355.016393443 293.732240437 355.016393443 196 361 c 0,36,37
 191.258064516 361.290322581 191.258064516 361.290322581 186.665972945 361.290322581 c 0,38,39
 143.806451613 361.290322581 143.806451613 361.290322581 112.403225806 334.64516129 c 128,-1,40
 81 308 81 308 81 249 c 2,27,-1
EndSplineSet
EndChar

StartChar: b
Encoding: 98 98 67
Width: 482
Flags: HMW
HStem: 680 20G<78 123 123 123>
VStem: 78 45<40 435 475 700> 403 44<156 157 157 343 343 346>
LayerCount: 2
Fore
SplineSet
123 475 m 1,0,1
 176.12539185 509.236363636 176.12539185 509.236363636 262.974545455 509.236363636 c 0,2,3
 320.181818182 509.236363636 320.181818182 509.236363636 362 490 c 0,4,5
 447 451 447 451 447 346 c 2,6,-1
 447 157 l 2,7,8
 447 58 447 58 369 18 c 0,9,10
 310 -12 310 -12 237 -12 c 128,-1,11
 164 -12 164 -12 78 0 c 1,12,-1
 78 700 l 1,13,-1
 123 700 l 1,14,-1
 123 475 l 1,0,1
266.3288 468.28 m 0,15,16
 184.305263158 468.28 184.305263158 468.28 123 435 c 1,17,-1
 123 40 l 1,18,19
 189.666666667 30.4761904762 189.666666667 30.4761904762 220.857142857 30.4761904762 c 128,-1,20
 252.047619048 30.4761904762 252.047619048 30.4761904762 255 30.5 c 0,21,22
 317 31 317 31 360 63 c 128,-1,23
 403 95 403 95 403 156 c 2,24,-1
 403 343 l 2,25,26
 403 399 403 399 372 431 c 128,-1,27
 341 463 341 463 295.5 467 c 0,28,29
 280.94 468.28 280.94 468.28 266.3288 468.28 c 0,15,16
EndSplineSet
EndChar

StartChar: c
Encoding: 99 99 68
Width: 383
Flags: HMW
HStem: -12 51 460 69
VStem: 36 45<180 308 308 314 169 405.5>
LayerCount: 2
Fore
SplineSet
343 443 m 1,0,1
 284.941176471 468.941176471 284.941176471 468.941176471 240 468.941176471 c 128,-1,2
 195.058823529 468.941176471 195.058823529 468.941176471 161.529411765 457.470588235 c 128,-1,3
 128 446 128 446 104.5 408.5 c 128,-1,4
 81 371 81 371 81 314 c 2,5,-1
 81 169 l 2,6,7
 81 29.3269230769 81 29.3269230769 241.079881657 29.3269230769 c 0,8,9
 289.889423077 29.3269230769 289.889423077 29.3269230769 348 43 c 1,10,-1
 358 6 l 1,11,12
 294 -11.0666666667 294 -11.0666666667 242 -11.0666666667 c 128,-1,13
 190 -11.0666666667 190 -11.0666666667 139.5 5.46666666667 c 0,14,15
 36 39.3518151815 36 39.3518151815 36 180 c 2,16,-1
 36 308 l 2,17,18
 36 379 36 379 64 427 c 0,19,20
 112.239130435 509.695652174 112.239130435 509.695652174 221.506616257 509.695652174 c 0,21,22
 287.913043478 509.695652174 287.913043478 509.695652174 356 478 c 1,23,-1
 343 443 l 1,0,1
EndSplineSet
EndChar

StartChar: d
Encoding: 100 100 69
Width: 475
Flags: HMW
HStem: -11 50 0 63 459 50 694 20G
VStem: 70 55 383 56
LayerCount: 2
Fore
SplineSet
254.675702479 509.236363636 m 0,0,1
 340.694043887 509.236363636 340.694043887 509.236363636 395 475 c 1,2,-1
 395 700 l 1,3,-1
 440 700 l 1,4,-1
 440 0 l 1,5,6
 354 -12 354 -12 281 -12 c 128,-1,7
 208 -12 208 -12 149 18 c 0,8,9
 71 58 71 58 71 157 c 2,10,-1
 71 346 l 2,11,12
 71 451 71 451 156 490 c 0,13,14
 197.818181818 509.236363636 197.818181818 509.236363636 254.675702479 509.236363636 c 0,0,1
395 435 m 1,15,16
 333.694736842 468.28 333.694736842 468.28 251.6712 468.28 c 0,17,18
 237.06 468.28 237.06 468.28 222.5 467 c 0,19,20
 177 463 177 463 146 431 c 128,-1,21
 115 399 115 399 115 343 c 2,22,-1
 115 156 l 2,23,24
 115 95 115 95 158 63 c 0,25,26
 201.703869048 30.4761904762 201.703869048 30.4761904762 265.01860119 30.4761904762 c 128,-1,27
 328.333333333 30.4761904762 328.333333333 30.4761904762 395 40 c 1,28,-1
 395 435 l 1,15,16
EndSplineSet
EndChar

StartChar: e
Encoding: 101 101 70
Width: 434
Flags: HMW
HStem: -12 51 205 58 471 39<183 243>
VStem: 35 45<134 205 249 339> 80 315<73.5 342 133 342 249 249 249 339>
LayerCount: 2
Fore
SplineSet
370 35 m 1,0,1
 292.54025974 -12.1038961039 292.54025974 -12.1038961039 208.575324675 -12.1038961039 c 0,2,3
 35 -12.1038961039 35 -12.1038961039 35 134 c 2,4,-1
 35 339 l 2,5,6
 35 420 35 420 85.5 465 c 128,-1,7
 136 510 136 510 219 510 c 128,-1,8
 302 510 302 510 348.5 465.5 c 128,-1,9
 395 421 395 421 395 342 c 2,10,-1
 395 222 l 1,11,-1
 80 205 l 1,12,-1
 80 133 l 2,13,14
 80 76 80 76 117.02238806 51.6194029851 c 128,-1,15
 154.044776119 27.2388059701 154.044776119 27.2388059701 201.055691691 27.2388059701 c 0,16,17
 272.586353945 27.2388059701 272.586353945 27.2388059701 352 70 c 1,18,-1
 370 35 l 1,0,1
80 339 m 2,19,-1
 80 249 l 1,20,-1
 350 263 l 1,21,-1
 350 347 l 2,22,23
 350 414 350 414 309 442.5 c 128,-1,24
 268 471 268 471 213.5 471 c 128,-1,25
 159 471 159 471 119.5 439 c 128,-1,26
 80 407 80 407 80 339 c 2,19,-1
EndSplineSet
EndChar

StartChar: f
Encoding: 102 102 71
Width: 296
Flags: HMW
HStem: 0 21G<78 123 78 78> 458 43<123 229 123 248> 668 39<254 261>
VStem: 78 45<0 458 501 549>
LayerCount: 2
Fore
SplineSet
261 707 m 1,0,-1
 254 668 l 1,1,2
 240.947368421 669.684210526 240.947368421 669.684210526 229.113573407 669.684210526 c 0,3,4
 184.736842105 669.684210526 184.736842105 669.684210526 153.868421053 642.842105263 c 128,-1,5
 123 616 123 616 123 549 c 2,6,-1
 123 501 l 1,7,-1
 248 501 l 1,8,-1
 229 458 l 1,9,-1
 123 458 l 1,10,-1
 123 0 l 1,11,-1
 78 0 l 1,12,-1
 78 549 l 2,13,14
 78 599 78 599 95 635 c 128,-1,15
 112 671 112 671 138.5 686.5 c 0,16,17
 181.094549499 711.413793103 181.094549499 711.413793103 226.336504162 711.413793103 c 0,18,19
 243.896551724 711.413793103 243.896551724 711.413793103 261 707 c 1,0,-1
EndSplineSet
EndChar

StartChar: g
Encoding: 103 103 72
Width: 448
Flags: HMW
HStem: -210 35<295 307> -12 42<180 255> 469 41<195 257.5 171 258.5>
VStem: 37 45<176 320> 369 45<-63 65 65 65 169 354 354 354>
LayerCount: 2
Fore
SplineSet
372 441 m 1,0,-1
 369 501 l 1,1,-1
 414 501 l 1,2,-1
 414 -64 l 2,3,4
 414 -124 414 -124 389 -158 c 128,-1,5
 364 -192 364 -192 307 -210 c 1,6,-1
 295 -175 l 1,7,8
 369 -147 369 -147 369 -63 c 2,9,-1
 369 65 l 1,10,11
 322 -12 322 -12 228.5 -12 c 0,12,13
 135 -12 135 -12 86 36 c 128,-1,14
 37 84 37 84 37 176 c 2,15,-1
 37 325 l 2,16,17
 37 413 37 413 89 461.5 c 128,-1,18
 141 510 141 510 233.5 510 c 0,19,20
 326 510 326 510 372 441 c 1,0,-1
82 320 m 2,21,-1
 82 167 l 2,22,23
 82 101 82 101 119.5 65.5 c 128,-1,24
 157 30 157 30 219 30 c 0,25,26
 281 30 281 30 325 65.5 c 128,-1,27
 369 101 369 101 369 169 c 2,28,-1
 369 354 l 1,29,30
 363 413 363 413 322 441 c 128,-1,31
 281 469 281 469 225 469 c 128,-1,32
 169 469 169 469 125.5 434.5 c 128,-1,33
 82 400 82 400 82 320 c 2,21,-1
EndSplineSet
EndChar

StartChar: h
Encoding: 104 104 73
Width: 493
Flags: HMW
HStem: 0 21G<64 109 64 64 389 433 389 389> 454 21 460 49 694 20G
VStem: 64 45<0 434 474 700> 389 44<0 344 344 346 0 421.5>
LayerCount: 2
Fore
SplineSet
109 434 m 1,0,-1
 109 0 l 1,1,-1
 64 0 l 1,2,-1
 64 700 l 1,3,-1
 109 700 l 1,4,-1
 109 474 l 1,5,6
 165.378181818 509.236363636 165.378181818 509.236363636 251.894214876 509.236363636 c 0,7,8
 308.690909091 509.236363636 308.690909091 509.236363636 348 490 c 1,9,10
 433 451 433 451 433 346 c 2,11,-1
 433 0 l 1,12,-1
 389 0 l 1,13,-1
 389 344 l 2,14,15
 389 399 389 399 359 430.5 c 0,16,17
 322.537414966 468.785714286 322.537414966 468.785714286 247.945493197 468.785714286 c 128,-1,18
 173.353571429 468.785714286 173.353571429 468.785714286 109 434 c 1,0,-1
EndSplineSet
EndChar

StartChar: i
Encoding: 105 105 74
Width: 213
Flags: HMW
HStem: 0 21G<83 128 83 83> 610 104
VStem: 83 45<0 501 0 501>
LayerCount: 2
Fore
SplineSet
83 501 m 1,0,-1
 128 501 l 1,1,-1
 128 0 l 1,2,-1
 83 0 l 1,3,-1
 83 501 l 1,0,-1
78 683 m 128,-1,5
 78 694 78 694 86.5 702 c 128,-1,6
 95 710 95 710 106 710 c 128,-1,7
 117 710 117 710 125 702 c 128,-1,8
 133 694 133 694 133 683 c 128,-1,9
 133 672 133 672 125 663.5 c 128,-1,10
 117 655 117 655 106 655 c 128,-1,11
 95 655 95 655 86.5 663.5 c 128,-1,4
 78 672 78 672 78 683 c 128,-1,5
EndSplineSet
EndChar

StartChar: j
Encoding: 106 106 75
Width: 194
Flags: HMW
HStem: -209 35 457 52 654 67
VStem: -139 21 73 45<-64 457 457 457>
LayerCount: 2
Fore
SplineSet
0 501 m 1,0,-1
 118 501 l 1,1,-1
 118 -77 l 1,2,3
 116 -131 116 -131 85.5 -168.5 c 128,-1,4
 55 -206 55 -206 0 -209 c 1,5,-1
 -6 -174 l 1,6,7
 1.76923076923 -174 1.76923076923 -174 18.3846153846 -166 c 128,-1,8
 35 -158 35 -158 45.5 -147 c 0,9,10
 73 -118.19047619 73 -118.19047619 73 -64 c 2,11,-1
 73 457 l 1,12,-1
 19 459 l 1,13,-1
 0 501 l 1,0,-1
69 683 m 128,-1,15
 69 694 69 694 77.5 702 c 128,-1,16
 86 710 86 710 97 710 c 128,-1,17
 108 710 108 710 116 702 c 128,-1,18
 124 694 124 694 124 683 c 128,-1,19
 124 672 124 672 116 663.5 c 128,-1,20
 108 655 108 655 97 655 c 128,-1,21
 86 655 86 655 77.5 663.5 c 128,-1,14
 69 672 69 672 69 683 c 128,-1,15
EndSplineSet
EndChar

StartChar: k
Encoding: 107 107 76
Width: 435
Flags: HMW
HStem: 0 21G<67 112 67 67 380 434 380 380> 500 20G<323 323> 694 20G
VStem: 67 45<0 273 325 700>
LayerCount: 2
Fore
SplineSet
67 700 m 1,0,-1
 112 700 l 1,1,-1
 112 325 l 1,2,-1
 323 520 l 1,3,-1
 355 489 l 1,4,-1
 210 360 l 1,5,6
 279 245 279 245 434 0 c 1,7,-1
 380 0 l 1,8,-1
 178 332 l 1,9,-1
 112 273 l 1,10,-1
 112 0 l 1,11,-1
 67 0 l 1,12,-1
 67 700 l 1,0,-1
EndSplineSet
EndChar

StartChar: l
Encoding: 108 108 77
Width: 203
Flags: HMW
HStem: 0 21G<78 123 78 78> 694 20G
VStem: 78 45<0 700 0 700>
LayerCount: 2
Fore
SplineSet
78 700 m 1,0,-1
 123 700 l 1,1,-1
 123 0 l 1,2,-1
 78 0 l 1,3,-1
 78 700 l 1,0,-1
EndSplineSet
EndChar

StartChar: m
Encoding: 109 109 78
Width: 737
Flags: HMW
HStem: 0 21G<78 123 78 78 376 420 376 376 658 702 658 658> 454 75
VStem: 78 45<0 434 0 501> 376 44<0 342 0 353 0 426.5> 658 44<0 343 343 346 0 409.5>
LayerCount: 2
Fore
SplineSet
123 434 m 1,0,-1
 123 0 l 1,1,-1
 78 0 l 1,2,-1
 78 501 l 1,3,-1
 123 501 l 1,4,-1
 119 471 l 1,5,6
 190.066666667 508.355555556 190.066666667 508.355555556 265.597530864 508.355555556 c 128,-1,7
 341.128395062 508.355555556 341.128395062 508.355555556 385 459 c 1,8,9
 473.323529412 509.470588235 473.323529412 509.470588235 549.105536332 509.470588235 c 0,10,11
 620.037433155 509.470588235 620.037433155 509.470588235 661.018716578 463.235294118 c 128,-1,12
 702 417 702 417 702 346 c 2,13,-1
 702 0 l 1,14,-1
 658 0 l 1,15,-1
 658 343 l 2,16,17
 658 391 658 391 638 421.5 c 0,18,19
 605.950819672 470.375 605.950819672 470.375 536.4375 470.375 c 0,20,21
 491.007352941 470.375 491.007352941 470.375 447 449 c 2,22,-1
 405 428 l 1,23,24
 420 399 420 399 420 342 c 2,25,-1
 420 0 l 1,26,-1
 376 0 l 1,27,-1
 376 353 l 2,28,29
 376 405 376 405 348.5 434 c 0,30,31
 316.039787798 468.230769231 316.039787798 468.230769231 250.147424264 468.230769231 c 128,-1,32
 184.255060729 468.230769231 184.255060729 468.230769231 123 434 c 1,0,-1
EndSplineSet
EndChar

StartChar: n
Encoding: 110 110 79
Width: 500
Flags: HMW
HStem: 0 21G<64 109 64 64 389 433 389 389> 472 55
VStem: 64 56 378 55
LayerCount: 2
Fore
SplineSet
250.262688615 467.851851852 m 0,0,1
 171.625925926 467.851851852 171.625925926 467.851851852 109 434 c 1,2,-1
 109 0 l 1,3,-1
 64 0 l 1,4,-1
 64 501 l 1,5,-1
 109 501 l 1,6,-1
 109 474 l 1,7,8
 165.378181818 509.236363636 165.378181818 509.236363636 251.894214876 509.236363636 c 0,9,10
 308.690909091 509.236363636 308.690909091 509.236363636 348 490 c 1,11,12
 433 451 433 451 433 346 c 2,13,-1
 433 0 l 1,14,-1
 389 0 l 1,15,-1
 389 344 l 2,16,17
 389 398 389 398 358.5 429.5 c 128,-1,18
 328 461 328 461 283.5 466 c 0,19,20
 267.018518519 467.851851852 267.018518519 467.851851852 250.262688615 467.851851852 c 0,0,1
EndSplineSet
EndChar

StartChar: o
Encoding: 111 111 80
Width: 455
Flags: HMW
HStem: -10 40<187.5 282.5 187.5 301> 471 41<194 274>
VStem: 47 45<184 316 316 317> 375 45<177 184 184 316>
LayerCount: 2
Fore
SplineSet
47 184 m 2,0,-1
 47 316 l 2,1,2
 47 411 47 411 95.5 461.5 c 128,-1,3
 144 512 144 512 233 512 c 0,4,5
 322 512 322 512 371 459.5 c 128,-1,6
 420 407 420 407 420 316 c 2,7,-1
 420 184 l 2,8,9
 420 100 420 100 374 45 c 128,-1,10
 328 -10 328 -10 235 -10 c 128,-1,11
 142 -10 142 -10 94.5 45.5 c 128,-1,12
 47 101 47 101 47 184 c 2,0,-1
92 317 m 2,13,-1
 92 177 l 2,14,15
 92 113 92 113 129.5 71.5 c 128,-1,16
 167 30 167 30 235 30 c 128,-1,17
 303 30 303 30 339 71 c 128,-1,18
 375 112 375 112 375 177 c 2,19,-1
 375 317 l 2,20,21
 375 395 375 395 336.5 433 c 128,-1,22
 298 471 298 471 234 471 c 0,23,24
 170 471 170 471 131 433.5 c 128,-1,25
 92 396 92 396 92 317 c 2,13,-1
EndSplineSet
EndChar

StartChar: p
Encoding: 112 112 81
Width: 490
Flags: HMW
HStem: -198 21G -12 75 454 63 454 75
VStem: 78 56 167 21 399 56
LayerCount: 2
Fore
SplineSet
78 501 m 1,0,-1
 123 501 l 1,1,-1
 119 446 l 1,2,3
 146 477 146 477 185 493 c 128,-1,4
 224 509 224 509 261 509 c 0,5,6
 356 509 356 509 405.5 454.5 c 128,-1,7
 455 400 455 400 455 314 c 2,8,-1
 455 176 l 2,9,10
 455 85 455 85 403.5 36.5 c 128,-1,11
 352 -12 352 -12 261 -12 c 0,12,13
 170 -12 170 -12 123 52 c 1,14,-1
 123 -210 l 1,15,-1
 78 -193 l 1,16,-1
 78 501 l 1,0,-1
410 166 m 2,17,-1
 410 318 l 2,18,19
 410 373 410 373 386 408.5 c 128,-1,20
 362 444 362 444 331.5 456 c 128,-1,21
 301 468 301 468 257 468 c 0,22,23
 213 468 213 468 171.5 439 c 128,-1,24
 130 410 130 410 123 346 c 1,25,-1
 123 163 l 2,26,27
 123 96 123 96 162.5 62.5 c 128,-1,28
 202 29 202 29 264 29 c 0,29,30
 326 29 326 29 368 63.5 c 128,-1,31
 410 98 410 98 410 166 c 2,17,-1
EndSplineSet
EndChar

StartChar: q
Encoding: 113 113 82
Width: 448
Flags: HMW
HStem: -198 21G -12 75 454 63 454 75
VStem: -56 21 37 45<176 314 314 318> 369 45<-193 52 52 52 163 346 346 346 -210 501>
LayerCount: 2
Fore
SplineSet
369 501 m 1,0,-1
 414 501 l 1,1,-1
 414 -210 l 1,2,-1
 369 -193 l 1,3,-1
 369 52 l 1,4,5
 322 -12 322 -12 231 -12 c 0,6,7
 140 -12 140 -12 88.5 36.5 c 128,-1,8
 37 85 37 85 37 176 c 2,9,-1
 37 314 l 2,10,11
 37 400 37 400 86.5 454.5 c 128,-1,12
 136 509 136 509 231 509 c 0,13,14
 268 509 268 509 307 493 c 128,-1,15
 346 477 346 477 373 446 c 1,16,-1
 369 501 l 1,0,-1
82 318 m 2,17,-1
 82 166 l 2,18,19
 82 98 82 98 124 63.5 c 128,-1,20
 166 29 166 29 228 29 c 0,21,22
 290 29 290 29 329.5 62.5 c 128,-1,23
 369 96 369 96 369 163 c 2,24,-1
 369 346 l 1,25,26
 362 410 362 410 320 439 c 128,-1,27
 278 468 278 468 224 468 c 0,28,29
 170 468 170 468 126 432.5 c 128,-1,30
 82 397 82 397 82 318 c 2,17,-1
EndSplineSet
EndChar

StartChar: r
Encoding: 114 114 83
Width: 333
Flags: HMW
HStem: 0 21G<61 106 61 61> 439 90 497 20G
VStem: 61 45<0 394 0 501>
LayerCount: 2
Fore
SplineSet
61 501 m 1,0,-1
 106 501 l 1,1,-1
 104 461 l 1,2,3
 153.285714286 509.581632653 153.285714286 509.581632653 235.785401916 509.581632653 c 0,4,5
 270.459183673 509.581632653 270.459183673 509.581632653 311 501 c 1,6,-1
 299 459 l 1,7,8
 268.407407407 469.888888889 268.407407407 469.888888889 236.833333333 469.888888889 c 0,9,10
 205.259259259 469.888888889 205.259259259 469.888888889 173 460.5 c 0,11,12
 106 441 106 441 106 394 c 2,13,-1
 106 0 l 1,14,-1
 61 0 l 1,15,-1
 61 501 l 1,0,-1
EndSplineSet
EndChar

StartChar: s
Encoding: 115 115 84
Width: 431
Flags: HMW
HStem: 454 75
VStem: 36 43<127 127> 50 44 315 16 351 45<90 193.5>
LayerCount: 2
Fore
SplineSet
331 484 m 1,0,-1
 315 446 l 1,1,2
 277 472 277 472 221 472.5 c 128,-1,3
 165 473 165 473 129.209302326 448.040697674 c 128,-1,4
 93.4186046512 423.081395349 93.4186046512 423.081395349 93.4186046512 381.310167658 c 0,5,6
 93.4186046512 340.259033989 93.4186046512 340.259033989 127.709302326 318.629516995 c 128,-1,7
 162 297 162 297 205.5 284 c 128,-1,8
 249 271 249 271 292.5 255.5 c 128,-1,9
 336 240 336 240 366 207.5 c 128,-1,10
 396 175 396 175 396 120 c 128,-1,11
 396 65 396 65 351.5 25 c 128,-1,12
 307 -15 307 -15 221.5 -15 c 128,-1,13
 136 -15 136 -15 87 26 c 128,-1,14
 38 67 38 67 36 127 c 1,15,-1
 79 127 l 1,16,17
 85 80 85 80 124.5 53.5 c 128,-1,18
 164 27 164 27 218.5 27 c 128,-1,19
 273 27 273 27 312 52 c 128,-1,20
 351 77 351 77 351 119.5 c 128,-1,21
 351 162 351 162 322 187 c 128,-1,22
 293 212 293 212 250 225.5 c 128,-1,23
 207 239 207 239 164 253 c 128,-1,24
 121 267 121 267 88 295 c 0,25,26
 49.0101010101 328.082338537 49.0101010101 328.082338537 49.0101010101 377.329048056 c 128,-1,27
 49.0101010101 426.575757576 49.0101010101 426.575757576 88.5050505051 469.787878788 c 128,-1,28
 128 513 128 513 219 513 c 0,29,30
 250 513 250 513 278 505.5 c 128,-1,31
 306 498 306 498 318.5 491 c 2,32,-1
 331 484 l 1,0,-1
EndSplineSet
EndChar

StartChar: t
Encoding: 116 116 85
Width: 243
Flags: HMW
HStem: 0 75 442 75
VStem: -259 401 44 85
LayerCount: 2
Fore
SplineSet
44 700 m 1,0,-1
 89 700 l 1,1,-1
 89 501 l 1,2,-1
 220 501 l 1,3,-1
 200 458 l 1,4,-1
 89 458 l 1,5,-1
 89 132 l 2,6,7
 89 47 89 47 163 23 c 1,8,-1
 150 -13 l 1,9,10
 94 3 94 3 69 38 c 128,-1,11
 44 73 44 73 44 132 c 2,12,-1
 44 700 l 1,0,-1
EndSplineSet
EndChar

StartChar: u
Encoding: 117 117 86
Width: 447
Flags: HMW
HStem: -12 75 497 20G
VStem: 36 45<173 501> 364 45<163 501 0 501>
LayerCount: 2
Fore
SplineSet
36 501 m 1,0,-1
 81 501 l 1,1,-1
 81 168 l 2,2,3
 81 30 81 30 224 30 c 0,4,5
 288 30 288 30 326 63.5 c 128,-1,6
 364 97 364 97 364 163 c 2,7,-1
 364 501 l 1,8,-1
 409 501 l 1,9,-1
 409 0 l 1,10,-1
 365 0 l 1,11,-1
 368 59 l 1,12,13
 317 -11 317 -11 224 -11 c 0,14,15
 36 -11 36 -11 36 173 c 2,16,-1
 36 501 l 1,0,-1
EndSplineSet
EndChar

StartChar: v
Encoding: 118 118 87
Width: 426
Flags: HMW
HStem: -20 20G<181 239 181 181> 0 86 497 20G
VStem: 18 385<501 501> 205 21
LayerCount: 2
Fore
SplineSet
18 501 m 1,0,-1
 65 501 l 1,1,-1
 210 52 l 1,2,-1
 356 501 l 1,3,-1
 403 501 l 1,4,-1
 239 0 l 1,5,-1
 181 0 l 1,6,-1
 18 501 l 1,0,-1
EndSplineSet
EndChar

StartChar: w
Encoding: 119 119 88
Width: 702
Flags: HMW
HStem: 0 94 411 106 497 20G
VStem: 18 654<501 501>
LayerCount: 2
Fore
SplineSet
18 501 m 1,0,-1
 65 501 l 1,1,-1
 204 52 l 1,2,-1
 324 501 l 1,3,-1
 367 501 l 1,4,-1
 485 52 l 1,5,-1
 625 501 l 1,6,-1
 672 501 l 1,7,-1
 513 0 l 1,8,-1
 455 0 l 1,9,-1
 345 420 l 1,10,-1
 233 0 l 1,11,-1
 176 0 l 1,12,-1
 18 501 l 1,0,-1
EndSplineSet
EndChar

StartChar: x
Encoding: 120 120 89
Width: 481
Flags: HMW
HStem: 0 21G<58 111 58 58 370 422 370 370> 272 21G 279 21G 497 20G
VStem: 60 363<501 501>
LayerCount: 2
Fore
SplineSet
60 501 m 1,0,-1
 111 501 l 1,1,-1
 241 290 l 1,2,-1
 373 501 l 1,3,-1
 423 501 l 1,4,-1
 267 249 l 1,5,-1
 422 0 l 1,6,-1
 370 0 l 1,7,-1
 241 208 l 1,8,-1
 111 0 l 1,9,-1
 58 0 l 1,10,-1
 215 250 l 1,11,-1
 60 501 l 1,0,-1
EndSplineSet
EndChar

StartChar: y
Encoding: 121 121 90
Width: 478
Flags: HMW
HStem: -207 75 -198 21G 497 20G
VStem: 37 375<176 403> 126 21
LayerCount: 2
Fore
SplineSet
37 501 m 1,0,-1
 80 501 l 1,1,-1
 80 166 l 2,2,3
 80 100 80 100 116.5 64.5 c 128,-1,4
 153 29 153 29 219.5 29 c 128,-1,5
 286 29 286 29 327 64.5 c 128,-1,6
 368 100 368 100 368 166 c 2,7,-1
 368 366 l 2,8,9
 368 464.857142857 368 464.857142857 394 489 c 0,10,11
 408 502 408 502 431 510 c 1,12,-1
 444 479 l 1,13,14
 412 461 412 461 412 403 c 2,15,-1
 412 -61 l 2,16,17
 412 -122 412 -122 388 -157 c 128,-1,18
 364 -192 364 -192 307 -210 c 1,19,-1
 295 -175 l 1,20,21
 369 -149 369 -149 369 -63 c 2,22,-1
 369 60 l 1,23,24
 329 -12 329 -12 220 -12 c 0,25,26
 132 -12 132 -12 84.5 35.5 c 128,-1,27
 37 83 37 83 37 176 c 2,28,-1
 37 501 l 1,0,-1
EndSplineSet
EndChar

StartChar: z
Encoding: 122 122 91
Width: 480
Flags: HMW
HStem: 0 75 442 75
VStem: 87 358
LayerCount: 2
Fore
SplineSet
87 501 m 1,0,-1
 424 501 l 1,1,-1
 424 460 l 1,2,-1
 133 41 l 1,3,-1
 445 41 l 1,4,-1
 445 0 l 1,5,-1
 78 0 l 1,6,-1
 78 41 l 1,7,-1
 367 460 l 1,8,-1
 87 460 l 1,9,-1
 87 501 l 1,0,-1
EndSplineSet
EndChar

StartChar: braceleft
Encoding: 123 123 92
Width: 308
Flags: HMW
HStem: -116 31<258 273> 232 68 802 20G<256 256>
VStem: 78 57<354 354> 152 45<128 247 247 253> 324 21
LayerCount: 2
Fore
SplineSet
256 822 m 1,0,-1
 271 791 l 1,1,2
 248 774 248 774 234 760 c 128,-1,3
 220 746 220 746 207.5 714.5 c 128,-1,4
 195 683 195 683 195 641 c 2,5,-1
 195 456 l 2,6,7
 195 415 195 415 135 355 c 1,8,9
 197 293 197 293 197 253 c 2,10,-1
 197 68 l 2,11,12
 197 9 197 9 216 -25.5 c 128,-1,13
 235 -60 235 -60 273 -85 c 1,14,-1
 258 -116 l 1,15,16
 192 -78 192 -78 172 -32 c 128,-1,17
 152 14 152 14 152 128 c 2,18,-1
 152 247 l 2,19,20
 152 266 152 266 136 290.5 c 128,-1,21
 120 315 120 315 109.5 325 c 128,-1,22
 99 335 99 335 78 354 c 1,23,24
 102 373 102 373 126 404 c 128,-1,25
 150 435 150 435 150 462 c 2,26,-1
 150 583 l 2,27,28
 150 693 150 693 170.5 738.5 c 128,-1,29
 191 784 191 784 256 822 c 1,0,-1
EndSplineSet
EndChar

StartChar: bar
Encoding: 124 124 93
Width: 203
Flags: HMW
HStem: -214 1000
VStem: -38 20 78 45<-114 817 -114 817>
LayerCount: 2
Fore
SplineSet
78 817 m 1,0,-1
 123 817 l 1,1,-1
 123 -114 l 1,2,-1
 78 -114 l 1,3,-1
 78 817 l 1,0,-1
EndSplineSet
EndChar

StartChar: braceright
Encoding: 125 125 94
Width: 308
Flags: HMW
HStem: -116 31<78 93> -116 37 232 68 253 203<154 156> 785 37
VStem: 6 21 154 45<68 128 128 247> 205 60 216 57<355 355>
LayerCount: 2
Fore
SplineSet
80 791 m 1,0,-1
 95 822 l 1,1,2
 160 784 160 784 180.5 738.5 c 128,-1,3
 201 693 201 693 201 583 c 2,4,-1
 201 462 l 2,5,6
 201 435 201 435 225 404 c 128,-1,7
 249 373 249 373 273 354 c 1,8,9
 252 335 252 335 241.5 325 c 128,-1,10
 231 315 231 315 215 290.5 c 128,-1,11
 199 266 199 266 199 247 c 2,12,-1
 199 128 l 2,13,14
 199 14 199 14 179 -32 c 128,-1,15
 159 -78 159 -78 93 -116 c 1,16,-1
 78 -85 l 1,17,18
 116 -60 116 -60 135 -25.5 c 128,-1,19
 154 9 154 9 154 68 c 2,20,-1
 154 253 l 2,21,22
 154 293 154 293 216 355 c 1,23,24
 156 415 156 415 156 456 c 2,25,-1
 156 641 l 2,26,27
 156 683 156 683 143.5 714.5 c 128,-1,28
 131 746 131 746 117 760 c 128,-1,29
 103 774 103 774 80 791 c 1,0,-1
EndSplineSet
EndChar

StartChar: asciitilde
Encoding: 126 126 95
Width: 514
Flags: HMW
HStem: 183 98 297 81
VStem: 82 401
LayerCount: 2
Fore
SplineSet
479 342 m 1,0,1
 436.20242915 292.717948718 436.20242915 292.717948718 371.695595003 292.717948718 c 0,2,3
 348 292.717948718 348 292.717948718 317 301.858974359 c 2,4,-1
 247 322.5 l 2,5,6
 220.617647059 330.279411765 220.617647059 330.279411765 194.235294118 330.279411765 c 1,7,-1
 169 328.5 l 1,8,9
 130 323 130 323 100 289 c 1,10,-1
 78 321 l 1,11,12
 124.547619048 375.761904762 124.547619048 375.761904762 193.546485261 375.761904762 c 0,13,14
 221.523809524 375.761904762 221.523809524 375.761904762 315 347 c 0,15,16
 344.25 338 344.25 338 372.9375 338 c 0,17,18
 425.64516129 338 425.64516129 338 457 374 c 1,19,-1
 479 342 l 1,0,1
EndSplineSet
EndChar

StartChar: exclamdown
Encoding: 161 161 96
Width: 214
Flags: HMW
HStem: -198 21G 0 127 406 111
VStem: 79 55<20.5 31> 88 38<590 590>
LayerCount: 2
Fore
SplineSet
126 590 m 1,0,-1
 134 31 l 2,1,2
 134 0 134 0 106.5 0 c 0,3,4
 79 0 79 0 79 31 c 2,5,-1
 88 590 l 1,6,-1
 126 590 l 1,0,-1
106 655 m 128,-1,8
 95 655 95 655 86.5 663 c 128,-1,9
 78 671 78 671 78 682 c 128,-1,10
 78 693 78 693 86.5 701.5 c 128,-1,11
 95 710 95 710 106 710 c 128,-1,12
 117 710 117 710 125 701.5 c 128,-1,13
 133 693 133 693 133 682 c 128,-1,14
 133 671 133 671 125 663 c 128,-1,7
 117 655 117 655 106 655 c 128,-1,8
EndSplineSet
EndChar

StartChar: cent
Encoding: 162 162 97
Width: 435
Flags: HMW
HStem: -12 75 454 75
VStem: 78 45<180 308 308 314 169 372> 88 90 129 19 243 44<-114 -10 -114 -8 -114 -8 31 467 467 467 509 623> 314 39
LayerCount: 2
Fore
SplineSet
243 623 m 1,0,-1
 287 623 l 1,1,-1
 287 508 l 1,2,3
 341 503.5 341 503.5 398 478 c 1,4,-1
 385 443 l 1,5,6
 333 465 333 465 287 468 c 1,7,-1
 287 29 l 1,8,9
 336 29 336 29 390 43 c 1,10,-1
 400 6 l 1,11,12
 341 -10 341 -10 287 -10 c 1,13,-1
 287 -114 l 1,14,-1
 243 -114 l 1,15,-1
 243 -8 l 1,16,17
 144.244693632 1.25830997197 144.244693632 1.25830997197 104.5 63.5 c 0,18,19
 78 105 78 105 78 180 c 2,20,-1
 78 308 l 2,21,22
 78 400 78 400 123.5 451.5 c 128,-1,23
 169 503 169 503 243 509 c 1,24,-1
 243 623 l 1,0,-1
123 314 m 2,25,-1
 123 169 l 1,26,27
 122 49 122 49 243 31 c 1,28,-1
 243 467 l 1,29,30
 188 459 188 459 155.5 421 c 128,-1,31
 123 383 123 383 123 314 c 2,25,-1
EndSplineSet
EndChar

StartChar: fraction
Encoding: 8260 8260 98
Width: 482
Flags: HMW
HStem: 705 20G
VStem: 20 499
LayerCount: 2
Fore
SplineSet
402 817 m 1,0,-1
 448 817 l 1,1,-1
 127 -114 l 1,2,-1
 78 -114 l 1,3,-1
 402 817 l 1,0,-1
EndSplineSet
EndChar

StartChar: yen
Encoding: 165 165 99
Width: 560
Flags: HMW
HStem: 0 21G<266 311 266 266> 129 80 174 60 222 80 309 60 694 20G
VStem: -129 21 130 320<260 304 260 304 353 397 260 397> 237 95
LayerCount: 2
Fore
SplineSet
130 304 m 1,0,-1
 266 304 l 1,1,-1
 266 341 l 1,2,-1
 259 353 l 1,3,-1
 130 353 l 1,4,-1
 130 397 l 1,5,-1
 233 397 l 1,6,-1
 53 700 l 1,7,-1
 104 700 l 1,8,-1
 285 397 l 1,9,-1
 290 397 l 1,10,-1
 474 700 l 1,11,-1
 525 700 l 1,12,-1
 344 397 l 1,13,-1
 450 397 l 1,14,-1
 450 353 l 1,15,-1
 317 353 l 1,16,-1
 311 342 l 1,17,-1
 311 304 l 1,18,-1
 450 304 l 1,19,-1
 450 260 l 1,20,-1
 311 260 l 1,21,-1
 311 0 l 1,22,-1
 266 0 l 1,23,-1
 266 260 l 1,24,-1
 130 260 l 1,25,-1
 130 304 l 1,0,-1
EndSplineSet
EndChar

StartChar: section
Encoding: 167 167 100
Width: 588
Flags: HMW
HStem: -198 75 656 75
VStem: 76 82 124 85 421 85 424 88
LayerCount: 2
Fore
SplineSet
78 -8 m 1,0,-1
 124 -8 l 1,1,2
 128 -67 128 -67 180 -110.5 c 128,-1,3
 232 -154 232 -154 314.5 -154 c 128,-1,4
 397 -154 397 -154 451.5 -115 c 128,-1,5
 506 -76 506 -76 506 1 c 0,6,7
 506 49 506 49 476 83.5 c 128,-1,8
 446 118 446 118 401 135.5 c 128,-1,9
 356 153 356 153 303.5 173 c 128,-1,10
 251 193 251 193 205.5 212 c 128,-1,11
 160 231 160 231 129 267 c 0,12,13
 96.8857142857 304.294009217 96.8857142857 304.294009217 96.8857142857 355.31843318 c 128,-1,14
 96.8857142857 406.342857143 96.8857142857 406.342857143 128 445 c 1,15,16
 96 485 96 485 96 540 c 0,17,18
 96 610 96 610 154 661 c 128,-1,19
 212 712 212 712 321 712 c 0,20,21
 404 712 404 712 467 682 c 1,22,-1
 453 640 l 1,23,24
 396 669 396 669 320 669 c 128,-1,25
 244 669 244 669 193 635.5 c 128,-1,26
 142 602 142 602 142 537 c 0,27,28
 142 468.875 142 468.875 223 429.5 c 0,29,30
 259 412 259 412 303 396.5 c 128,-1,31
 347 381 347 381 390.5 364 c 128,-1,32
 434 347 434 347 470.5 325.5 c 128,-1,33
 507 304 507 304 529.5 268.5 c 128,-1,34
 552 233 552 233 552 184 c 128,-1,35
 552 135 552 135 529 92 c 1,36,37
 553 55 553 55 553 6 c 0,38,39
 553 -86 553 -86 493.5 -141.5 c 128,-1,40
 434 -197 434 -197 319.5 -197 c 128,-1,41
 205 -197 205 -197 142.5 -139.5 c 128,-1,42
 80 -82 80 -82 78 -8 c 1,0,-1
162 415 m 1,43,44
 142.952380952 385.476190476 142.952380952 385.476190476 142.952380952 355.045351474 c 0,45,46
 142.952380952 307.804878049 142.952380952 307.804878049 184.476190476 275.902439024 c 128,-1,47
 226 244 226 244 277.5 229 c 128,-1,48
 329 214 329 214 394 187.5 c 128,-1,49
 459 161 459 161 495 129 c 1,50,51
 505.083333333 165.666666667 505.083333333 165.666666667 505.083333333 181.326388889 c 0,52,53
 505.083333333 233.013888889 505.083333333 233.013888889 465.541666667 269.006944444 c 128,-1,54
 426 305 426 305 377 321.5 c 0,55,56
 216.741176471 375.464705882 216.741176471 375.464705882 162 415 c 1,43,44
EndSplineSet
EndChar

StartChar: currency
Encoding: 164 164 101
Width: 464
Flags: HMW
HStem: 101 75 524 75
VStem: 4 85 419 85
LayerCount: 2
Fore
SplineSet
84 464 m 1,0,-1
 112 491 l 1,1,-1
 142 460 l 1,2,3
 191 499 191 499 254 499 c 128,-1,4
 317 499 317 499 363 461 c 1,5,-1
 394 492 l 1,6,-1
 422 463 l 1,7,-1
 391 432 l 1,8,9
 429 384 429 384 429 323 c 128,-1,10
 429 262 429 262 390 213 c 1,11,-1
 423 180 l 1,12,-1
 396 153 l 1,13,-1
 363 186 l 1,14,15
 317 148 317 148 253 148 c 128,-1,16
 189 148 189 148 143 186 c 1,17,-1
 111 152 l 1,18,-1
 84 179 l 1,19,-1
 115 213 l 1,20,21
 78 261 78 261 78 322.5 c 128,-1,22
 78 384 78 384 115 432 c 1,23,-1
 84 464 l 1,0,-1
159 417 m 128,-1,25
 120 378 120 378 120 323.5 c 128,-1,26
 120 269 120 269 159 231 c 128,-1,27
 198 193 198 193 253 193 c 128,-1,28
 308 193 308 193 346.5 230.5 c 128,-1,29
 385 268 385 268 385 323 c 128,-1,30
 385 378 385 378 346.5 417 c 128,-1,31
 308 456 308 456 253 456 c 128,-1,24
 198 456 198 456 159 417 c 128,-1,25
EndSplineSet
EndChar

StartChar: quotesingle
Encoding: 39 39 102
Width: 170
Flags: HMW
HStem: 456 258 694 20G
VStem: 46 56<704 724.5>
LayerCount: 2
Fore
SplineSet
102 704 m 1,0,-1
 90 589 l 1,1,-1
 58 589 l 1,2,-1
 46 704 l 1,3,4
 46 723 46 723 56.6060606061 729.439393939 c 0,5,6
 67.2121212121 735.878787879 67.2121212121 735.878787879 74.4242424242 735.878787879 c 1,7,-1
 88 732 l 1,8,9
 102 724 102 724 102 704 c 1,0,-1
EndSplineSet
EndChar

StartChar: quotedblleft
Encoding: 8220 8220 103
Width: 480
Flags: HMW
HStem: 456 111 521 111 664 50
VStem: -2 58<602 605.5 602 629.5> 20 69 149 58<602 605.5 602 629.5> 170 69
LayerCount: 2
Fore
SplineSet
32 634 m 1,0,-1
 39 632 l 1,1,2
 56 622 56 622 55.5 606.5 c 0,3,4
 55 591 55 591 47.4705882353 583.941176471 c 0,5,6
 39.9411764706 576.882352941 39.9411764706 576.882352941 34.1764705882 576.882352941 c 0,7,8
 28.4117647059 576.882352941 28.4117647059 576.882352941 22.2058823529 577.441176471 c 0,9,10
 16 578 16 578 7 587.5 c 128,-1,11
 -2 597 -2 597 -2 608 c 0,12,13
 -2 663 -2 663 62 716 c 1,14,-1
 94 693 l 1,15,16
 72 681 72 681 56.5 666 c 128,-1,17
 41 651 41 651 32 634 c 1,0,-1
183 634 m 1,19,-1
 190 632 l 1,20,21
 207 622 207 622 206.5 606.5 c 0,22,23
 206 591 206 591 198.470588235 583.941176471 c 0,24,25
 190.941176471 576.882352941 190.941176471 576.882352941 185.176470588 576.882352941 c 0,26,27
 179.411764706 576.882352941 179.411764706 576.882352941 173.205882353 577.441176471 c 0,28,29
 167 578 167 578 158 587.5 c 128,-1,30
 149 597 149 597 149 608 c 0,31,32
 149 663 149 663 213 716 c 1,33,-1
 245 693 l 1,34,35
 223 681 223 681 207.5 666 c 128,-1,36
 192 651 192 651 183 634 c 1,19,-1
EndSplineSet
EndChar

StartChar: guillemotleft
Encoding: 171 171 104
Width: 498
Flags: HMW
HStem: 278 21G
VStem: 50 152 246 152
LayerCount: 2
Fore
SplineSet
229 455 m 1,0,-1
 259 424 l 1,1,-1
 102 267 l 1,2,-1
 258 109 l 1,3,-1
 229 80 l 1,4,-1
 42 267 l 1,5,-1
 42 268 l 1,6,-1
 229 455 l 1,0,-1
449 455 m 1,7,-1
 479 424 l 1,8,-1
 322 267 l 1,9,-1
 478 109 l 1,10,-1
 449 80 l 1,11,-1
 262 267 l 1,12,-1
 262 268 l 1,13,-1
 449 455 l 1,7,-1
EndSplineSet
EndChar

StartChar: guilsinglleft
Encoding: 8249 8249 105
Width: 279
Flags: HMW
HStem: 278 21G
VStem: 50 152
LayerCount: 2
Fore
SplineSet
229 455 m 1,0,-1
 260 424 l 1,1,-1
 102 267 l 1,2,-1
 258 109 l 1,3,-1
 229 80 l 1,4,-1
 42 267 l 1,5,-1
 42 268 l 1,6,-1
 229 455 l 1,0,-1
EndSplineSet
EndChar

StartChar: guilsinglright
Encoding: 8250 8250 106
Width: 295
Flags: HMW
HStem: 278 21G
VStem: 13 152 62 152
LayerCount: 2
Fore
SplineSet
4 424 m 1,0,-1
 35 455 l 1,1,-1
 222 268 l 1,2,-1
 222 267 l 1,3,-1
 35 80 l 1,4,-1
 6 109 l 1,5,-1
 162 267 l 1,6,-1
 4 424 l 1,0,-1
EndSplineSet
EndChar

StartChar: paragraph
Encoding: 182 182 107
Width: 671
Flags: HMW
HStem: 659 55
VStem: 169 20 319 68 512 79<-198 707 -199 708 -198 -198>
LayerCount: 2
Fore
SplineSet
264 750 m 2,0,-1
 636 750 l 1,1,-1
 636 -199 l 1,2,-1
 591 -199 l 1,3,-1
 591 707 l 1,4,-1
 512 708 l 1,5,-1
 512 -198 l 1,6,-1
 467 -198 l 1,7,-1
 467 246 l 1,8,-1
 255 246 l 2,9,10
 188.333333333 246 188.333333333 246 153 272.5 c 0,11,12
 135 286 135 286 121.5 300.5 c 128,-1,13
 108 315 108 315 100.5 339 c 128,-1,14
 93 363 93 363 88 381 c 128,-1,15
 83 399 83 399 81 429 c 0,16,17
 78 474 78 474 78 524 c 0,18,19
 78 624 78 624 124 687 c 128,-1,20
 170 750 170 750 264 750 c 2,0,-1
EndSplineSet
EndChar

StartChar: bullet
Encoding: 8226 8226 108
Width: 470
Flags: HMW
HStem: 178 357
VStem: 78 357<287.5 386.5>
LayerCount: 2
Fore
SplineSet
256 515 m 128,-1,1
 330 515 330 515 382.5 463 c 128,-1,2
 435 411 435 411 435 337 c 128,-1,3
 435 263 435 263 382.5 210.5 c 128,-1,4
 330 158 330 158 256 158 c 128,-1,5
 182 158 182 158 130 210.5 c 128,-1,6
 78 263 78 263 78 337 c 128,-1,7
 78 411 78 411 130 463 c 128,-1,0
 182 515 182 515 256 515 c 128,-1,1
EndSplineSet
EndChar

StartChar: quotesinglbase
Encoding: 8218 8218 109
Width: 165
Flags: HMW
HStem: -147 50 0 111
VStem: 45 69
LayerCount: 2
Fore
SplineSet
79 -2 m 1,0,-1
 72 0 l 1,1,2
 55 10 55 10 55.5 25.5 c 0,3,4
 56 41 56 41 63.5294117647 48.0588235294 c 0,5,6
 71.0588235294 55.1176470588 71.0588235294 55.1176470588 76.8235294118 55.1176470588 c 0,7,8
 82.5882352941 55.1176470588 82.5882352941 55.1176470588 88.7941176471 54.5588235294 c 0,9,10
 95 54 95 54 104 44.5 c 128,-1,11
 113 35 113 35 113 24 c 0,12,13
 113 -31 113 -31 49 -84 c 1,14,-1
 17 -61 l 1,15,16
 39 -49 39 -49 54.5 -34 c 128,-1,17
 70 -19 70 -19 79 -2 c 1,0,-1
EndSplineSet
EndChar

StartChar: quotedblbase
Encoding: 8222 8222 110
Width: 316
Flags: HMW
HStem: -147 50 0 111 2 111
VStem: -44 69 55 58<28.5 32> 106 69 206 58<28.5 32>
LayerCount: 2
Fore
SplineSet
79 0 m 1,0,-1
 72 2 l 1,1,2
 55 12 55 12 55.5 27.5 c 0,3,4
 56 43 56 43 63.5294117647 50.0588235294 c 0,5,6
 71.0588235294 57.1176470588 71.0588235294 57.1176470588 76.8235294118 57.1176470588 c 0,7,8
 82.5882352941 57.1176470588 82.5882352941 57.1176470588 88.7941176471 56.5588235294 c 0,9,10
 95 56 95 56 104 46.5 c 128,-1,11
 113 37 113 37 113 26 c 0,12,13
 113 -29 113 -29 49 -82 c 1,14,-1
 17 -59 l 1,15,16
 39 -47 39 -47 54.5 -32 c 128,-1,17
 70 -17 70 -17 79 0 c 1,0,-1
230 0 m 1,19,-1
 223 2 l 1,20,21
 206 12 206 12 206.5 27.5 c 0,22,23
 207 43 207 43 214.529411765 50.0588235294 c 0,24,25
 222.058823529 57.1176470588 222.058823529 57.1176470588 227.823529412 57.1176470588 c 0,26,27
 233.588235294 57.1176470588 233.588235294 57.1176470588 239.794117647 56.5588235294 c 0,28,29
 246 56 246 56 255 46.5 c 128,-1,30
 264 37 264 37 264 26 c 0,31,32
 264 -29 264 -29 200 -82 c 1,33,-1
 168 -59 l 1,34,35
 190 -47 190 -47 205.5 -32 c 128,-1,36
 221 -17 221 -17 230 0 c 1,19,-1
EndSplineSet
EndChar

StartChar: quotedblright
Encoding: 8221 8221 111
Width: 480
Flags: HMW
HStem: 456 50 603 111 644 111
VStem: 16 104 36 58<670.5 674> 187 58<670.5 674> 201 69
LayerCount: 2
Fore
SplineSet
60 642 m 1,0,-1
 53 644 l 1,1,2
 36 654 36 654 36.5 669.5 c 0,3,4
 37 685 37 685 44.5294117647 692.058823529 c 0,5,6
 52.0588235294 699.117647059 52.0588235294 699.117647059 57.8235294118 699.117647059 c 0,7,8
 63.5882352941 699.117647059 63.5882352941 699.117647059 69.7941176471 698.558823529 c 0,9,10
 76 698 76 698 85 688.5 c 128,-1,11
 94 679 94 679 94 668 c 0,12,13
 94 613 94 613 30 560 c 1,14,-1
 -2 583 l 1,15,16
 20 595 20 595 35.5 610 c 128,-1,17
 51 625 51 625 60 642 c 1,0,-1
211 642 m 1,19,-1
 204 644 l 1,20,21
 187 654 187 654 187.5 669.5 c 0,22,23
 188 685 188 685 195.529411765 692.058823529 c 0,24,25
 203.058823529 699.117647059 203.058823529 699.117647059 208.823529412 699.117647059 c 0,26,27
 214.588235294 699.117647059 214.588235294 699.117647059 220.794117647 698.558823529 c 0,28,29
 227 698 227 698 236 688.5 c 128,-1,30
 245 679 245 679 245 668 c 0,31,32
 245 613 245 613 181 560 c 1,33,-1
 149 583 l 1,34,35
 171 595 171 595 186.5 610 c 128,-1,36
 202 625 202 625 211 642 c 1,19,-1
EndSplineSet
EndChar

StartChar: guillemotright
Encoding: 187 187 112
Width: 514
Flags: HMW
HStem: 278 21G
VStem: -11 152 85 152 185 152 281 152
LayerCount: 2
Fore
SplineSet
224 424 m 1,0,-1
 254 455 l 1,1,-1
 441 268 l 1,2,-1
 441 267 l 1,3,-1
 254 80 l 1,4,-1
 225 109 l 1,5,-1
 381 267 l 1,6,-1
 224 424 l 1,0,-1
4 424 m 1,7,-1
 34 455 l 1,8,-1
 221 268 l 1,9,-1
 221 267 l 1,10,-1
 34 80 l 1,11,-1
 5 109 l 1,12,-1
 161 267 l 1,13,-1
 4 424 l 1,7,-1
EndSplineSet
EndChar

StartChar: ellipsis
Encoding: 8230 8230 113
Width: 480
Flags: HMW
HStem: 0 111
VStem: 8 66 17 55<20.5 35.5> 188 66 194 55<20.5 35.5> 368 66 374 55<20.5 35.5>
LayerCount: 2
Fore
SplineSet
44 55 m 128,-1,1
 55 55 55 55 63.5 47 c 128,-1,2
 72 39 72 39 72 28 c 128,-1,3
 72 17 72 17 63.5 8.5 c 128,-1,4
 55 0 55 0 44 0 c 128,-1,5
 33 0 33 0 25 8.5 c 128,-1,6
 17 17 17 17 17 28 c 128,-1,7
 17 39 17 39 25 47 c 128,-1,0
 33 55 33 55 44 55 c 128,-1,1
221 55 m 128,-1,9
 232 55 232 55 240.5 47 c 128,-1,10
 249 39 249 39 249 28 c 128,-1,11
 249 17 249 17 240.5 8.5 c 128,-1,12
 232 0 232 0 221 0 c 128,-1,13
 210 0 210 0 202 8.5 c 128,-1,14
 194 17 194 17 194 28 c 128,-1,15
 194 39 194 39 202 47 c 128,-1,8
 210 55 210 55 221 55 c 128,-1,9
401 55 m 128,-1,17
 412 55 412 55 420.5 47 c 128,-1,18
 429 39 429 39 429 28 c 128,-1,19
 429 17 429 17 420.5 8.5 c 128,-1,20
 412 0 412 0 401 0 c 128,-1,21
 390 0 390 0 382 8.5 c 128,-1,22
 374 17 374 17 374 28 c 128,-1,23
 374 39 374 39 382 47 c 128,-1,16
 390 55 390 55 401 55 c 128,-1,17
EndSplineSet
EndChar

StartChar: perthousand
Encoding: 8240 8240 114
Width: 1047
Flags: HMW
HStem: -11 41<504.5 569.5 504.5 577 835.5 900.5> 34 99 133 103 274 55 368 55 480 103 583 103 654 55 711 20G
VStem: 76 56 123 103 226 103 320 50 380 106 393 50 434 103 537 103 631 50
LayerCount: 2
Fore
SplineSet
868 277 m 128,-1,1
 928 277 928 277 970 235 c 128,-1,2
 1012 193 1012 193 1012 133 c 128,-1,3
 1012 73 1012 73 970 31 c 128,-1,4
 928 -11 928 -11 868 -11 c 128,-1,5
 808 -11 808 -11 766 31 c 128,-1,6
 724 73 724 73 724 133 c 128,-1,7
 724 193 724 193 766 235 c 128,-1,0
 808 277 808 277 868 277 c 128,-1,1
765 133 m 128,-1,9
 765 92 765 92 793 61 c 128,-1,10
 821 30 821 30 868 30 c 128,-1,11
 915 30 915 30 943 61 c 128,-1,12
 971 92 971 92 971 133 c 128,-1,13
 971 174 971 174 942.5 205 c 128,-1,14
 914 236 914 236 868 236 c 128,-1,15
 822 236 822 236 793.5 205 c 128,-1,8
 765 174 765 174 765 133 c 128,-1,9
643 740 m 1,16,-1
 676 707 l 1,17,-1
 111 1 l 1,18,-1
 83 34 l 1,19,-1
 643 740 l 1,16,-1
537 277 m 128,-1,21
 597 277 597 277 639 235 c 128,-1,22
 681 193 681 193 681 133 c 128,-1,23
 681 73 681 73 639 31 c 128,-1,24
 597 -11 597 -11 537 -11 c 128,-1,25
 477 -11 477 -11 435 31 c 128,-1,26
 393 73 393 73 393 133 c 128,-1,27
 393 193 393 193 435 235 c 128,-1,20
 477 277 477 277 537 277 c 128,-1,21
434 133 m 128,-1,29
 434 92 434 92 462 61 c 128,-1,30
 490 30 490 30 537 30 c 128,-1,31
 584 30 584 30 612 61 c 128,-1,32
 640 92 640 92 640 133 c 128,-1,33
 640 174 640 174 611.5 205 c 128,-1,34
 583 236 583 236 537 236 c 128,-1,35
 491 236 491 236 462.5 205 c 128,-1,28
 434 174 434 174 434 133 c 128,-1,29
226 727 m 128,-1,37
 286 727 286 727 328 685 c 128,-1,38
 370 643 370 643 370 583 c 128,-1,39
 370 523 370 523 328 481 c 128,-1,40
 286 439 286 439 226 439 c 128,-1,41
 166 439 166 439 124 481 c 128,-1,42
 82 523 82 523 82 583 c 128,-1,43
 82 643 82 643 124 685 c 128,-1,36
 166 727 166 727 226 727 c 128,-1,37
123 583 m 128,-1,45
 123 542 123 542 151.5 511 c 128,-1,46
 180 480 180 480 226 480 c 128,-1,47
 272 480 272 480 300.5 511 c 128,-1,48
 329 542 329 542 329 583 c 128,-1,49
 329 624 329 624 300.5 655 c 128,-1,50
 272 686 272 686 226 686 c 128,-1,51
 180 686 180 686 151.5 655 c 128,-1,44
 123 624 123 624 123 583 c 128,-1,45
EndSplineSet
EndChar

StartChar: questiondown
Encoding: 191 191 115
Width: 468
Flags: HMW
HStem: -210 75 -22 75 406 111 590 86
VStem: -102 90 56 111 247 41<529 590> 269 85 388 45<131.5 177>
LayerCount: 2
Fore
SplineSet
388 177 m 1,0,-1
 433 177 l 1,1,2
 433 102 433 102 386.5 51 c 128,-1,3
 340 0 340 0 255 0 c 0,4,5
 203 0 203 0 161 26.5 c 0,6,7
 79.01 78.2317857143 79.01 78.2317857143 79.01 172.405 c 0,8,9
 79.01 234.196363636 79.01 234.196363636 116 288 c 0,10,11
 135 315 135 315 163 343.5 c 128,-1,12
 191 372 191 372 206.5 388.5 c 128,-1,13
 222 405 222 405 234.5 441 c 128,-1,14
 247 477 247 477 247 529 c 2,15,-1
 247 590 l 1,16,-1
 288 590 l 1,17,-1
 288 505 l 2,18,19
 288 459 288 459 274 422 c 128,-1,20
 260 385 260 385 242.5 365.5 c 128,-1,21
 225 346 225 346 198.5 318 c 128,-1,22
 172 290 172 290 159 272 c 1,23,24
 126.333333333 219.733333333 126.333333333 219.733333333 126.333333333 171.822222222 c 0,25,26
 126.333333333 116.593607306 126.333333333 116.593607306 164.166666667 79.796803653 c 128,-1,27
 202 43 202 43 257 43 c 128,-1,28
 312 43 312 43 350 77.5 c 128,-1,29
 388 112 388 112 388 177 c 1,0,-1
268 654 m 128,-1,31
 257 654 257 654 248.5 662 c 128,-1,32
 240 670 240 670 240 681 c 128,-1,33
 240 692 240 692 248.5 700.5 c 128,-1,34
 257 709 257 709 268 709 c 128,-1,35
 279 709 279 709 287.5 700.5 c 128,-1,36
 296 692 296 692 296 681 c 128,-1,37
 296 670 296 670 287.5 662 c 128,-1,30
 279 654 279 654 268 654 c 128,-1,31
EndSplineSet
EndChar

StartChar: grave
Encoding: 96 96 116
Width: 222
Flags: HMW
HStem: 587 139 730 143
VStem: 41 119 260 109
LayerCount: 2
Fore
SplineSet
102 708 m 2,0,-1
 155 587 l 1,1,-1
 118 587 l 1,2,-1
 51 686 l 2,3,4
 46.3333333333 692.666666667 46.3333333333 692.666666667 46.3333333333 698.666666667 c 0,5,6
 46.3333333333 727.882352941 46.3333333333 727.882352941 75.8200692042 727.882352941 c 0,7,8
 93.5882352941 727.882352941 93.5882352941 727.882352941 102 708 c 2,0,-1
EndSplineSet
EndChar

StartChar: acute
Encoding: 180 180 117
Width: 222
Flags: HMW
HStem: 588 143
VStem: 50 109
LayerCount: 2
Fore
SplineSet
46 588 m 1,0,-1
 98 709 l 2,1,2
 107 729.25 107 729.25 124.4375 729.25 c 0,3,4
 148.37962963 729.25 148.37962963 729.25 153.5 709.5 c 0,5,6
 154.666666667 705 154.666666667 705 154.666666667 698.833333333 c 128,-1,7
 154.666666667 692.666666667 154.666666667 692.666666667 150 686 c 2,8,-1
 82 588 l 1,9,-1
 46 588 l 1,0,-1
EndSplineSet
EndChar

StartChar: circumflex
Encoding: 710 710 118
Width: 403
Flags: HMW
HStem: 588 142 683 47
VStem: 35 251
LayerCount: 2
Fore
SplineSet
46 630 m 1,0,-1
 194 771 l 1,1,-1
 336 630 l 1,2,-1
 304 598 l 1,3,-1
 193 709 l 1,4,-1
 77 598 l 1,5,-1
 46 630 l 1,0,-1
EndSplineSet
EndChar

StartChar: tilde
Encoding: 732 732 119
Width: 443
Flags: HMW
HStem: 620 36 662 33<388 408>
VStem: 78 330<651 662>
LayerCount: 2
Fore
SplineSet
176.280073462 656.96969697 m 0,0,1
 133.517906336 656.96969697 133.517906336 656.96969697 99 619 c 1,2,-1
 78 651 l 1,3,4
 124.622889306 702.951219512 124.622889306 702.951219512 177.575252826 702.951219512 c 0,5,6
 201.645403377 702.951219512 201.645403377 702.951219512 269.5 672 c 0,7,8
 292.65625 661.4375 292.65625 661.4375 317.462890625 661.4375 c 0,9,10
 356.675 661.4375 356.675 661.4375 388 695 c 1,11,-1
 408 662 l 1,12,13
 365.19772404 615.421052632 365.19772404 615.421052632 315.693905817 615.421052632 c 0,14,15
 295.5 615.421052632 295.5 615.421052632 272.25 625.210526316 c 128,-1,16
 249 635 249 635 224.393939394 645.984848485 c 128,-1,17
 199.787878788 656.96969697 199.787878788 656.96969697 176.280073462 656.96969697 c 0,0,1
EndSplineSet
EndChar

StartChar: macron
Encoding: 175 175 120
Width: 334
Flags: HMW
HStem: 631 46<78 299 78 299>
VStem: 18 341
LayerCount: 2
Fore
SplineSet
78 677 m 1,0,-1
 299 677 l 1,1,-1
 299 631 l 1,2,-1
 78 631 l 1,3,-1
 78 677 l 1,0,-1
EndSplineSet
EndChar

StartChar: breve
Encoding: 728 728 121
Width: 339
Flags: HMW
HStem: 582 37<136.5 181 136.5 190> 711 20G
VStem: 46 226<695 700 664 700>
LayerCount: 2
Fore
SplineSet
46 700 m 1,0,-1
 84 700 l 1,1,-1
 84 695 l 2,2,3
 84 665 84 665 105 642 c 128,-1,4
 126 619 126 619 158.5 619 c 0,5,6
 191 619 191 619 212.5 642 c 128,-1,7
 234 665 234 665 234 695 c 2,8,-1
 234 700 l 1,9,-1
 272 700 l 1,10,-1
 272 695 l 2,11,12
 272 648 272 648 239 615 c 128,-1,13
 206 582 206 582 159 582 c 128,-1,14
 112 582 112 582 79 615 c 128,-1,15
 46 648 46 648 46 695 c 2,16,-1
 46 700 l 1,0,-1
EndSplineSet
EndChar

StartChar: dotaccent
Encoding: 729 729 122
Width: 63
Flags: HMW
HStem: 592 104
VStem: -8 66
LayerCount: 2
Fore
SplineSet
4 683 m 128,-1,1
 4 694 4 694 12.5 702 c 128,-1,2
 21 710 21 710 32 710 c 128,-1,3
 43 710 43 710 51 702 c 128,-1,4
 59 694 59 694 59 683 c 128,-1,5
 59 672 59 672 51 663.5 c 128,-1,6
 43 655 43 655 32 655 c 128,-1,7
 21 655 21 655 12.5 663.5 c 128,-1,0
 4 672 4 672 4 683 c 128,-1,1
EndSplineSet
EndChar

StartChar: ring
Encoding: 730 730 123
Width: 458
Flags: HMW
HStem: 662 75
VStem: 36 75 111 75
LayerCount: 2
Fore
SplineSet
36 662 m 128,-1,1
 36 630 36 630 58 608.5 c 128,-1,2
 80 587 80 587 111 587 c 128,-1,3
 142 587 142 587 164 608.5 c 128,-1,4
 186 630 186 630 186 662 c 128,-1,5
 186 694 186 694 164 715.5 c 128,-1,6
 142 737 142 737 111 737 c 128,-1,7
 80 737 80 737 58 715.5 c 128,-1,0
 36 694 36 694 36 662 c 128,-1,1
-2 662 m 128,-1,9
 -2 708 -2 708 31 741.5 c 128,-1,10
 64 775 64 775 111 775 c 128,-1,11
 158 775 158 775 191 741.5 c 128,-1,12
 224 708 224 708 224 662 c 128,-1,13
 224 616 224 616 191 582.5 c 128,-1,14
 158 549 158 549 111 549 c 128,-1,15
 64 549 64 549 31 582.5 c 128,-1,8
 -2 616 -2 616 -2 662 c 128,-1,9
EndSplineSet
EndChar

StartChar: cedilla
Encoding: 184 184 124
Width: 410
Flags: HMW
HStem: -210 21G<152 195.5> -210 38<164.5 192.5 164.5 195.5> -98 50
VStem: 208 84
LayerCount: 2
Fore
SplineSet
173 0 m 1,0,-1
 208 0 l 1,1,-1
 168 -55 l 1,2,3
 182.0875 -46.95 182.0875 -46.95 211.69375 -46.95 c 128,-1,4
 241.3 -46.95 241.3 -46.95 266.65 -65.475 c 128,-1,5
 292 -84 292 -84 292 -126.5 c 128,-1,6
 292 -169 292 -169 255 -189.5 c 128,-1,7
 218 -210 218 -210 173 -210 c 128,-1,8
 128 -210 128 -210 76 -191 c 1,9,-1
 96 -148 l 1,10,11
 131 -172 131 -172 168 -172 c 128,-1,12
 205 -172 205 -172 227.5 -159 c 128,-1,13
 250 -146 250 -146 250 -120 c 128,-1,14
 250 -94 250 -94 225 -83 c 0,15,16
 214 -78.16 214 -78.16 198.64 -78.16 c 128,-1,17
 183.28 -78.16 183.28 -78.16 162 -86 c 2,18,-1
 126 -101 l 1,19,-1
 112 -78 l 1,20,-1
 173 0 l 1,0,-1
EndSplineSet
EndChar

StartChar: hungarumlaut
Encoding: 733 733 125
Width: 453
Flags: HMW
HStem: 568 143
VStem: -8 239 -2 109 118 109
LayerCount: 2
Fore
SplineSet
110 568 m 1,0,-1
 162 689 l 2,1,2
 171 709.25 171 709.25 188.4375 709.25 c 0,3,4
 212.37962963 709.25 212.37962963 709.25 217.5 689.5 c 0,5,6
 218.666666667 685 218.666666667 685 218.666666667 678.833333333 c 128,-1,7
 218.666666667 672.666666667 218.666666667 672.666666667 214 666 c 2,8,-1
 146 568 l 1,9,-1
 110 568 l 1,0,-1
-2 568 m 1,10,-1
 50 689 l 2,11,12
 59 709.25 59 709.25 76.4375 709.25 c 0,13,14
 100.37962963 709.25 100.37962963 709.25 105.5 689.5 c 0,15,16
 106.666666667 685 106.666666667 685 106.666666667 678.833333333 c 128,-1,17
 106.666666667 672.666666667 106.666666667 672.666666667 102 666 c 2,18,-1
 34 568 l 1,19,-1
 -2 568 l 1,10,-1
EndSplineSet
EndChar

StartChar: ogonek
Encoding: 731 731 126
Width: 383
Flags: HMW
HStem: -210 50
VStem: 76 68
LayerCount: 2
Fore
SplineSet
220 3 m 1,0,1
 116.75 -78.5675 116.75 -78.5675 116.75 -126.1484375 c 0,2,3
 116.75 -143.8125 116.75 -143.8125 129.875 -157.40625 c 128,-1,4
 143 -171 143 -171 166 -171 c 0,5,6
 208 -171 208 -171 234 -129 c 1,7,-1
 265 -160 l 1,8,9
 233 -210 233 -210 168 -210 c 0,10,11
 142.375 -210 142.375 -210 119.6875 -199 c 0,12,13
 76 -177.818181818 76 -177.818181818 76 -127 c 0,14,15
 76 -60 76 -60 172 3 c 1,16,-1
 220 3 l 1,0,1
EndSplineSet
EndChar

StartChar: caron
Encoding: 711 711 127
Width: 395
Flags: HMW
HStem: 537 142 633 47
VStem: 37 251 37 300
LayerCount: 2
Fore
SplineSet
46 732 m 1,0,-1
 77 764 l 1,1,-1
 193 653 l 1,2,-1
 305 764 l 1,3,-1
 336 732 l 1,4,-1
 194 591 l 1,5,-1
 46 732 l 1,0,-1
EndSplineSet
EndChar

StartChar: ordfeminine
Encoding: 170 170 128
Width: 382
Flags: HMW
HStem: 380 50 659 50
VStem: 76 68 308 60
LayerCount: 2
Fore
SplineSet
347 391 m 1,0,1
 278.230769231 379.538461538 278.230769231 379.538461538 247.307692308 379.538461538 c 128,-1,2
 216.384615385 379.538461538 216.384615385 379.538461538 185.692307692 382.769230769 c 128,-1,3
 155 386 155 386 132 400 c 128,-1,4
 109 414 109 414 93.5 444 c 128,-1,5
 78 474 78 474 78 519 c 0,6,7
 78 602 78 602 141.5 624.5 c 0,8,9
 158.408284024 630.49112426 158.408284024 630.49112426 177.904450124 630.49112426 c 0,10,11
 231.627218935 630.49112426 231.627218935 630.49112426 305 585 c 1,12,13
 305 673 305 673 178 674 c 1,14,-1
 181 709 l 1,15,16
 279 709 279 709 313 671.5 c 128,-1,17
 347 634 347 634 347 555 c 2,18,-1
 347 391 l 1,0,1
117 513 m 0,19,20
 117 416.588235294 117 416.588235294 228.764705882 416.588235294 c 0,21,22
 262.176470588 416.588235294 262.176470588 416.588235294 305 426 c 1,23,-1
 305 544 l 1,24,25
 245.904572565 584.755467197 245.904572565 584.755467197 184.5 591 c 0,26,27
 180.566666667 591.4 180.566666667 591.4 176.82 591.4 c 0,28,29
 152.466666667 591.4 152.466666667 591.4 134.733333333 573.2 c 128,-1,30
 117 555 117 555 117 513 c 0,19,20
EndSplineSet
EndChar

StartChar: Lslash
Encoding: 321 321 129
Width: 597
Flags: HMW
HStem: 0 80 694 20G
VStem: 201 95 207 61
LayerCount: 2
Fore
SplineSet
201 700 m 1,0,-1
 246 700 l 1,1,-1
 246 433 l 1,2,-1
 369 489 l 1,3,-1
 387 449 l 1,4,-1
 246 385 l 1,5,-1
 246 41 l 1,6,-1
 562 41 l 1,7,-1
 562 0 l 1,8,-1
 201 0 l 1,9,-1
 201 365 l 1,10,-1
 95 318 l 1,11,-1
 78 358 l 1,12,-1
 201 413 l 1,13,-1
 201 700 l 1,0,-1
EndSplineSet
EndChar

StartChar: lslash
Encoding: 322 322 130
Width: 422
Flags: HMW
HStem: 0 21G<210 255 210 210> 496 20G 694 20G
VStem: 183 85 210 45<0 369 369 369 437 658 658 658> 347 20
LayerCount: 2
Fore
SplineSet
138 700 m 1,0,-1
 255 700 l 1,1,-1
 255 437 l 1,2,-1
 369 489 l 1,3,-1
 387 449 l 1,4,-1
 255 389 l 1,5,-1
 255 0 l 1,6,-1
 210 0 l 1,7,-1
 210 369 l 1,8,-1
 95 318 l 1,9,-1
 78 358 l 1,10,-1
 210 417 l 1,11,-1
 210 658 l 1,12,-1
 138 660 l 1,13,-1
 138 700 l 1,0,-1
EndSplineSet
EndChar

StartChar: mu
Encoding: 181 181 131
Width: 477
Flags: HMW
HStem: -201 21G<37 37> -12 75 0 21G 497 20G
VStem: -205 20 37 85 380 85
LayerCount: 2
Fore
SplineSet
37 501 m 1,0,-1
 83 501 l 1,1,-1
 83 101 l 1,2,3
 107.689922481 72.7829457364 107.689922481 72.7829457364 154.84496124 51.8914728682 c 0,4,5
 204.708571429 29.8 204.708571429 29.8 252.08 29.8 c 0,6,7
 293.165217391 29.8 293.165217391 29.8 326.5 48.5 c 0,8,9
 371 73.4634146341 371 73.4634146341 371 148 c 2,10,-1
 371 500 l 1,11,-1
 417 510 l 1,12,-1
 417 67 l 1,13,14
 419 35 419 35 443 23 c 1,15,-1
 421 -5 l 1,16,17
 413 -5 413 -5 400 5.5 c 128,-1,18
 387 16 387 16 380 35 c 1,19,20
 338.75862069 -11.6206896552 338.75862069 -11.6206896552 255.719381688 -11.6206896552 c 0,21,22
 192.607758621 -11.6206896552 192.607758621 -11.6206896552 147.5 9 c 0,23,24
 96.8421052632 32.1578947368 96.8421052632 32.1578947368 83 46 c 1,25,-1
 83 -208 l 1,26,-1
 37 -201 l 1,27,-1
 37 501 l 1,0,-1
EndSplineSet
EndChar

StartChar: trademark
Encoding: 8482 8482 132
Width: 604
Flags: HMW
HStem: 659 55
VStem: 115 67<512 700 512 700> 215 67 385 102<574 574>
LayerCount: 2
Fore
SplineSet
115 700 m 1,0,-1
 336 700 l 1,1,-1
 385 574 l 1,2,-1
 433 700 l 1,3,-1
 487 700 l 1,4,-1
 487 512 l 1,5,-1
 449 512 l 1,6,-1
 449 646 l 1,7,-1
 399 512 l 1,8,-1
 371 512 l 1,9,-1
 321 646 l 1,10,-1
 321 512 l 1,11,-1
 282 512 l 1,12,-1
 282 662 l 1,13,-1
 222 662 l 1,14,-1
 222 512 l 1,15,-1
 182 512 l 1,16,-1
 182 662 l 1,17,-1
 115 662 l 1,18,-1
 115 700 l 1,0,-1
EndSplineSet
EndChar

StartChar: plusminus
Encoding: 177 177 133
Width: 437
Flags: HMW
HStem: 0 68 271 68
VStem: 32 20 299 68
LayerCount: 2
Fore
SplineSet
82 413 m 1,0,-1
 221 413 l 1,1,-1
 221 545 l 1,2,-1
 265 545 l 1,3,-1
 265 413 l 1,4,-1
 402 413 l 1,5,-1
 402 369 l 1,6,-1
 265 369 l 1,7,-1
 265 281 l 1,8,-1
 398 281 l 1,9,-1
 398 237 l 1,10,-1
 78 237 l 1,11,-1
 78 281 l 1,12,-1
 221 281 l 1,13,-1
 221 369 l 1,14,-1
 82 369 l 1,15,-1
 82 413 l 1,0,-1
EndSplineSet
EndChar

StartChar: divide
Encoding: 247 247 134
Width: 432
Flags: HMW
HStem: -17 21G 222 66 233 111 479 111 503 20G
VStem: 171 128 213 55<253.5 268.5 499.5 514.5>
LayerCount: 2
Fore
SplineSet
78 408 m 1,0,-1
 397 408 l 1,1,-1
 397 364 l 1,2,-1
 78 364 l 1,3,-1
 78 408 l 1,0,-1
240 288 m 128,-1,5
 251 288 251 288 259.5 280 c 128,-1,6
 268 272 268 272 268 261 c 128,-1,7
 268 250 268 250 259.5 241.5 c 128,-1,8
 251 233 251 233 240 233 c 128,-1,9
 229 233 229 233 221 241.5 c 128,-1,10
 213 250 213 250 213 261 c 128,-1,11
 213 272 213 272 221 280 c 128,-1,4
 229 288 229 288 240 288 c 128,-1,5
240 534 m 128,-1,13
 251 534 251 534 259.5 526 c 128,-1,14
 268 518 268 518 268 507 c 128,-1,15
 268 496 268 496 259.5 487.5 c 128,-1,16
 251 479 251 479 240 479 c 128,-1,17
 229 479 229 479 221 487.5 c 128,-1,18
 213 496 213 496 213 507 c 128,-1,19
 213 518 213 518 221 526 c 128,-1,12
 229 534 229 534 240 534 c 128,-1,13
EndSplineSet
EndChar

StartChar: degree
Encoding: 176 176 135
Width: 401
Flags: HMW
HStem: 421 41<189.5 254.5 189.5 262> 668 41<189.5 254.5>
VStem: 78 41<539 590.5 539 605> 325 41<539 590.5>
LayerCount: 2
Fore
SplineSet
222 709 m 128,-1,1
 282 709 282 709 324 667 c 128,-1,2
 366 625 366 625 366 565 c 128,-1,3
 366 505 366 505 324 463 c 128,-1,4
 282 421 282 421 222 421 c 128,-1,5
 162 421 162 421 120 463 c 128,-1,6
 78 505 78 505 78 565 c 128,-1,7
 78 625 78 625 120 667 c 128,-1,0
 162 709 162 709 222 709 c 128,-1,1
119 565 m 128,-1,9
 119 524 119 524 147 493 c 128,-1,10
 175 462 175 462 222 462 c 128,-1,11
 269 462 269 462 297 493 c 128,-1,12
 325 524 325 524 325 565 c 128,-1,13
 325 606 325 606 296.5 637 c 128,-1,14
 268 668 268 668 222 668 c 128,-1,15
 176 668 176 668 147.5 637 c 128,-1,8
 119 606 119 606 119 565 c 128,-1,9
EndSplineSet
EndChar

StartChar: registered
Encoding: 174 174 136
Width: 800
Flags: HMW
HStem: -17 55 327 55 521 55 676 55
VStem: 24 68 255 68 509 68 708 68
LayerCount: 2
Fore
SplineSet
264 476 m 1,0,-1
 428 476 l 2,1,2
 499 476 499 476 538 442 c 128,-1,3
 577 408 577 408 577 353.5 c 128,-1,4
 577 299 577 299 545.5 269 c 128,-1,5
 514 239 514 239 463 233 c 1,6,-1
 587 39 l 1,7,-1
 533 39 l 1,8,-1
 413 229 l 1,9,-1
 309 229 l 1,10,-1
 309 39 l 1,11,-1
 264 39 l 1,12,-1
 264 476 l 1,0,-1
309 435 m 1,13,-1
 309 272 l 1,14,-1
 408 272 l 2,15,16
 498.388888889 272 498.388888889 272 521 309 c 0,17,18
 532 327 532 327 532 354 c 0,19,20
 532 398 532 398 498 416.5 c 128,-1,21
 464 435 464 435 420 435 c 2,22,-1
 309 435 l 1,13,-1
135 -19 m 128,-1,24
 25 89 25 89 25 248 c 128,-1,25
 25 407 25 407 134 514 c 128,-1,26
 243 621 243 621 400.5 621 c 128,-1,27
 558 621 558 621 666 514 c 128,-1,28
 774 407 774 407 774 248 c 128,-1,29
 774 89 774 89 665 -19 c 128,-1,30
 556 -127 556 -127 400.5 -127 c 128,-1,23
 245 -127 245 -127 135 -19 c 128,-1,24
167.5 484 m 128,-1,32
 72 391 72 391 72 247.5 c 128,-1,33
 72 104 72 104 168 10.5 c 128,-1,34
 264 -83 264 -83 401 -83 c 128,-1,35
 538 -83 538 -83 633 11 c 128,-1,36
 728 105 728 105 728 246 c 128,-1,37
 728 387 728 387 632 482 c 128,-1,38
 536 577 536 577 399.5 577 c 128,-1,31
 263 577 263 577 167.5 484 c 128,-1,32
EndSplineSet
EndChar

StartChar: multiply
Encoding: 215 215 137
Width: 390
Flags: HMW
HStem: 24 458
VStem: 79 275<201 201>
LayerCount: 2
Fore
SplineSet
78 465 m 1,0,-1
 111 493 l 1,1,-1
 217 366 l 1,2,-1
 322 493 l 1,3,-1
 355 465 l 1,4,-1
 245 332 l 1,5,-1
 354 201 l 1,6,-1
 320 172 l 1,7,-1
 216 297 l 1,8,-1
 112 171 l 1,9,-1
 79 201 l 1,10,-1
 188 332 l 1,11,-1
 78 465 l 1,0,-1
EndSplineSet
EndChar

StartChar: copyright
Encoding: 169 169 138
Width: 800
Flags: HMW
HStem: -17 55 128 55 530 55 676 55
VStem: 24 68 191 68 708 68
LayerCount: 2
Fore
SplineSet
135 -19 m 128,-1,1
 25 89 25 89 25 248 c 128,-1,2
 25 407 25 407 134 514 c 128,-1,3
 243 621 243 621 400.5 621 c 128,-1,4
 558 621 558 621 666 514 c 128,-1,5
 774 407 774 407 774 248 c 128,-1,6
 774 89 774 89 665 -19 c 128,-1,7
 556 -127 556 -127 400.5 -127 c 128,-1,0
 245 -127 245 -127 135 -19 c 128,-1,1
168 484 m 128,-1,9
 72 391 72 391 72 247.5 c 128,-1,10
 72 104 72 104 168.5 10.5 c 128,-1,11
 265 -83 265 -83 400 -83 c 128,-1,12
 535 -83 535 -83 631.5 11 c 128,-1,13
 728 105 728 105 728 245.5 c 128,-1,14
 728 386 728 386 632 481.5 c 128,-1,15
 536 577 536 577 400 577 c 128,-1,8
 264 577 264 577 168 484 c 128,-1,9
598 323 m 1,16,-1
 548 323 l 1,17,18
 539 366 539 366 500 398.5 c 128,-1,19
 461 431 461 431 404 431 c 0,20,21
 322 431 322 431 281 377.5 c 128,-1,22
 240 324 240 324 240 247.5 c 128,-1,23
 240 171 240 171 282 116.5 c 128,-1,24
 324 62 324 62 405 62 c 0,25,26
 461 62 461 62 501 95.5 c 128,-1,27
 541 129 541 129 548 175 c 1,28,-1
 599 175 l 1,29,30
 583 103 583 103 529 59.5 c 128,-1,31
 475 16 475 16 405 16 c 0,32,33
 306 16 306 16 248.5 81 c 128,-1,34
 191 146 191 146 191 244.5 c 128,-1,35
 191 343 191 343 248 410.5 c 128,-1,36
 305 478 305 478 403 478 c 0,37,38
 476 478 476 478 531 435 c 128,-1,39
 586 392 586 392 598 323 c 1,16,-1
EndSplineSet
EndChar

StartChar: Delta
Encoding: 8710 8710 139
Width: 618
Flags: HMW
HStem: 0 65 622 91
VStem: 97 586 317 21
LayerCount: 2
Fore
SplineSet
307 700 m 1,0,-1
 350 700 l 1,1,-1
 583 0 l 1,2,-1
 78 0 l 1,3,-1
 307 700 l 1,0,-1
328 631 m 1,4,-1
 138 41 l 1,5,-1
 522 41 l 1,6,-1
 328 631 l 1,4,-1
EndSplineSet
EndChar

StartChar: Omega
Encoding: 8486 8486 140
Width: 627
Flags: HMW
HStem: 0 66 639 67
VStem: 172 74 628 81 800 20
LayerCount: 2
Fore
SplineSet
279 707 m 2,0,-1
 391 707 l 2,1,2
 485 707 485 707 532 651 c 128,-1,3
 579 595 579 595 579 503 c 2,4,-1
 579 196 l 2,5,6
 579 137 579 137 556.5 102 c 128,-1,7
 534 67 534 67 491 42 c 1,8,-1
 577 42 l 1,9,-1
 592 0 l 1,10,-1
 364 0 l 1,11,-1
 364 42 l 1,12,13
 425.109947644 49.6387434555 425.109947644 49.6387434555 474.5 76.5 c 0,14,15
 535 109.403508772 535 109.403508772 535 196 c 2,16,-1
 535 510 l 2,17,18
 535 586 535 586 495.5 626 c 128,-1,19
 456 666 456 666 391 666 c 2,20,-1
 279 666 l 2,21,22
 215 666 215 666 175.5 625.5 c 128,-1,23
 136 585 136 585 136 510 c 2,24,-1
 136 196 l 2,25,26
 136 109.403508772 136 109.403508772 195.5 76 c 0,27,28
 242.311594203 49.7198067633 242.311594203 49.7198067633 306 42 c 1,29,-1
 306 0 l 1,30,-1
 78 0 l 1,31,-1
 92 42 l 1,32,-1
 176 42 l 1,33,34
 91 88 91 88 91 196 c 2,35,-1
 91 503 l 2,36,37
 91 595 91 595 138 651 c 128,-1,38
 185 707 185 707 279 707 c 2,0,-1
EndSplineSet
EndChar

StartChar: pi
Encoding: 960 960 141
Width: 532
Flags: HMW
HStem: 0 21G<66 111 66 66> 449 68 481 20<66 445 445 445>
VStem: 68 20 131 79 387 80
LayerCount: 2
Fore
SplineSet
66 501 m 1,0,-1
 445 501 l 1,1,-1
 445 71 l 1,2,3
 448 40 448 40 472 25 c 1,4,-1
 450 -3 l 1,5,6
 448 -2 448 -2 444.5 -0.5 c 128,-1,7
 441 1 441 1 432 7 c 128,-1,8
 423 13 423 13 416.5 21.5 c 0,9,10
 399 44.3846153846 399 44.3846153846 399 79 c 2,11,-1
 400 462 l 1,12,-1
 111 462 l 1,13,-1
 111 0 l 1,14,-1
 66 0 l 1,15,-1
 66 501 l 1,0,-1
EndSplineSet
EndChar

StartChar: uni00AD
Encoding: 173 173 142
Width: 410
Flags: HMW
HStem: 238 80
VStem: 50 289
LayerCount: 2
Fore
SplineSet
45 413 m 1,0,-1
 365 413 l 1,1,-1
 365 369 l 1,2,-1
 45 369 l 1,3,-1
 45 413 l 1,0,-1
EndSplineSet
EndChar

StartChar: f_l
Encoding: 64258 64258 143
Width: 391
Flags: HMW
HStem: 0 21G<78 123 78 78 312 312 312 356> 442 75 647 75 694 20G
VStem: -172 20 141 85 407 85
LayerCount: 2
Fore
SplineSet
78 561 m 2,0,1
 78 629 78 629 121.430232558 667.604651163 c 128,-1,2
 164.860465116 706.209302326 164.860465116 706.209302326 229.941860465 706.209302326 c 128,-1,3
 295.023255814 706.209302326 295.023255814 706.209302326 356 657 c 1,4,-1
 356 0 l 1,5,-1
 312 0 l 1,6,-1
 312 630 l 1,7,8
 266.680851064 658.723404255 266.680851064 658.723404255 235.010638298 658.723404255 c 128,-1,9
 203.340425532 658.723404255 203.340425532 658.723404255 182 649.5 c 0,10,11
 123 624 123 624 123 554 c 2,12,-1
 123 501 l 1,13,-1
 248 501 l 1,14,-1
 229 458 l 1,15,-1
 123 458 l 1,16,-1
 123 0 l 1,17,-1
 78 0 l 1,18,-1
 78 561 l 2,0,1
EndSplineSet
EndChar

StartChar: Epsilontonos
Encoding: 904 904 144
Width: 614
Flags: HMW
HStem: 0 41<290 577 290 577> 0 50 568 143 569 143 658 42<290 579 290 290>
VStem: 88 109 245 45<41 369 413 658> 245 56
LayerCount: 2
Fore
SplineSet
78 568 m 1,0,-1
 130 689 l 2,1,2
 139 709.25 139 709.25 156.4375 709.25 c 0,3,4
 180.37962963 709.25 180.37962963 709.25 185.5 689.5 c 0,5,6
 189 676 189 676 182 666 c 2,7,-1
 114 568 l 1,8,-1
 78 568 l 1,0,-1
245 700 m 1,9,-1
 579 700 l 1,10,-1
 579 658 l 1,11,-1
 290 658 l 1,12,-1
 290 413 l 1,13,-1
 492 413 l 1,14,-1
 477 369 l 1,15,-1
 290 369 l 1,16,-1
 290 41 l 1,17,-1
 577 41 l 1,18,-1
 577 0 l 1,19,-1
 245 0 l 1,20,-1
 245 700 l 1,9,-1
EndSplineSet
EndChar

StartChar: Etatonos
Encoding: 905 905 145
Width: 712
Flags: HMW
HStem: 568 143 569 143
VStem: 80 109 239 56 247 45<0 369 413 700> 613 56 632 45<0 369 369 369 413 700 0 700>
LayerCount: 2
Fore
SplineSet
78 568 m 1,0,-1
 130 689 l 2,1,2
 139 709.25 139 709.25 156.4375 709.25 c 0,3,4
 180.37962963 709.25 180.37962963 709.25 185.5 689.5 c 0,5,6
 189 676 189 676 182 666 c 2,7,-1
 114 568 l 1,8,-1
 78 568 l 1,0,-1
247 700 m 1,9,-1
 292 700 l 1,10,-1
 292 413 l 1,11,-1
 632 413 l 1,12,-1
 632 700 l 1,13,-1
 677 700 l 1,14,-1
 677 0 l 1,15,-1
 632 0 l 1,16,-1
 632 369 l 1,17,-1
 292 369 l 1,18,-1
 292 0 l 1,19,-1
 247 0 l 1,20,-1
 247 700 l 1,9,-1
EndSplineSet
EndChar

StartChar: Iotatonos
Encoding: 906 906 146
Width: 386
Flags: HMW
HStem: 568 143 569 143
VStem: 90 109 304 56 306 45<0 658 658 658> 443 20
LayerCount: 2
Fore
SplineSet
234 700 m 1,0,-1
 351 700 l 1,1,-1
 351 0 l 1,2,-1
 306 0 l 1,3,-1
 306 658 l 1,4,-1
 234 660 l 1,5,-1
 234 700 l 1,0,-1
78 568 m 1,6,-1
 130 689 l 2,7,8
 139 709.25 139 709.25 156.4375 709.25 c 0,9,10
 180.37962963 709.25 180.37962963 709.25 185.5 689.5 c 0,11,12
 186.666666667 685 186.666666667 685 186.666666667 678.833333333 c 128,-1,13
 186.666666667 672.666666667 186.666666667 672.666666667 182 666 c 2,14,-1
 114 568 l 1,15,-1
 78 568 l 1,6,-1
EndSplineSet
EndChar

StartChar: Omicrontonos
Encoding: 908 908 147
Width: 650
Flags: HMW
HStem: 0 42 32 684<362 448.5> 568 143 569 143
VStem: 82 109 87 109 195 56 195 376<186 507 507 514 514 566 186 577.5> 240 375<131.5 185 185 506 111.5 514> 314 21 560 55
LayerCount: 2
Fore
SplineSet
195 185 m 2,0,-1
 195 507 l 2,1,2
 195 610 195 610 251.5 663 c 128,-1,3
 308 716 308 716 407 716 c 128,-1,4
 506 716 506 716 560.5 660 c 128,-1,5
 615 604 615 604 615 506 c 2,6,-1
 615 185 l 2,7,8
 615 84 615 84 553.5 36.5 c 128,-1,9
 492 -11 492 -11 406 -11 c 128,-1,10
 320 -11 320 -11 257.5 36.5 c 128,-1,11
 195 84 195 84 195 185 c 2,0,-1
240 514 m 2,12,-1
 240 185 l 2,13,14
 240 109 240 109 287.5 70.5 c 128,-1,15
 335 32 335 32 406 32 c 128,-1,16
 477 32 477 32 524 69.5 c 128,-1,17
 571 107 571 107 571 186 c 2,18,-1
 571 514 l 2,19,20
 571 591 571 591 526.5 632 c 128,-1,21
 482 673 482 673 405 673 c 128,-1,22
 328 673 328 673 284 632 c 128,-1,23
 240 591 240 591 240 514 c 2,12,-1
78 568 m 1,24,-1
 130 689 l 2,25,26
 139 709.25 139 709.25 156.4375 709.25 c 0,27,28
 180.37962963 709.25 180.37962963 709.25 185.5 689.5 c 0,29,30
 186.666666667 685 186.666666667 685 186.666666667 678.833333333 c 128,-1,31
 186.666666667 672.666666667 186.666666667 672.666666667 182 666 c 2,32,-1
 114 568 l 1,33,-1
 78 568 l 1,24,-1
EndSplineSet
EndChar

StartChar: Upsilontonos
Encoding: 910 910 148
Width: 719
Flags: HMW
HStem: 0 21G 568 143 694 20G
VStem: 87 109 237 56 241 45<453 700> 624 57 639 46<152 153 153 308 308 308 401 700>
LayerCount: 2
Fore
SplineSet
78 568 m 1,0,-1
 130 689 l 2,1,2
 139 709.25 139 709.25 156.4375 709.25 c 0,3,4
 180.37962963 709.25 180.37962963 709.25 185.5 689.5 c 0,5,6
 189 676 189 676 182 666 c 2,7,-1
 114 568 l 1,8,-1
 78 568 l 1,0,-1
241 700 m 1,9,-1
 286 700 l 1,10,-1
 286 447 l 2,11,12
 286 371 286 371 335 330 c 128,-1,13
 384 289 384 289 459.5 289 c 128,-1,14
 535 289 535 289 582 318.5 c 128,-1,15
 629 348 629 348 639 401 c 1,16,-1
 639 700 l 1,17,-1
 685 700 l 1,18,-1
 685 153 l 2,19,20
 685 11 685 11 580 -7 c 1,21,-1
 569 24 l 1,22,23
 619.477272727 43.4143356643 619.477272727 43.4143356643 632.5 92.5 c 0,24,25
 639 117 639 117 639 152 c 2,26,-1
 639 308 l 1,27,28
 612 276 612 276 563 260.5 c 128,-1,29
 514 245 514 245 470 245 c 0,30,31
 364 245 364 245 302.5 297.5 c 128,-1,32
 241 350 241 350 241 453 c 2,33,-1
 241 700 l 1,9,-1
EndSplineSet
EndChar

StartChar: Omegatonos
Encoding: 911 911 149
Width: 721
Flags: HMW
HStem: 0 66 568 143 639 67
VStem: 80 109 209 81 722 81 894 20
LayerCount: 2
Fore
SplineSet
373 707 m 2,0,-1
 485 707 l 2,1,2
 579 707 579 707 626 651 c 128,-1,3
 673 595 673 595 673 503 c 2,4,-1
 673 196 l 2,5,6
 673 137 673 137 650.5 102 c 128,-1,7
 628 67 628 67 585 42 c 1,8,-1
 671 42 l 1,9,-1
 686 0 l 1,10,-1
 458 0 l 1,11,-1
 458 42 l 1,12,13
 519.109947644 49.6387434555 519.109947644 49.6387434555 568.5 76.5 c 0,14,15
 629 109.403508772 629 109.403508772 629 196 c 2,16,-1
 629 510 l 2,17,18
 629 586 629 586 589.5 626 c 128,-1,19
 550 666 550 666 485 666 c 2,20,-1
 373 666 l 2,21,22
 309 666 309 666 269.5 625.5 c 128,-1,23
 230 585 230 585 230 510 c 2,24,-1
 230 196 l 2,25,26
 230 109.403508772 230 109.403508772 289.5 76 c 0,27,28
 336.311594203 49.7198067633 336.311594203 49.7198067633 400 42 c 1,29,-1
 400 0 l 1,30,-1
 172 0 l 1,31,-1
 186 42 l 1,32,-1
 270 42 l 1,33,34
 185 88 185 88 185 196 c 2,35,-1
 185 503 l 2,36,37
 185 595 185 595 232 651 c 128,-1,38
 279 707 279 707 373 707 c 2,0,-1
78 568 m 1,39,-1
 130 689 l 2,40,41
 139 709.25 139 709.25 156.4375 709.25 c 0,42,43
 180.37962963 709.25 180.37962963 709.25 185.5 689.5 c 0,44,45
 186.666666667 685 186.666666667 685 186.666666667 678.833333333 c 128,-1,46
 186.666666667 672.666666667 186.666666667 672.666666667 182 666 c 2,47,-1
 114 568 l 1,48,-1
 78 568 l 1,39,-1
EndSplineSet
EndChar

StartChar: iotatonos
Encoding: 943 943 150
Width: 228
Flags: HMW
HStem: 0 21G<81 126 81 81> 497 20G 538 143 610 104
VStem: 81 45<0 501 0 501> 95 85
LayerCount: 2
Fore
SplineSet
85 538 m 1,0,-1
 137 659 l 2,1,2
 146 679.25 146 679.25 163.4375 679.25 c 0,3,4
 187.37962963 679.25 187.37962963 679.25 192.5 659.5 c 0,5,6
 193.666666667 655 193.666666667 655 193.666666667 648.833333333 c 128,-1,7
 193.666666667 642.666666667 193.666666667 642.666666667 189 636 c 2,8,-1
 121 538 l 1,9,-1
 85 538 l 1,0,-1
81 501 m 1,10,-1
 126 501 l 1,11,-1
 126 0 l 1,12,-1
 81 0 l 1,13,-1
 81 501 l 1,10,-1
EndSplineSet
EndChar

StartChar: etatonos
Encoding: 942 942 151
Width: 482
Flags: HMW
HStem: 0 21G<78 123 78 78> 454 75 538 143
VStem: 78 85 87 85 244 109 253 109 421 85 523 85
LayerCount: 2
Fore
SplineSet
249 538 m 1,0,-1
 301 659 l 2,1,2
 310 679.25 310 679.25 327.4375 679.25 c 0,3,4
 351.37962963 679.25 351.37962963 679.25 356.5 659.5 c 0,5,6
 360 646 360 646 353 636 c 2,7,-1
 285 538 l 1,8,-1
 249 538 l 1,0,-1
264.262688615 467.851851852 m 0,9,10
 185.625925926 467.851851852 185.625925926 467.851851852 123 434 c 1,11,-1
 123 0 l 1,12,-1
 78 0 l 1,13,-1
 78 501 l 1,14,-1
 123 501 l 1,15,-1
 123 474 l 1,16,17
 179.378181818 509.236363636 179.378181818 509.236363636 265.894214876 509.236363636 c 0,18,19
 322.690909091 509.236363636 322.690909091 509.236363636 362 490 c 1,20,21
 447 451 447 451 447 346 c 2,22,-1
 447 -211 l 1,23,-1
 403 -191 l 1,24,-1
 403 344 l 2,25,26
 403 398 403 398 372.5 429.5 c 128,-1,27
 342 461 342 461 297.5 466 c 0,28,29
 281.018518519 467.851851852 281.018518519 467.851851852 264.262688615 467.851851852 c 0,9,10
EndSplineSet
EndChar

StartChar: epsilontonos
Encoding: 941 941 152
Width: 458
Flags: HMW
HStem: -12 75 336 68 538 143 634 75
VStem: 58 85 68 85 73 85 83 85 229 109 418 90 428 90 448 90 458 90
LayerCount: 2
Fore
SplineSet
225 538 m 1,0,-1
 277 659 l 2,1,2
 286 679.25 286 679.25 303.4375 679.25 c 0,3,4
 327.37962963 679.25 327.37962963 679.25 332.5 659.5 c 0,5,6
 336 646 336 646 329 636 c 2,7,-1
 261 538 l 1,8,-1
 225 538 l 1,0,-1
98.5306122449 385.758433986 m 0,9,10
 98.5306122449 451.013605442 98.5306122449 451.013605442 150.736842105 484.01754386 c 0,11,12
 193.473684211 511.035087719 193.473684211 511.035087719 245.314536341 511.035087719 c 128,-1,13
 297.155388471 511.035087719 297.155388471 511.035087719 353 496 c 1,14,-1
 353 454 l 1,15,16
 309.409375 469.03125 309.409375 469.03125 275.5953125 469.03125 c 128,-1,17
 241.78125 469.03125 241.78125 469.03125 216.390625 465.515625 c 128,-1,18
 191 462 191 462 168.5 442.5 c 0,19,20
 144.822222222 421.979259259 144.822222222 421.979259259 144.822222222 388.245185185 c 128,-1,21
 144.822222222 354.511111111 144.822222222 354.511111111 164.411111111 327.755555556 c 128,-1,22
 184 301 184 301 225 301 c 2,23,-1
 352 301 l 1,24,-1
 337 257 l 1,25,-1
 235 257 l 2,26,27
 186 257 186 257 154.5 229 c 128,-1,28
 123 201 123 201 123 147.5 c 128,-1,29
 123 94 123 94 158 63 c 128,-1,30
 193 32 193 32 257 32 c 0,31,32
 293 32 293 32 331.5 40 c 128,-1,33
 370 48 370 48 390 56.5 c 2,34,-1
 410 65 l 1,35,-1
 423 24 l 1,36,37
 345 -10 345 -10 260.5 -10 c 128,-1,38
 176 -10 176 -10 130 30.5 c 0,39,40
 78.3333333333 75.9891304348 78.3333333333 75.9891304348 78.3333333333 150.756944444 c 0,41,42
 78.3333333333 250.75 78.3333333333 250.75 159 281 c 1,43,44
 131 291 131 291 114.765306122 323.030612245 c 128,-1,45
 98.5306122449 355.06122449 98.5306122449 355.06122449 98.5306122449 385.758433986 c 0,9,10
EndSplineSet
EndChar

StartChar: omegatonos
Encoding: 974 974 153
Width: 645
Flags: HMW
HStem: 538 143
VStem: -150 21 327 109 328 109
LayerCount: 2
Fore
SplineSet
323 538 m 1,0,-1
 375 659 l 2,1,2
 384 679.25 384 679.25 401.4375 679.25 c 0,3,4
 425.37962963 679.25 425.37962963 679.25 430.5 659.5 c 0,5,6
 434 646 434 646 427 636 c 2,7,-1
 359 538 l 1,8,-1
 323 538 l 1,0,-1
185 500 m 1,9,-1
 211 464 l 1,10,11
 171 453 171 453 147 416.5 c 128,-1,12
 123 380 123 380 123 324 c 2,13,-1
 123 179 l 2,14,15
 123 100 123 100 156.5 65.5 c 128,-1,16
 190 31 190 31 236 31 c 0,17,18
 318 31 318 31 321 144 c 1,19,-1
 321 299 l 1,20,-1
 367 299 l 1,21,-1
 367 144 l 1,22,23
 368 31 368 31 452 31 c 0,24,25
 498 31 498 31 531.5 65 c 128,-1,26
 565 99 565 99 565 179 c 2,27,-1
 565 324 l 2,28,29
 565 380 565 380 541 416.5 c 128,-1,30
 517 453 517 453 476 463 c 1,31,-1
 503 500 l 1,32,33
 610 460 610 460 610 317 c 2,34,-1
 610 188 l 2,35,36
 610 -12 610 -12 449 -12 c 0,37,38
 378 -12 378 -12 344 44 c 1,39,40
 310 -12 310 -12 239 -12 c 0,41,42
 78 -12 78 -12 78 188 c 2,43,-1
 78 317 l 2,44,45
 78 460 78 460 185 500 c 1,9,-1
EndSplineSet
EndChar

StartChar: upsilontonos
Encoding: 973 973 154
Width: 493
Flags: HMW
HStem: -12 75 0 21G 497 20G 538 143
VStem: 86 85 253 109 256 109 385 85 419 85 429 85
LayerCount: 2
Fore
SplineSet
249 538 m 1,0,-1
 301 659 l 2,1,2
 310 679.25 310 679.25 327.4375 679.25 c 0,3,4
 351.37962963 679.25 351.37962963 679.25 356.5 659.5 c 0,5,6
 360 646 360 646 353 636 c 2,7,-1
 285 538 l 1,8,-1
 249 538 l 1,0,-1
78 501 m 1,9,-1
 123 501 l 1,10,-1
 123 165 l 2,11,12
 123 31 123 31 268 31 c 128,-1,13
 413 31 413 31 413 165 c 2,14,-1
 413 501 l 1,15,-1
 458 501 l 1,16,-1
 458 172 l 2,17,18
 458 -10 458 -10 268 -10 c 128,-1,19
 78 -10 78 -10 78 172 c 2,20,-1
 78 501 l 1,9,-1
EndSplineSet
EndChar

StartChar: omicrontonos
Encoding: 972 972 155
Width: 486
Flags: HMW
HStem: -12 75 -10 40<218.5 313.5 218.5 332> 454 75 471 41<225 305> 538 143
VStem: 58 90 78 45<184 316 316 317> 248 109 406 45<177 184 184 316> 470 90
LayerCount: 2
Fore
SplineSet
239 538 m 1,0,-1
 291 659 l 2,1,2
 300 679.25 300 679.25 317.4375 679.25 c 0,3,4
 341.37962963 679.25 341.37962963 679.25 346.5 659.5 c 0,5,6
 350 646 350 646 343 636 c 2,7,-1
 275 538 l 1,8,-1
 239 538 l 1,0,-1
78 184 m 2,9,-1
 78 316 l 2,10,11
 78 411 78 411 126.5 461.5 c 128,-1,12
 175 512 175 512 264 512 c 128,-1,13
 353 512 353 512 402 459.5 c 128,-1,14
 451 407 451 407 451 316 c 2,15,-1
 451 184 l 2,16,17
 451 100 451 100 405 45 c 128,-1,18
 359 -10 359 -10 266 -10 c 128,-1,19
 173 -10 173 -10 125.5 45.5 c 128,-1,20
 78 101 78 101 78 184 c 2,9,-1
123 317 m 2,21,-1
 123 177 l 2,22,23
 123 113 123 113 160.5 71.5 c 128,-1,24
 198 30 198 30 266 30 c 128,-1,25
 334 30 334 30 370 71 c 128,-1,26
 406 112 406 112 406 177 c 2,27,-1
 406 317 l 2,28,29
 406 395 406 395 367.5 433 c 128,-1,30
 329 471 329 471 265 471 c 128,-1,31
 201 471 201 471 162 433.5 c 128,-1,32
 123 396 123 396 123 317 c 2,21,-1
EndSplineSet
EndChar

StartChar: alphatonos
Encoding: 940 940 156
Width: 505
Flags: HMW
HStem: -198 21G -12 75 454 63 454 75 538 143
VStem: 76 90 86 90 241 109 271 109 481 85 491 85
LayerCount: 2
Fore
SplineSet
222.991155047 506.806451613 m 0,0,1
 312.139354839 506.806451613 312.139354839 506.806451613 398 463 c 1,2,-1
 414 503 l 1,3,-1
 450 486 l 1,4,5
 443 431 443 431 443 399 c 2,6,-1
 443 61 l 1,7,8
 449 40 449 40 470 28 c 1,9,-1
 449 2 l 1,10,11
 446 2 446 2 433 3.5 c 128,-1,12
 420 5 420 5 375.778183959 0.729204746165 c 128,-1,13
 331.556367918 -3.54159050767 331.556367918 -3.54159050767 282.222519766 -3.54159050767 c 128,-1,14
 232.888671614 -3.54159050767 232.888671614 -3.54159050767 206.200556827 1.57705120255 c 0,15,16
 78 26.1652517064 78 26.1652517064 78 169 c 2,17,-1
 78 354 l 2,18,19
 78 424 78 424 110.5 462.5 c 128,-1,20
 143 501 143 501 193.5 505.5 c 0,21,22
 208.161290323 506.806451613 208.161290323 506.806451613 222.991155047 506.806451613 c 0,0,1
398 421 m 1,23,24
 298.867488444 465.508474576 298.867488444 465.508474576 216.513645504 465.508474576 c 0,25,26
 173.559322034 465.508474576 173.559322034 465.508474576 147.779661017 436.754237288 c 128,-1,27
 122 408 122 408 122 351 c 2,28,-1
 122 162 l 2,29,30
 122 40.2113821138 122 40.2113821138 251.5 36 c 0,31,32
 261.75 35.6666666667 261.75 35.6666666667 294.458333333 35.6666666667 c 128,-1,33
 327.166666667 35.6666666667 327.166666667 35.6666666667 398 44 c 1,34,-1
 398 421 l 1,23,24
237 538 m 1,35,-1
 289 659 l 2,36,37
 298 679.25 298 679.25 315.4375 679.25 c 0,38,39
 339.37962963 679.25 339.37962963 679.25 344.5 659.5 c 0,40,41
 345.666666667 655 345.666666667 655 345.666666667 648.833333333 c 128,-1,42
 345.666666667 642.666666667 345.666666667 642.666666667 341 636 c 2,43,-1
 273 538 l 1,44,-1
 237 538 l 1,35,-1
EndSplineSet
EndChar

StartChar: Upsilondieresis
Encoding: 65539 -1 157
Width: 556
Flags: HMW
HStem: 0 21G 694 20G
VStem: -13 20 78 45<453 700> 78 56 465 57 476 46<152 153 153 308 308 308 401 700>
LayerCount: 2
Fore
SplineSet
78 700 m 1,0,-1
 123 700 l 1,1,-1
 123 447 l 2,2,3
 123 371 123 371 172 330 c 128,-1,4
 221 289 221 289 296.5 289 c 128,-1,5
 372 289 372 289 419 318.5 c 128,-1,6
 466 348 466 348 476 401 c 1,7,-1
 476 700 l 1,8,-1
 522 700 l 1,9,-1
 522 153 l 2,10,11
 522 11 522 11 417 -7 c 1,12,-1
 406 24 l 1,13,14
 456.477272727 43.4143356643 456.477272727 43.4143356643 469.5 92.5 c 0,15,16
 476 117 476 117 476 152 c 2,17,-1
 476 308 l 1,18,19
 449 276 449 276 400 260.5 c 128,-1,20
 351 245 351 245 307 245 c 0,21,22
 201 245 201 245 139.5 297.5 c 128,-1,23
 78 350 78 350 78 453 c 2,24,-1
 78 700 l 1,0,-1
218 794 m 128,-1,26
 229 794 229 794 237.5 785.5 c 128,-1,27
 246 777 246 777 246 766 c 128,-1,28
 246 755 246 755 237.5 747 c 128,-1,29
 229 739 229 739 218 739 c 128,-1,30
 207 739 207 739 198.5 747 c 128,-1,31
 190 755 190 755 190 766 c 128,-1,32
 190 777 190 777 198.5 785.5 c 128,-1,25
 207 794 207 794 218 794 c 128,-1,26
376 794 m 128,-1,34
 387 794 387 794 395.5 786 c 128,-1,35
 404 778 404 778 404 767 c 128,-1,36
 404 756 404 756 395.5 747.5 c 128,-1,37
 387 739 387 739 376 739 c 128,-1,38
 365 739 365 739 357 747.5 c 128,-1,39
 349 756 349 756 349 767 c 128,-1,40
 349 778 349 778 357 786 c 128,-1,33
 365 794 365 794 376 794 c 128,-1,34
EndSplineSet
EndChar

StartChar: iotadieresis
Encoding: 970 970 158
Width: 149
Flags: HMW
HStem: 0 21G<51 96 51 51> 497 20G 549 111 610 104
VStem: -33 56<568.5 583.5> 51 45<0 501 0 501> 65 85 126 55<569.5 584.5>
LayerCount: 2
Fore
SplineSet
51 501 m 1,0,-1
 96 501 l 1,1,-1
 96 0 l 1,2,-1
 51 0 l 1,3,-1
 51 501 l 1,0,-1
-5 604 m 128,-1,5
 6 604 6 604 14.5 595.5 c 128,-1,6
 23 587 23 587 23 576 c 128,-1,7
 23 565 23 565 14.5 557 c 128,-1,8
 6 549 6 549 -5 549 c 128,-1,9
 -16 549 -16 549 -24.5 557 c 128,-1,10
 -33 565 -33 565 -33 576 c 128,-1,11
 -33 587 -33 587 -24.5 595.5 c 128,-1,4
 -16 604 -16 604 -5 604 c 128,-1,5
153 604 m 128,-1,13
 164 604 164 604 172.5 596 c 128,-1,14
 181 588 181 588 181 577 c 128,-1,15
 181 566 181 566 172.5 557.5 c 128,-1,16
 164 549 164 549 153 549 c 128,-1,17
 142 549 142 549 134 557.5 c 128,-1,18
 126 566 126 566 126 577 c 128,-1,19
 126 588 126 588 134 596 c 128,-1,12
 142 604 142 604 153 604 c 128,-1,13
EndSplineSet
EndChar

StartChar: upsilondieresis
Encoding: 971 971 159
Width: 493
Flags: HMW
HStem: -12 75 497 20G 549 111
VStem: 102 80 163 56<568.5 583.5> 322 55<569.5 584.5> 443 85
LayerCount: 2
Fore
SplineSet
78 501 m 1,0,-1
 123 501 l 1,1,-1
 123 165 l 2,2,3
 123 31 123 31 268 31 c 0,4,5
 413 31 413 31 413 165 c 2,6,-1
 413 501 l 1,7,-1
 458 501 l 1,8,-1
 458 172 l 2,9,10
 458 -10 458 -10 268 -10 c 0,11,12
 78 -10 78 -10 78 172 c 2,13,-1
 78 501 l 1,0,-1
191 604 m 128,-1,15
 202 604 202 604 210.5 595.5 c 128,-1,16
 219 587 219 587 219 576 c 128,-1,17
 219 565 219 565 210.5 557 c 128,-1,18
 202 549 202 549 191 549 c 128,-1,19
 180 549 180 549 171.5 557 c 128,-1,20
 163 565 163 565 163 576 c 128,-1,21
 163 587 163 587 171.5 595.5 c 128,-1,14
 180 604 180 604 191 604 c 128,-1,15
349 604 m 128,-1,23
 360 604 360 604 368.5 596 c 128,-1,24
 377 588 377 588 377 577 c 128,-1,25
 377 566 377 566 368.5 557.5 c 128,-1,26
 360 549 360 549 349 549 c 128,-1,27
 338 549 338 549 330 557.5 c 128,-1,28
 322 566 322 566 322 577 c 128,-1,29
 322 588 322 588 330 596 c 128,-1,22
 338 604 338 604 349 604 c 128,-1,23
EndSplineSet
EndChar

StartChar: Iotadieresis
Encoding: 938 938 160
Width: 219
Flags: HMW
HStem: 741 111
VStem: 35 56<760.5 775.5> 111 56 119 45<0 658 658 658> 194 55<761.5 776.5> 256 20
LayerCount: 2
Fore
SplineSet
47 700 m 1,0,-1
 164 700 l 1,1,-1
 164 0 l 1,2,-1
 119 0 l 1,3,-1
 119 658 l 1,4,-1
 47 660 l 1,5,-1
 47 700 l 1,0,-1
63 796 m 128,-1,7
 74 796 74 796 82.5 787.5 c 128,-1,8
 91 779 91 779 91 768 c 128,-1,9
 91 757 91 757 82.5 749 c 128,-1,10
 74 741 74 741 63 741 c 128,-1,11
 52 741 52 741 43.5 749 c 128,-1,12
 35 757 35 757 35 768 c 128,-1,13
 35 779 35 779 43.5 787.5 c 128,-1,6
 52 796 52 796 63 796 c 128,-1,7
221 796 m 128,-1,15
 232 796 232 796 240.5 788 c 128,-1,16
 249 780 249 780 249 769 c 128,-1,17
 249 758 249 758 240.5 749.5 c 128,-1,18
 232 741 232 741 221 741 c 128,-1,19
 210 741 210 741 202 749.5 c 128,-1,20
 194 758 194 758 194 769 c 128,-1,21
 194 780 194 780 202 788 c 128,-1,14
 210 796 210 796 221 796 c 128,-1,15
EndSplineSet
EndChar

StartChar: Psi
Encoding: 936 936 161
Width: 630
Flags: HMW
VStem: -92 21
LayerCount: 2
Fore
SplineSet
44 700 m 1,0,-1
 89 700 l 1,1,-1
 89 399 l 2,2,3
 89 325 89 325 128 289 c 128,-1,4
 167 253 167 253 232 253 c 2,5,-1
 282 253 l 1,6,-1
 282 700 l 1,7,-1
 328 700 l 1,8,-1
 328 253 l 1,9,-1
 383 253 l 2,10,11
 450 253 450 253 488 290.5 c 128,-1,12
 526 328 526 328 526 399 c 2,13,-1
 526 564 l 2,14,15
 526 607 526 607 517.5 635 c 128,-1,16
 509 663 509 663 503 670 c 128,-1,17
 497 677 497 677 478 696 c 1,18,-1
 515 709 l 1,19,20
 542 692 542 692 555 662.5 c 128,-1,21
 568 633 568 633 569.5 612 c 128,-1,22
 571 591 571 591 571 549 c 2,23,-1
 571 406 l 2,24,25
 571 315 571 315 524.5 263.5 c 128,-1,26
 478 212 478 212 383 212 c 2,27,-1
 328 212 l 1,28,-1
 328 0 l 1,29,-1
 282 0 l 1,30,-1
 282 212 l 1,31,-1
 232 212 l 2,32,33
 137 212 137 212 90.5 263.5 c 128,-1,34
 44 315 44 315 44 406 c 2,35,-1
 44 700 l 1,0,-1
EndSplineSet
EndChar

StartChar: psi
Encoding: 968 968 162
Width: 641
Flags: HMW
VStem: -140 21
LayerCount: 2
Fore
SplineSet
78 500 m 1,0,-1
 123 500 l 1,1,-1
 123 182 l 2,2,3
 123 107 123 107 163 71.5 c 128,-1,4
 203 36 203 36 266 36 c 2,5,-1
 316 36 l 1,6,-1
 316 500 l 1,7,-1
 362 500 l 1,8,-1
 362 36 l 1,9,-1
 417 36 l 2,10,11
 481 36 481 36 520.5 71.5 c 128,-1,12
 560 107 560 107 560 183 c 2,13,-1
 560 361 l 2,14,15
 560 436.411764706 560 436.411764706 538.5 465.5 c 0,16,17
 530 477 530 477 513 492 c 1,18,-1
 549 506 l 1,19,20
 576 489 576 489 589 459.5 c 128,-1,21
 602 430 602 430 603.5 409 c 128,-1,22
 605 388 605 388 605 346 c 2,23,-1
 605 189 l 2,24,25
 605 98 605 98 558.5 46.5 c 128,-1,26
 512 -5 512 -5 417 -5 c 2,27,-1
 362 -5 l 1,28,-1
 362 -219 l 1,29,-1
 316 -208 l 1,30,-1
 316 -5 l 1,31,-1
 266 -5 l 2,32,33
 171 -5 171 -5 124.5 46.5 c 128,-1,34
 78 98 78 98 78 189 c 2,35,-1
 78 500 l 1,0,-1
EndSplineSet
EndChar

StartChar: omega
Encoding: 969 969 163
Width: 676
Flags: HMW
VStem: -162 21
LayerCount: 2
Fore
SplineSet
173 500 m 1,0,-1
 199 464 l 1,1,2
 159 453 159 453 135 416.5 c 128,-1,3
 111 380 111 380 111 324 c 2,4,-1
 111 179 l 2,5,6
 111 100 111 100 144.5 65.5 c 128,-1,7
 178 31 178 31 224 31 c 0,8,9
 306 31 306 31 309 144 c 1,10,-1
 309 299 l 1,11,-1
 355 299 l 1,12,-1
 355 144 l 1,13,14
 356 31 356 31 440 31 c 0,15,16
 486 31 486 31 519.5 65 c 128,-1,17
 553 99 553 99 553 179 c 2,18,-1
 553 324 l 2,19,20
 553 380 553 380 529 416.5 c 128,-1,21
 505 453 505 453 464 463 c 1,22,-1
 491 500 l 1,23,24
 598 460 598 460 598 317 c 2,25,-1
 598 188 l 2,26,27
 598 -12 598 -12 437 -12 c 0,28,29
 366 -12 366 -12 332 44 c 1,30,31
 298 -12 298 -12 227 -12 c 0,32,33
 66 -12 66 -12 66 188 c 2,34,-1
 66 317 l 2,35,36
 66 460 66 460 173 500 c 1,0,-1
EndSplineSet
EndChar

StartChar: chi
Encoding: 967 967 164
Width: 568
Flags: HMW
HStem: 0 21G 272 21G 279 21G 497 20G
VStem: 104 500
LayerCount: 2
Fore
SplineSet
82 501 m 1,0,-1
 132 501 l 1,1,-1
 277 202 l 1,2,-1
 431 501 l 1,3,-1
 481 501 l 1,4,-1
 302 152 l 1,5,-1
 424 -99 l 2,6,7
 439 -131 439 -131 458 -148.5 c 128,-1,8
 477 -166 477 -166 490 -170.5 c 128,-1,9
 503 -175 503 -175 515.5 -176.5 c 0,10,11
 528 -178 528 -178 529.5 -178.5 c 128,-1,12
 531 -179 531 -179 533 -179 c 1,13,-1
 510 -212 l 2,14,15
 509.247524752 -212.00990099 509.247524752 -212.00990099 508.497500245 -212.00990099 c 0,16,17
 433.495049505 -212.00990099 433.495049505 -212.00990099 383 -113 c 1,18,-1
 277 104 l 1,19,-1
 120 -203 l 1,20,-1
 78 -186 l 1,21,-1
 252 153 l 1,22,-1
 82 501 l 1,0,-1
EndSplineSet
EndChar

StartChar: Chi
Encoding: 935 935 165
Width: 620
Flags: HMW
HStem: 0 21G<78 134 78 78 530 530> 694 20G
VStem: -175 21 97 472<700 700>
LayerCount: 2
Fore
SplineSet
97 700 m 1,0,-1
 147 700 l 1,1,-1
 332 399 l 1,2,-1
 517 700 l 1,3,-1
 569 700 l 1,4,-1
 359 356 l 1,5,-1
 585 1 l 1,6,-1
 530 0 l 1,7,-1
 332 310 l 1,8,-1
 134 0 l 1,9,-1
 78 0 l 1,10,-1
 305 356 l 1,11,-1
 97 700 l 1,0,-1
EndSplineSet
EndChar

StartChar: phi
Encoding: 966 966 166
Width: 640
Flags: HMW
VStem: -190 20 -156 21
LayerCount: 2
Fore
SplineSet
194 503 m 1,0,-1
 218 467 l 1,1,2
 123 443 123 443 123 315 c 2,3,-1
 123 179 l 2,4,5
 123 108 123 108 162.5 71.5 c 128,-1,6
 202 35 202 35 266 35 c 2,7,-1
 316 35 l 1,8,-1
 316 402 l 1,9,10
 318 450 318 450 345 478.5 c 128,-1,11
 372 507 372 507 419 507 c 0,12,13
 506 507 506 507 555.5 452.5 c 128,-1,14
 605 398 605 398 605 307 c 2,15,-1
 605 189 l 2,16,17
 605 98 605 98 558.5 46.5 c 128,-1,18
 512 -5 512 -5 417 -5 c 2,19,-1
 362 -5 l 1,20,-1
 362 -215 l 1,21,-1
 316 -204 l 1,22,-1
 316 -5 l 1,23,-1
 266 -5 l 2,24,25
 171 -5 171 -5 124.5 46.5 c 128,-1,26
 78 98 78 98 78 189 c 2,27,-1
 78 314 l 2,28,29
 78 466 78 466 194 503 c 1,0,-1
362 394 m 2,30,-1
 362 35 l 1,31,-1
 417 35 l 2,32,33
 484 35 484 35 522 72.5 c 128,-1,34
 560 110 560 110 560 181 c 2,35,-1
 560 317 l 2,36,37
 560 392 560 392 517 428.5 c 128,-1,38
 474 465 474 465 426 465 c 0,39,40
 362 465 362 465 362 394 c 2,30,-1
EndSplineSet
EndChar

StartChar: upsilon
Encoding: 965 965 167
Width: 515
Flags: HMW
HStem: -12 75 0 21G 497 20G
VStem: 373 85 407 85
LayerCount: 2
Fore
SplineSet
66 501 m 1,0,-1
 111 501 l 1,1,-1
 111 165 l 2,2,3
 111 31 111 31 256 31 c 0,4,5
 401 31 401 31 401 165 c 2,6,-1
 401 501 l 1,7,-1
 446 501 l 1,8,-1
 446 172 l 2,9,10
 446 -10 446 -10 256 -10 c 0,11,12
 66 -10 66 -10 66 172 c 2,13,-1
 66 501 l 1,0,-1
EndSplineSet
EndChar

StartChar: Upsilon
Encoding: 933 933 168
Width: 555
Flags: HMW
HStem: 0 21G 694 20G
VStem: -31 20 60 45<453 700> 60 56 447 57 458 46<152 153 153 308 308 308 401 700> 658 95
LayerCount: 2
Fore
SplineSet
60 700 m 1,0,-1
 105 700 l 1,1,-1
 105 447 l 2,2,3
 105 371 105 371 154 330 c 128,-1,4
 203 289 203 289 278.5 289 c 128,-1,5
 354 289 354 289 401 318.5 c 128,-1,6
 448 348 448 348 458 401 c 1,7,-1
 458 700 l 1,8,-1
 504 700 l 1,9,-1
 504 153 l 2,10,11
 504 11 504 11 399 -7 c 1,12,-1
 388 24 l 1,13,14
 438.477272727 43.4143356643 438.477272727 43.4143356643 451.5 92.5 c 0,15,16
 458 117 458 117 458 152 c 2,17,-1
 458 308 l 1,18,19
 431 276 431 276 382 260.5 c 128,-1,20
 333 245 333 245 289 245 c 0,21,22
 183 245 183 245 121.5 297.5 c 128,-1,23
 60 350 60 350 60 453 c 2,24,-1
 60 700 l 1,0,-1
EndSplineSet
EndChar

StartChar: Tau
Encoding: 932 932 169
Width: 515
Flags: HMW
HStem: 0 21G<254 299 254 254> 634 80
VStem: -93 21 248 56 254 45<0 659 0 659> 318 95 471 20
LayerCount: 2
Fore
SplineSet
78 700 m 1,0,-1
 480 700 l 1,1,-1
 480 659 l 1,2,-1
 299 659 l 1,3,-1
 299 0 l 1,4,-1
 254 0 l 1,5,-1
 254 659 l 1,6,-1
 78 659 l 1,7,-1
 78 700 l 1,0,-1
EndSplineSet
EndChar

StartChar: tau
Encoding: 964 964 170
Width: 414
Flags: HMW
HStem: 0 21G 497 20G 620 55
VStem: -8 341 120 85
LayerCount: 2
Fore
SplineSet
78 500 m 1,0,-1
 379 500 l 1,1,-1
 379 457 l 1,2,-1
 249 457 l 1,3,-1
 249 132 l 2,4,5
 249 84 249 84 265 59 c 128,-1,6
 281 34 281 34 317 22 c 1,7,-1
 304 -13 l 1,8,9
 249 3 249 3 226.5 37.5 c 128,-1,10
 204 72 204 72 204 132 c 2,11,-1
 204 457 l 1,12,-1
 78 457 l 1,13,-1
 78 500 l 1,0,-1
EndSplineSet
EndChar

StartChar: Sigma
Encoding: 931 931 171
Width: 581
Flags: HMW
HStem: 0 80 634 80
VStem: 109 568 118 487
LayerCount: 2
Fore
SplineSet
94 700 m 1,0,-1
 522 700 l 1,1,-1
 507 658 l 1,2,-1
 176 658 l 1,3,-1
 358 386 l 1,4,-1
 153 42 l 1,5,-1
 393 42 l 2,6,7
 485 42 485 42 510 119 c 1,8,-1
 546 106 l 1,9,10
 530 50 530 50 495 25 c 128,-1,11
 460 0 460 0 401 0 c 2,12,-1
 78 0 l 1,13,-1
 304 384 l 1,14,-1
 94 700 l 1,0,-1
EndSplineSet
EndChar

StartChar: sigma
Encoding: 963 963 172
Width: 526
Flags: HMW
HStem: -12 75 461 69 620 55
VStem: 47 90 184 20 208 341 459 90
LayerCount: 2
Fore
SplineSet
78 175 m 2,0,-1
 78 354 l 2,1,2
 78 402 78 402 96.5 435.5 c 128,-1,3
 115 469 115 469 145 484 c 0,4,5
 194.259259259 508.62962963 194.259259259 508.62962963 247.62962963 508.62962963 c 1,6,-1
 286 505 l 1,7,8
 318.625 499.9375 318.625 499.9375 342.28125 499.9375 c 128,-1,9
 365.9375 499.9375 365.9375 499.9375 383 503 c 0,10,11
 422 510 422 510 458 543 c 1,12,-1
 491 530 l 1,13,14
 458 473 458 473 393 461 c 1,15,16
 451 423 451 423 451 310 c 2,17,-1
 451 175 l 2,18,19
 451 -19 451 -19 266 -19 c 0,20,21
 171 -19 171 -19 124.5 32.5 c 128,-1,22
 78 84 78 84 78 175 c 2,0,-1
123 351 m 2,23,-1
 123 168 l 2,24,25
 123 94 123 94 161.5 58 c 128,-1,26
 200 22 200 22 266 22 c 0,27,28
 407 22 407 22 407 168 c 2,29,-1
 407 310 l 2,30,31
 407 357 407 357 390.5 393.5 c 128,-1,32
 374 430 374 430 360.5 443 c 128,-1,33
 347 456 347 456 341 457 c 0,34,35
 290.353535354 467.686868687 290.353535354 467.686868687 251.473421079 467.686868687 c 0,36,37
 123 467.686868687 123 467.686868687 123 351 c 2,23,-1
EndSplineSet
EndChar

StartChar: sigma1
Encoding: 962 962 173
Width: 409
Flags: HMW
HStem: -12 75 454 75
VStem: 88 90
LayerCount: 2
Fore
SplineSet
78 227 m 2,0,-1
 78 367 l 2,1,2
 78 420 78 420 119.5 462.5 c 128,-1,3
 161 505 161 505 250 505 c 0,4,5
 282 505 282 505 310 498.5 c 128,-1,6
 338 492 338 492 350 485 c 2,7,-1
 362 478 l 1,8,-1
 346 441 l 1,9,10
 312 465 312 465 256.5 465 c 128,-1,11
 201 465 201 465 162 440 c 128,-1,12
 123 415 123 415 123 367 c 2,13,-1
 123 240 l 2,14,15
 123 174 123 174 160.5 131.5 c 128,-1,16
 198 89 198 89 305 24 c 0,17,18
 374.113924051 -18.0104244229 374.113924051 -18.0104244229 374.113924051 -90.6756929979 c 0,19,20
 374.113924051 -121.329113924 374.113924051 -121.329113924 357 -147 c 1,21,-1
 322 -125 l 1,22,23
 332.448979592 -111.285714286 332.448979592 -111.285714286 332.448979592 -96.3775510204 c 0,24,25
 332.448979592 -42.2857142857 332.448979592 -42.2857142857 288 -14 c 0,26,27
 279 -8 279 -8 249.5 10.5 c 128,-1,28
 220 29 220 29 210 35.5 c 128,-1,29
 200 42 200 42 176 59 c 128,-1,30
 152 76 152 76 143 86 c 128,-1,31
 134 96 134 96 118 114 c 128,-1,32
 102 132 102 132 95.5 147.5 c 0,33,34
 78 189.230769231 78 189.230769231 78 227 c 2,0,-1
EndSplineSet
EndChar

StartChar: Rho
Encoding: 929 929 174
Width: 547
Flags: HMW
HStem: 0 21G<78 123 78 78> 292 80 634 80 647 53 657 43<123 123 123 324 324 327>
VStem: 70 56 78 21<0 700 700 700> 78 95 123 0<0 0 256 256 300 300 657 657> 325 142 448 56 515 95
LayerCount: 2
Fore
SplineSet
123 657 m 1,0,-1
 123 300 l 1,1,-1
 325 300 l 2,2,3
 365 300 365 300 393 314.5 c 128,-1,4
 421 329 421 329 435 347.5 c 128,-1,5
 449 366 449 366 457 395 c 0,6,7
 467 431.25 467 431.25 467 486 c 0,8,9
 467 569 467 569 431 613 c 128,-1,10
 395 657 395 657 327 657 c 2,11,-1
 123 657 l 1,0,-1
78 700 m 1,12,-1
 324 700 l 2,13,14
 419 700 419 700 465.5 642 c 128,-1,15
 512 584 512 584 512 486 c 0,16,17
 512 363.789473684 512 363.789473684 467 310.5 c 0,18,19
 448 288 448 288 411.5 272 c 128,-1,20
 375 256 375 256 325 256 c 2,21,-1
 123 256 l 1,22,-1
 123 0 l 1,23,-1
 78 0 l 1,24,-1
 78 700 l 1,12,-1
EndSplineSet
EndChar

StartChar: rho
Encoding: 961 961 175
Width: 486
Flags: HMW
HStem: -198 21G<121 121> -12 75 454 63 454 75
VStem: 510 90
LayerCount: 2
Fore
SplineSet
451 306 m 2,0,-1
 451 172 l 2,1,2
 451 83 451 83 403.5 36.5 c 128,-1,3
 356 -10 356 -10 262.5 -10 c 0,4,5
 169 -10 169 -10 121 55 c 1,6,-1
 121 -198 l 1,7,-1
 78 -211 l 1,8,-1
 78 315 l 2,9,10
 78 404 78 404 126.5 455.5 c 128,-1,11
 175 507 175 507 262 507 c 0,12,13
 451 507 451 507 451 306 c 2,0,-1
123 314 m 2,14,-1
 123 166 l 2,15,16
 123 99 123 99 162.5 64.5 c 128,-1,17
 202 30 202 30 264.5 30 c 0,18,19
 327 30 327 30 366.5 62 c 128,-1,20
 406 94 406 94 406 167 c 2,21,-1
 406 310 l 2,22,23
 406 465 406 465 261 465 c 0,24,25
 202 465 202 465 162.5 429.5 c 128,-1,26
 123 394 123 394 123 314 c 2,14,-1
EndSplineSet
EndChar

StartChar: Pi
Encoding: 928 928 176
Width: 588
Flags: HMW
HStem: 0 21G<80 125 80 80 465 510 465 465> 327 80 634 80 694 20G
VStem: 80 45<0 655 0 700> 88 95 249 95 465 45<0 655 655 655>
LayerCount: 2
Fore
SplineSet
80 700 m 1,0,-1
 510 700 l 1,1,-1
 510 0 l 1,2,-1
 465 0 l 1,3,-1
 465 655 l 1,4,-1
 125 655 l 1,5,-1
 125 0 l 1,6,-1
 80 0 l 1,7,-1
 80 700 l 1,0,-1
EndSplineSet
EndChar

StartChar: Omicron
Encoding: 927 927 177
Width: 521
Flags: HMW
HStem: -17 80 32 684<229 315.5> 651 80
VStem: 54 56 62 95 62 376<186 507 507 514 514 566 186 577.5> 107 375<131.5 185 185 506 111.5 514> 181 21 419 55 651 95
LayerCount: 2
Fore
SplineSet
62 185 m 2,0,-1
 62 507 l 2,1,2
 62 610 62 610 118.5 663 c 128,-1,3
 175 716 175 716 274 716 c 128,-1,4
 373 716 373 716 427.5 660 c 128,-1,5
 482 604 482 604 482 506 c 2,6,-1
 482 185 l 2,7,8
 482 84 482 84 420.5 36.5 c 128,-1,9
 359 -11 359 -11 273 -11 c 128,-1,10
 187 -11 187 -11 124.5 36.5 c 128,-1,11
 62 84 62 84 62 185 c 2,0,-1
107 514 m 2,12,-1
 107 185 l 2,13,14
 107 109 107 109 154.5 70.5 c 128,-1,15
 202 32 202 32 273 32 c 0,16,17
 344 32 344 32 391 69.5 c 128,-1,18
 438 107 438 107 438 186 c 2,19,-1
 438 514 l 2,20,21
 438 591 438 591 393.5 632 c 128,-1,22
 349 673 349 673 272 673 c 128,-1,23
 195 673 195 673 151 632 c 128,-1,24
 107 591 107 591 107 514 c 2,12,-1
EndSplineSet
EndChar

StartChar: omicron
Encoding: 959 959 178
Width: 486
Flags: HMW
HStem: -12 75 -10 40<218.5 313.5 218.5 332> 454 75 471 41<225 305>
VStem: 78 45<184 316 316 317> 78 90 406 45<177 184 184 316> 490 90
LayerCount: 2
Fore
SplineSet
78 184 m 2,0,-1
 78 316 l 2,1,2
 78 411 78 411 126.5 461.5 c 128,-1,3
 175 512 175 512 264 512 c 0,4,5
 353 512 353 512 402 459.5 c 128,-1,6
 451 407 451 407 451 316 c 2,7,-1
 451 184 l 2,8,9
 451 100 451 100 405 45 c 128,-1,10
 359 -10 359 -10 266 -10 c 128,-1,11
 173 -10 173 -10 125.5 45.5 c 128,-1,12
 78 101 78 101 78 184 c 2,0,-1
123 317 m 2,13,-1
 123 177 l 2,14,15
 123 113 123 113 160.5 71.5 c 128,-1,16
 198 30 198 30 266 30 c 128,-1,17
 334 30 334 30 370 71 c 128,-1,18
 406 112 406 112 406 177 c 2,19,-1
 406 317 l 2,20,21
 406 395 406 395 367.5 433 c 128,-1,22
 329 471 329 471 265 471 c 0,23,24
 201 471 201 471 162 433.5 c 128,-1,25
 123 396 123 396 123 317 c 2,13,-1
EndSplineSet
EndChar

StartChar: xi
Encoding: 958 958 179
Width: 415
Flags: HMW
VStem: 78 21<164 348 348 397.5>
LayerCount: 2
Fore
SplineSet
225 514 m 1,0,1
 183.027027027 547.578378378 183.027027027 547.578378378 183.027027027 602.682249817 c 0,2,3
 183.027027027 640 183.027027027 640 211.513513514 674 c 128,-1,4
 240 708 240 708 301 708 c 2,5,-1
 345 708 l 1,6,-1
 327 667 l 1,7,-1
 293 667 l 2,8,9
 256 667 256 667 239 638.5 c 0,10,11
 229.034482759 621.793103448 229.034482759 621.793103448 229.034482759 605.49137931 c 0,12,13
 229.034482759 547.036297641 229.034482759 547.036297641 284 521 c 0,14,15
 305 512 305 512 358 494 c 1,16,-1
 345 457 l 1,17,18
 304.304347826 471.695652174 304.304347826 471.695652174 266.934782609 471.695652174 c 128,-1,19
 229.565217391 471.695652174 229.565217391 471.695652174 197.782608696 462.347826087 c 128,-1,20
 166 453 166 453 144 422.5 c 128,-1,21
 122 392 122 392 122 345 c 2,22,-1
 122 159 l 2,23,24
 122 113 122 113 145.5 84 c 128,-1,25
 169 55 169 55 202.47826087 47.6086956522 c 128,-1,26
 235.956521739 40.2173913043 235.956521739 40.2173913043 277.640468227 40.2173913043 c 128,-1,27
 319.324414716 40.2173913043 319.324414716 40.2173913043 380 57 c 1,28,-1
 380 -197 l 1,29,-1
 336 -218 l 1,30,-1
 336 3 l 1,31,32
 298.660869565 -3.27826086957 298.660869565 -3.27826086957 265.743818526 -3.27826086957 c 0,33,34
 199.043478261 -3.27826086957 199.043478261 -3.27826086957 150.5 22.5 c 0,35,36
 78 61 78 61 78 164 c 2,37,-1
 78 348 l 2,38,39
 78 419 78 419 121.5 463.5 c 128,-1,40
 165 508 165 508 225 514 c 1,0,1
EndSplineSet
EndChar

StartChar: Xi
Encoding: 926 926 180
Width: 622
Flags: HMW
HStem: 0 80 42 0<134 134 442 442> 582 76 634 80 817 55
VStem: 109 568 165 56 442 121
LayerCount: 2
Fore
SplineSet
205 413 m 1,0,-1
 469 413 l 1,1,-1
 469 369 l 1,2,-1
 205 369 l 1,3,-1
 205 413 l 1,0,-1
223 700 m 2,4,-1
 548 700 l 1,5,-1
 531 658 l 1,6,-1
 223 658 l 2,7,8
 139 658 139 658 113 582 c 1,9,-1
 78 595 l 1,10,11
 94 651 94 651 129 675.5 c 128,-1,12
 164 700 164 700 223 700 c 2,4,-1
134 42 m 1,13,-1
 442 42 l 2,14,15
 525 42 525 42 551 119 c 1,16,-1
 587 106 l 1,17,18
 571 50 571 50 536 25 c 128,-1,19
 501 0 501 0 442 0 c 2,20,-1
 117 0 l 1,21,-1
 134 42 l 1,13,-1
EndSplineSet
EndChar

StartChar: Nu
Encoding: 925 925 181
Width: 641
Flags: HMW
HStem: 0 82<528 572 528 528> 0 135 573 141 597 103 619 81<80 125>
VStem: 36 20 80 45<0 619 0 700> 81 90 528 44<0 700 82 700 0 700> 560 90
LayerCount: 2
Fore
SplineSet
80 700 m 1,0,-1
 125 700 l 1,1,-1
 528 82 l 1,2,-1
 528 700 l 1,3,-1
 572 700 l 1,4,-1
 572 0 l 1,5,-1
 528 0 l 1,6,-1
 125 619 l 1,7,-1
 125 0 l 1,8,-1
 80 0 l 1,9,-1
 80 700 l 1,0,-1
EndSplineSet
EndChar

StartChar: nu
Encoding: 957 957 182
Width: 498
Flags: HMW
HStem: -20 20G<241 299 241 241> 0 21G<241 299 241 241> 0 86 497 20G
VStem: 74 472 78 385<501 501> 265 21
LayerCount: 2
Fore
SplineSet
78 501 m 1,0,-1
 125 501 l 1,1,-1
 270 52 l 1,2,-1
 416 501 l 1,3,-1
 463 501 l 1,4,-1
 299 0 l 1,5,-1
 241 0 l 1,6,-1
 78 501 l 1,0,-1
EndSplineSet
EndChar

StartChar: Mu
Encoding: 924 924 183
Width: 695
Flags: HMW
HStem: 0 69<347 347 347 371 323 347> 0 114 569 131<80 125> 594 120
VStem: -45 20 72 56 80 45<0 569 0 700> 80 90 552 56 571 45<0 569 569 569 0 700> 694 90
LayerCount: 2
Fore
SplineSet
80 700 m 1,0,-1
 125 700 l 1,1,-1
 347 69 l 1,2,-1
 571 700 l 1,3,-1
 616 700 l 1,4,-1
 616 0 l 1,5,-1
 571 0 l 1,6,-1
 571 569 l 1,7,-1
 371 0 l 1,8,-1
 323 0 l 1,9,-1
 125 569 l 1,10,-1
 125 0 l 1,11,-1
 80 0 l 1,12,-1
 80 700 l 1,0,-1
EndSplineSet
EndChar

StartChar: Lambda
Encoding: 923 923 184
Width: 533
Flags: HMW
HStem: 0 95 694 20G
VStem: -1 614 59 410<0 0>
LayerCount: 2
Fore
SplineSet
241 700 m 1,0,-1
 284 700 l 1,1,-1
 517 0 l 1,2,-1
 469 0 l 1,3,-1
 262 630 l 1,4,-1
 59 0 l 1,5,-1
 12 0 l 1,6,-1
 241 700 l 1,0,-1
EndSplineSet
EndChar

StartChar: lambda
Encoding: 955 955 185
Width: 576
Flags: HMW
HStem: -207 75 -198 21G 497 20G
VStem: 79 484
LayerCount: 2
Fore
SplineSet
164 664 m 1,0,-1
 164 700 l 1,1,2
 166.392156863 700.039215686 166.392156863 700.039215686 168.741253364 700.039215686 c 0,3,4
 226.294117647 700.039215686 226.294117647 700.039215686 258.647058824 676.019607843 c 128,-1,5
 291 652 291 652 311 593 c 1,6,-1
 453 124 l 1,7,8
 473.555555556 66.4444444444 473.555555556 66.4444444444 491 49 c 0,9,10
 497 43 497 43 500 39.5 c 128,-1,11
 503 36 503 36 510.5 32 c 128,-1,12
 518 28 518 28 520 26.5 c 128,-1,13
 522 25 522 25 530.5 21 c 128,-1,14
 539 17 539 17 541 16 c 1,15,-1
 511 -10 l 1,16,17
 468 3 468 3 448.5 32 c 128,-1,18
 429 61 429 61 412 114 c 2,19,-1
 306 466 l 1,20,21
 272 448 272 448 256.5 424.5 c 128,-1,22
 241 401 241 401 230 361 c 2,23,-1
 124 0 l 1,24,-1
 78 0 l 1,25,-1
 186 372 l 2,26,27
 198.416184971 411.317919075 198.416184971 411.317919075 210.208092486 428.658959538 c 128,-1,28
 222 446 222 446 227 453.5 c 128,-1,29
 232 461 232 461 243 470.5 c 128,-1,30
 254 480 254 480 257.5 483 c 0,31,32
 266.25 490.5 266.25 490.5 291 507 c 1,33,-1
 269 578 l 1,34,35
 242 661 242 661 164 664 c 1,0,-1
EndSplineSet
EndChar

StartChar: kappa
Encoding: 954 954 186
Width: 482
Flags: HMW
HStem: 497 20G 694 20G
VStem: 83 85
LayerCount: 2
Fore
SplineSet
78 512 m 1,0,-1
 123 501 l 1,1,-1
 123 253 l 1,2,-1
 350 501 l 1,3,-1
 410 501 l 1,4,-1
 221 295 l 1,5,-1
 348 116 l 1,6,7
 405 39 405 39 446 39 c 1,8,-1
 448 -1 l 1,9,10
 404 0 404 0 372 27 c 128,-1,11
 340 54 340 54 302 106 c 2,12,-1
 190 261 l 1,13,-1
 123 192 l 1,14,-1
 123 0 l 1,15,-1
 78 0 l 1,16,-1
 78 512 l 1,0,-1
EndSplineSet
EndChar

StartChar: Kappa
Encoding: 922 922 187
Width: 510
Flags: HMW
HStem: 0 21G<78 123 78 78 422 475 422 422> 694 20G
VStem: 70 56 77 95 78 45<0 272 349 701>
LayerCount: 2
Fore
SplineSet
78 701 m 1,0,-1
 123 701 l 1,1,-1
 123 349 l 1,2,-1
 371 701 l 1,3,-1
 423 701 l 1,4,-1
 214 404 l 1,5,-1
 475 0 l 1,6,-1
 422 0 l 1,7,-1
 186 362 l 1,8,-1
 123 272 l 1,9,-1
 123 0 l 1,10,-1
 78 0 l 1,11,-1
 78 701 l 1,0,-1
EndSplineSet
EndChar

StartChar: Iota
Encoding: 921 921 188
Width: 299
Flags: HMW
HStem: 0 21G<152 197 152 152> 694 20G
VStem: 152 45<0 658 658 658> 162 95 289 20
LayerCount: 2
Fore
SplineSet
80 700 m 1,0,-1
 197 700 l 1,1,-1
 197 0 l 1,2,-1
 152 0 l 1,3,-1
 152 658 l 1,4,-1
 80 660 l 1,5,-1
 80 700 l 1,0,-1
EndSplineSet
EndChar

StartChar: iota
Encoding: 953 953 189
Width: 141
Flags: HMW
HStem: 0 21G<54 99 54 54> 497 20G 610 104
VStem: 54 45<0 501 0 501> 58 85
LayerCount: 2
Fore
SplineSet
54 501 m 1,0,-1
 99 501 l 1,1,-1
 99 0 l 1,2,-1
 54 0 l 1,3,-1
 54 501 l 1,0,-1
EndSplineSet
EndChar

StartChar: theta
Encoding: 952 952 190
Width: 481
Flags: HMW
HStem: -12 75 634 75
VStem: 42 90 107 341 424 90
LayerCount: 2
Fore
SplineSet
62 191 m 2,0,-1
 62 334 l 1,1,2
 64 400 64 400 116 437 c 1,3,4
 81.8947368421 503.315789474 81.8947368421 503.315789474 81.8947368421 561.105263158 c 0,5,6
 81.8947368421 626.102949682 81.8947368421 626.102949682 128.447368421 668.051474841 c 128,-1,7
 175 710 175 710 250 710 c 1,8,9
 345 708 345 708 393.5 654 c 128,-1,10
 442 600 442 600 442 505 c 2,11,-1
 442 191 l 2,12,13
 442 102 442 102 392.5 48 c 128,-1,14
 343 -6 343 -6 251.5 -5.5 c 128,-1,15
 160 -5 160 -5 111 48.5 c 128,-1,16
 62 102 62 102 62 191 c 2,0,-1
107 334 m 2,17,-1
 107 188 l 2,18,19
 107 117 107 117 148 77 c 128,-1,20
 189 37 189 37 251.5 37 c 128,-1,21
 314 37 314 37 355.5 77.5 c 128,-1,22
 397 118 397 118 397 185 c 2,23,-1
 397 462 l 1,24,25
 385 463 385 463 365 463 c 128,-1,26
 345 463 345 463 305 458 c 128,-1,27
 265 453 265 453 218 438.5 c 128,-1,28
 171 424 171 424 139 396.5 c 128,-1,29
 107 369 107 369 107 334 c 2,17,-1
156 458 m 1,30,31
 243.919911012 507.032258065 243.919911012 507.032258065 368.229968783 507.032258065 c 0,32,33
 383.064516129 507.032258065 383.064516129 507.032258065 397 506 c 1,34,35
 397 589 397 589 356.5 628 c 128,-1,36
 316 667 316 667 251 667 c 0,37,38
 206 667 206 667 176.5 648.5 c 0,39,40
 129.15 618.805932203 129.15 618.805932203 129.15 554.57 c 0,41,42
 129.15 506.585714286 129.15 506.585714286 156 458 c 1,30,31
EndSplineSet
EndChar

StartChar: Theta
Encoding: 920 920 191
Width: 533
Flags: HMW
HStem: -17 80 32 684<245 331.5> 238 80 651 80
VStem: 77 379 78 95 78 376<186 316 361 507 507 514 514 566 186 577.5> 123 375<131.5 185 185 316 361 506 111.5 514 361 361> 197 21 435 55 667 95
LayerCount: 2
Fore
SplineSet
78 185 m 2,0,-1
 78 507 l 2,1,2
 78 610 78 610 134.5 663 c 128,-1,3
 191 716 191 716 290 716 c 128,-1,4
 389 716 389 716 443.5 660 c 128,-1,5
 498 604 498 604 498 506 c 2,6,-1
 498 185 l 2,7,8
 498 84 498 84 436.5 36.5 c 128,-1,9
 375 -11 375 -11 289 -11 c 128,-1,10
 203 -11 203 -11 140.5 36.5 c 128,-1,11
 78 84 78 84 78 185 c 2,0,-1
123 514 m 2,12,-1
 123 361 l 1,13,-1
 454 361 l 1,14,-1
 454 514 l 2,15,16
 454 591 454 591 409.5 632 c 128,-1,17
 365 673 365 673 288 673 c 128,-1,18
 211 673 211 673 167 632 c 128,-1,19
 123 591 123 591 123 514 c 2,12,-1
170.5 70.5 m 128,-1,21
 218 32 218 32 289 32 c 128,-1,22
 360 32 360 32 407 69.5 c 128,-1,23
 454 107 454 107 454 186 c 2,24,-1
 454 316 l 1,25,-1
 123 316 l 1,26,-1
 123 185 l 2,27,20
 123 109 123 109 170.5 70.5 c 128,-1,21
EndSplineSet
EndChar

StartChar: Eta
Encoding: 919 919 192
Width: 576
Flags: HMW
HStem: 0 21G<80 125 80 80 465 510 465 465> 327 80 694 20G
VStem: 72 56 80 45<0 369 413 700> 80 95 446 56 465 45<0 369 369 369 413 700 0 700> 551 95
LayerCount: 2
Fore
SplineSet
80 700 m 1,0,-1
 125 700 l 1,1,-1
 125 413 l 1,2,-1
 465 413 l 1,3,-1
 465 700 l 1,4,-1
 510 700 l 1,5,-1
 510 0 l 1,6,-1
 465 0 l 1,7,-1
 465 369 l 1,8,-1
 125 369 l 1,9,-1
 125 0 l 1,10,-1
 80 0 l 1,11,-1
 80 700 l 1,0,-1
EndSplineSet
EndChar

StartChar: eta
Encoding: 951 951 193
Width: 482
Flags: HMW
HStem: 0 21G<78 123 78 78> 454 75 497 20G
VStem: 78 85 421 85
LayerCount: 2
Fore
SplineSet
264.262688615 467.851851852 m 0,0,1
 185.625925926 467.851851852 185.625925926 467.851851852 123 434 c 1,2,-1
 123 0 l 1,3,-1
 78 0 l 1,4,-1
 78 501 l 1,5,-1
 123 501 l 1,6,-1
 123 474 l 1,7,8
 179.378181818 509.236363636 179.378181818 509.236363636 265.894214876 509.236363636 c 0,9,10
 322.690909091 509.236363636 322.690909091 509.236363636 362 490 c 1,11,12
 447 451 447 451 447 346 c 2,13,-1
 447 -211 l 1,14,-1
 403 -191 l 1,15,-1
 403 344 l 2,16,17
 403 398 403 398 372.5 429.5 c 128,-1,18
 342 461 342 461 297.5 466 c 0,19,20
 281.018518519 467.851851852 281.018518519 467.851851852 264.262688615 467.851851852 c 0,0,1
EndSplineSet
EndChar

StartChar: zeta
Encoding: 950 950 194
Width: 466
Flags: HMW
VStem: -158 21
LayerCount: 2
Fore
SplineSet
146 700 m 1,0,-1
 418 700 l 1,1,-1
 431 660 l 1,2,3
 372 613 372 613 297.5 528 c 0,4,5
 124.2 330.275167785 124.2 330.275167785 124.2 184.425 c 0,6,7
 124.2 111.825 124.2 111.825 164.57706422 76.7794724771 c 128,-1,8
 204.95412844 41.7339449541 204.95412844 41.7339449541 269.110091743 41.7339449541 c 128,-1,9
 333.266055046 41.7339449541 333.266055046 41.7339449541 407 62 c 1,10,-1
 407 -188 l 1,11,-1
 362 -209 l 1,12,-1
 362 9 l 1,13,14
 312.637037037 -2.61481481481 312.637037037 -2.61481481481 262.366666667 -2.61481481481 c 128,-1,15
 212.096296296 -2.61481481481 212.096296296 -2.61481481481 168.5 20.5 c 0,16,17
 78.0303030303 68.4671547692 78.0303030303 68.4671547692 78.0303030303 177.313131313 c 0,18,19
 78.0303030303 260.634920635 78.0303030303 260.634920635 114 336 c 0,20,21
 188 491 188 491 366 661 c 1,22,-1
 146 661 l 1,23,-1
 146 700 l 1,0,-1
EndSplineSet
EndChar

StartChar: Zeta
Encoding: 918 918 195
Width: 600
Flags: HMW
HStem: 0 80 634 80
VStem: 69 568 78 487<0 41 0 41>
LayerCount: 2
Fore
SplineSet
91 700 m 1,0,-1
 559 700 l 1,1,-1
 559 659 l 1,2,-1
 135 41 l 1,3,-1
 565 41 l 1,4,-1
 565 0 l 1,5,-1
 78 0 l 1,6,-1
 78 41 l 1,7,-1
 502 659 l 1,8,-1
 91 659 l 1,9,-1
 91 700 l 1,0,-1
EndSplineSet
EndChar

StartChar: Epsilon
Encoding: 917 917 196
Width: 447
Flags: HMW
HStem: 0 41<123 410 123 410> 0 80 327 80 634 80 658 42<123 412 123 123>
VStem: 78 45<41 369 413 658> 78 95
LayerCount: 2
Fore
SplineSet
78 700 m 1,0,-1
 412 700 l 1,1,-1
 412 658 l 1,2,-1
 123 658 l 1,3,-1
 123 413 l 1,4,-1
 325 413 l 1,5,-1
 310 369 l 1,6,-1
 123 369 l 1,7,-1
 123 41 l 1,8,-1
 410 41 l 1,9,-1
 410 0 l 1,10,-1
 78 0 l 1,11,-1
 78 700 l 1,0,-1
EndSplineSet
EndChar

StartChar: epsilon
Encoding: 949 949 197
Width: 458
Flags: HMW
HStem: -12 75 336 68 634 75
VStem: 68 85 83 85 428 90
LayerCount: 2
Fore
SplineSet
98.5306122449 385.758433986 m 0,0,1
 98.5306122449 451.013605442 98.5306122449 451.013605442 150.736842105 484.01754386 c 0,2,3
 193.473684211 511.035087719 193.473684211 511.035087719 245.314536341 511.035087719 c 128,-1,4
 297.155388471 511.035087719 297.155388471 511.035087719 353 496 c 1,5,-1
 353 454 l 1,6,7
 309.409375 469.03125 309.409375 469.03125 275.5953125 469.03125 c 128,-1,8
 241.78125 469.03125 241.78125 469.03125 216.390625 465.515625 c 128,-1,9
 191 462 191 462 168.5 442.5 c 0,10,11
 144.822222222 421.979259259 144.822222222 421.979259259 144.822222222 388.245185185 c 128,-1,12
 144.822222222 354.511111111 144.822222222 354.511111111 164.411111111 327.755555556 c 128,-1,13
 184 301 184 301 225 301 c 2,14,-1
 352 301 l 1,15,-1
 337 257 l 1,16,-1
 235 257 l 2,17,18
 186 257 186 257 154.5 229 c 128,-1,19
 123 201 123 201 123 147.5 c 128,-1,20
 123 94 123 94 158 63 c 128,-1,21
 193 32 193 32 257 32 c 0,22,23
 293 32 293 32 331.5 40 c 128,-1,24
 370 48 370 48 390 56.5 c 2,25,-1
 410 65 l 1,26,-1
 423 24 l 1,27,28
 345 -10 345 -10 260.5 -10 c 128,-1,29
 176 -10 176 -10 130 30.5 c 0,30,31
 78.3333333333 75.9891304348 78.3333333333 75.9891304348 78.3333333333 150.756944444 c 0,32,33
 78.3333333333 250.75 78.3333333333 250.75 159 281 c 1,34,35
 131 291 131 291 114.765306122 323.030612245 c 128,-1,36
 98.5306122449 355.06122449 98.5306122449 355.06122449 98.5306122449 385.758433986 c 0,0,1
EndSplineSet
EndChar

StartChar: delta
Encoding: 948 948 198
Width: 486
Flags: HMW
HStem: -12 75 817 55
VStem: 47 90 127 341 459 90
LayerCount: 2
Fore
SplineSet
220 505 m 1,0,1
 175.693333333 543.476842105 175.693333333 543.476842105 175.693333333 599.185955556 c 0,2,3
 175.693333333 638.28 175.693333333 638.28 205.346666667 671.64 c 128,-1,4
 235 705 235 705 294 705 c 2,5,-1
 338 705 l 1,6,-1
 320 664 l 1,7,-1
 287 664 l 2,8,9
 252 664 252 664 234 638.5 c 0,10,11
 222.218181818 621.809090909 222.218181818 621.809090909 222.218181818 605.95 c 0,12,13
 222.218181818 550.6 222.218181818 550.6 272 521 c 1,14,15
 388.164556962 447.632911392 388.164556962 447.632911392 417.5 402 c 0,16,17
 451 349.888888889 451 349.888888889 451 287 c 2,18,-1
 451 184 l 2,19,20
 451 -10 451 -10 266 -10 c 0,21,22
 171 -10 171 -10 124.5 41.5 c 128,-1,23
 78 93 78 93 78 184 c 2,24,-1
 78 310 l 2,25,26
 78 390 78 390 115.5 440.5 c 128,-1,27
 153 491 153 491 220 505 c 1,0,1
123 310 m 2,28,-1
 123 177 l 2,29,30
 123 102 123 102 163 66.5 c 128,-1,31
 203 31 203 31 266 31 c 0,32,33
 406 31 406 31 406 177 c 2,34,-1
 406 301 l 2,35,36
 406 343 406 343 371 391 c 128,-1,37
 336 439 336 439 266 472 c 1,38,39
 200 466 200 466 161.5 426 c 128,-1,40
 123 386 123 386 123 310 c 2,28,-1
EndSplineSet
EndChar

StartChar: _196
Encoding: 65540 -1 199
Width: 618
Flags: HMW
HStem: 0 21G<78 583 78 78> 0 65 245 55 622 91
VStem: 97 586 137 386 317 21
LayerCount: 2
Fore
SplineSet
307 700 m 1,0,-1
 350 700 l 1,1,-1
 583 0 l 1,2,-1
 78 0 l 1,3,-1
 307 700 l 1,0,-1
328 631 m 1,4,-1
 138 41 l 1,5,-1
 522 41 l 1,6,-1
 328 631 l 1,4,-1
EndSplineSet
EndChar

StartChar: Gamma
Encoding: 915 915 200
Width: 447
Flags: HMW
HStem: 0 21G<78 123 78 78> 327 80 634 80
VStem: 79 95
LayerCount: 2
Fore
SplineSet
78 700 m 1,0,-1
 412 700 l 1,1,-1
 412 657 l 1,2,-1
 123 657 l 1,3,-1
 123 0 l 1,4,-1
 78 0 l 1,5,-1
 78 700 l 1,0,-1
EndSplineSet
EndChar

StartChar: gamma
Encoding: 947 947 201
Width: 516
Flags: HMW
HStem: 0 21G 0 86 497 20G
VStem: 14 472 207 85
LayerCount: 2
Fore
SplineSet
21 501 m 1,0,-1
 67 501 l 1,1,-1
 173 140 l 2,2,3
 186 94 186 94 203 69.5 c 128,-1,4
 220 45 220 45 249 36 c 1,5,-1
 355 388 l 2,6,7
 371 440 371 440 391 469 c 128,-1,8
 411 498 411 498 452 511 c 1,9,-1
 483 484 l 1,10,11
 447.594886704 466.833884462 447.594886704 466.833884462 430.987056212 448.668897611 c 128,-1,12
 414.379225721 430.503910759 414.379225721 430.503910759 396 376 c 1,13,-1
 271 -42 l 1,14,15
 248.75 -107.6375 248.75 -107.6375 248.75 -131.06875 c 128,-1,16
 248.75 -154.5 248.75 -154.5 261 -172 c 1,17,-1
 230 -198 l 1,18,19
 201.875 -171.125 201.875 -171.125 201.875 -130.96875 c 0,20,21
 201.875 -106.875 201.875 -106.875 212 -78 c 1,22,-1
 234 -5 l 1,23,24
 206 10 206 10 194 18.5 c 128,-1,25
 182 27 182 27 162.5 55.5 c 128,-1,26
 143 84 143 84 129 129 c 2,27,-1
 21 501 l 1,0,-1
EndSplineSet
EndChar

StartChar: beta
Encoding: 946 946 202
Width: 483
Flags: HMW
HStem: -12 75 -9 21G<123 123> 359 68 656 75
VStem: 101 85 416 90 448 90
LayerCount: 2
Fore
SplineSet
112.5 657.5 m 128,-1,1
 147 701 147 701 211 701 c 128,-1,2
 275 701 275 701 308.554794521 663.554794521 c 128,-1,3
 342.109589041 626.109589041 342.109589041 626.109589041 342.109589041 576.387527037 c 128,-1,4
 342.109589041 526.665465032 342.109589041 526.665465032 302 495 c 1,5,6
 367 487 367 487 407.5 442.5 c 128,-1,7
 448 398 448 398 448 330 c 2,8,-1
 448 146 l 2,9,10
 448 -19 448 -19 230.5 -19 c 0,11,12
 180 -19 180 -19 123 -9 c 1,13,-1
 123 -161 l 1,14,-1
 78 -161 l 1,15,-1
 78 537 l 2,16,0
 78 614 78 614 112.5 657.5 c 128,-1,1
265.6112 454.28 m 0,17,18
 184.973333333 454.28 184.973333333 454.28 124 422 c 1,19,-1
 124 32 l 1,20,21
 181.72 20.9 181.72 20.9 226.535 20.9 c 128,-1,22
 271.35 20.9 271.35 20.9 312.675 29.45 c 128,-1,23
 354 38 354 38 379 67 c 128,-1,24
 404 96 404 96 404 143 c 2,25,-1
 404 327 l 2,26,27
 404 385 404 385 372.5 417 c 128,-1,28
 341 449 341 449 295 453 c 0,29,30
 280.28 454.28 280.28 454.28 265.6112 454.28 c 0,17,18
124 538 m 2,31,-1
 124 463 l 1,32,33
 164 484 164 484 247 507 c 0,34,35
 282 517 282 517 292 554 c 0,36,37
 295.225806452 565.935483871 295.225806452 565.935483871 295.225806452 583.790322581 c 128,-1,38
 295.225806452 601.64516129 295.225806452 601.64516129 281 624 c 0,39,40
 260 657 260 657 218 657 c 0,41,42
 124 657 124 657 124 538 c 2,31,-1
EndSplineSet
EndChar

StartChar: Beta
Encoding: 914 914 203
Width: 546
Flags: HMW
HStem: 0 80 53 305 327 80 369 0<123 123 319 319> 379 21G 413 234 634 80 657 0<123 123 291 291>
VStem: 78 45<43 369 413 657> 78 95 291 184 319 192<161.5 369> 515 95
LayerCount: 2
Fore
SplineSet
78 700 m 1,0,-1
 299 700 l 2,1,2
 381 700 381 700 428.010309278 657.93814433 c 128,-1,3
 475.020618557 615.87628866 475.020618557 615.87628866 475.020618557 528.044329897 c 128,-1,4
 475.020618557 440.212371134 475.020618557 440.212371134 403 397 c 0,5,6
 402 396 402 396 402 395 c 2,7,-1
 402 394 l 1,8,9
 449 374 449 374 480 328.5 c 128,-1,10
 511 283 511 283 511 209 c 0,11,12
 511 128.837209302 511 128.837209302 470.5 69.5 c 0,13,14
 449 38 449 38 407.5 19 c 128,-1,15
 366 0 366 0 308 0 c 2,16,-1
 78 0 l 1,17,-1
 78 700 l 1,0,-1
123 657 m 1,18,-1
 123 413 l 1,19,-1
 308 413 l 2,20,21
 361 413 361 413 395.012987013 443.967047877 c 128,-1,22
 429.025974026 474.934095755 429.025974026 474.934095755 429.025974026 536.356658267 c 128,-1,23
 429.025974026 597.779220779 429.025974026 597.779220779 392.012987013 627.38961039 c 128,-1,24
 355 657 355 657 291 657 c 2,25,-1
 123 657 l 1,18,-1
123 369 m 1,26,-1
 123 43 l 1,27,-1
 306 43 l 2,28,29
 463 43 463 43 463 213 c 0,30,31
 463 285 463 285 422 327 c 128,-1,32
 381 369 381 369 319 369 c 2,33,-1
 123 369 l 1,26,-1
EndSplineSet
EndChar

StartChar: Alpha
Encoding: 913 913 204
Width: 539
Flags: HMW
HStem: 0 21G<12 59 12 12 469 517 469 469> 215 80 245 55 607 20G<263 263> 628 86
VStem: -7 663 59 410<0 0>
LayerCount: 2
Fore
SplineSet
242 700 m 1,0,-1
 284 700 l 1,1,-1
 517 0 l 1,2,-1
 469 0 l 1,3,-1
 383 256 l 1,4,-1
 143 256 l 1,5,-1
 59 0 l 1,6,-1
 12 0 l 1,7,-1
 242 700 l 1,0,-1
263 627 m 1,8,-1
 157 300 l 1,9,-1
 371 300 l 1,10,-1
 263 627 l 1,8,-1
EndSplineSet
EndChar

StartChar: alpha
Encoding: 945 945 205
Width: 505
Flags: HMW
HStem: -198 21G -12 75 454 63 454 75
VStem: 76 90 481 85
LayerCount: 2
Fore
SplineSet
222.991155047 506.806451613 m 0,0,1
 312.139354839 506.806451613 312.139354839 506.806451613 398 463 c 1,2,-1
 414 503 l 1,3,-1
 450 486 l 1,4,5
 443 431 443 431 443 399 c 2,6,-1
 443 61 l 1,7,8
 449 40 449 40 470 28 c 1,9,-1
 449 2 l 1,10,11
 446 2 446 2 433 3.5 c 128,-1,12
 420 5 420 5 375.778183959 0.729204746165 c 128,-1,13
 331.556367918 -3.54159050767 331.556367918 -3.54159050767 282.222519766 -3.54159050767 c 128,-1,14
 232.888671614 -3.54159050767 232.888671614 -3.54159050767 206.200556827 1.57705120255 c 0,15,16
 78 26.1652517064 78 26.1652517064 78 169 c 2,17,-1
 78 354 l 2,18,19
 78 424 78 424 110.5 462.5 c 128,-1,20
 143 501 143 501 193.5 505.5 c 0,21,22
 208.161290323 506.806451613 208.161290323 506.806451613 222.991155047 506.806451613 c 0,0,1
398 421 m 1,23,24
 298.867488444 465.508474576 298.867488444 465.508474576 216.513645504 465.508474576 c 0,25,26
 173.559322034 465.508474576 173.559322034 465.508474576 147.779661017 436.754237288 c 128,-1,27
 122 408 122 408 122 351 c 2,28,-1
 122 162 l 2,29,30
 122 40.2113821138 122 40.2113821138 251.5 36 c 0,31,32
 261.75 35.6666666667 261.75 35.6666666667 294.458333333 35.6666666667 c 128,-1,33
 327.166666667 35.6666666667 327.166666667 35.6666666667 398 44 c 1,34,-1
 398 421 l 1,23,24
EndSplineSet
EndChar

StartChar: upsilondieresistonos
Encoding: 944 944 206
Width: 493
Flags: HMW
HStem: -12 75 497 20G 579 111 617 143
VStem: 64 82 164 55<599.5 614.5> 254 109 323 55<599.5 614.5> 405 85
LayerCount: 2
Fore
SplineSet
78 501 m 1,0,-1
 123 501 l 1,1,-1
 123 165 l 2,2,3
 123 31 123 31 268 31 c 128,-1,4
 413 31 413 31 413 165 c 2,5,-1
 413 501 l 1,6,-1
 458 501 l 1,7,-1
 458 172 l 2,8,9
 458 -10 458 -10 268 -10 c 128,-1,10
 78 -10 78 -10 78 172 c 2,11,-1
 78 501 l 1,0,-1
250 617 m 1,12,-1
 302 738 l 2,13,14
 311 758.25 311 758.25 328.4375 758.25 c 0,15,16
 352.37962963 758.25 352.37962963 758.25 357.5 738.5 c 0,17,18
 361 725 361 725 354 715 c 2,19,-1
 286 617 l 1,20,-1
 250 617 l 1,12,-1
191 634 m 128,-1,22
 202 634 202 634 210.5 626 c 128,-1,23
 219 618 219 618 219 607 c 128,-1,24
 219 596 219 596 210.5 587.5 c 128,-1,25
 202 579 202 579 191 579 c 128,-1,26
 180 579 180 579 172 587.5 c 128,-1,27
 164 596 164 596 164 607 c 128,-1,28
 164 618 164 618 172 626 c 128,-1,21
 180 634 180 634 191 634 c 128,-1,22
350 634 m 128,-1,30
 361 634 361 634 369.5 626 c 128,-1,31
 378 618 378 618 378 607 c 128,-1,32
 378 596 378 596 369.5 587.5 c 128,-1,33
 361 579 361 579 350 579 c 128,-1,34
 339 579 339 579 331 587.5 c 128,-1,35
 323 596 323 596 323 607 c 128,-1,36
 323 618 323 618 331 626 c 128,-1,29
 339 634 339 634 350 634 c 128,-1,30
EndSplineSet
EndChar

StartChar: iotadieresistonos
Encoding: 912 912 207
Width: 251
Flags: HMW
HStem: 0 21G<95 140 95 95> 497 20G 579 143 610 104 616 143
VStem: 15 55<599.5 614.5> 81 85 95 45<0 501 0 501> 173 55<599.5 614.5>
LayerCount: 2
Fore
SplineSet
95 501 m 1,0,-1
 140 501 l 1,1,-1
 140 0 l 1,2,-1
 95 0 l 1,3,-1
 95 501 l 1,0,-1
96 616 m 1,4,-1
 148 737 l 2,5,6
 157 757.25 157 757.25 174.4375 757.25 c 0,7,8
 198.37962963 757.25 198.37962963 757.25 203.5 737.5 c 0,9,10
 207 724 207 724 200 714 c 2,11,-1
 132 616 l 1,12,-1
 96 616 l 1,4,-1
42 634 m 128,-1,14
 53 634 53 634 61.5 626 c 128,-1,15
 70 618 70 618 70 607 c 128,-1,16
 70 596 70 596 61.5 587.5 c 128,-1,17
 53 579 53 579 42 579 c 128,-1,18
 31 579 31 579 23 587.5 c 128,-1,19
 15 596 15 596 15 607 c 128,-1,20
 15 618 15 618 23 626 c 128,-1,13
 31 634 31 634 42 634 c 128,-1,14
200 634 m 128,-1,22
 211 634 211 634 219.5 626 c 128,-1,23
 228 618 228 618 228 607 c 128,-1,24
 228 596 228 596 219.5 587.5 c 128,-1,25
 211 579 211 579 200 579 c 128,-1,26
 189 579 189 579 181 587.5 c 128,-1,27
 173 596 173 596 173 607 c 128,-1,28
 173 618 173 618 181 626 c 128,-1,21
 189 634 189 634 200 634 c 128,-1,22
EndSplineSet
EndChar

StartChar: Alphatonos
Encoding: 902 902 208
Width: 618
Flags: HMW
HStem: 0 21G<78 125 78 78 535 583 535 535> 245 55 568 143 569 143 607 20G<329 329>
VStem: 125 410<0 0> 137 386
LayerCount: 2
Fore
SplineSet
308 700 m 1,0,-1
 350 700 l 1,1,-1
 583 0 l 1,2,-1
 535 0 l 1,3,-1
 449 256 l 1,4,-1
 209 256 l 1,5,-1
 125 0 l 1,6,-1
 78 0 l 1,7,-1
 308 700 l 1,0,-1
329 627 m 1,8,-1
 223 300 l 1,9,-1
 437 300 l 1,10,-1
 329 627 l 1,8,-1
93 568 m 1,11,-1
 145 689 l 2,12,13
 154 709.25 154 709.25 171.4375 709.25 c 0,14,15
 195.37962963 709.25 195.37962963 709.25 200.5 689.5 c 0,16,17
 201.666666667 685 201.666666667 685 201.666666667 678.833333333 c 128,-1,18
 201.666666667 672.666666667 201.666666667 672.666666667 197 666 c 2,19,-1
 129 568 l 1,20,-1
 93 568 l 1,11,-1
EndSplineSet
EndChar

StartChar: sterling
Encoding: 163 163 209
Width: 473
Flags: HMW
HStem: 0 80 435 80 694 20G
VStem: 78 360<0 39 39 39> 101 320<314 358 314 358>
LayerCount: 2
Fore
SplineSet
101 358 m 1,0,-1
 160 358 l 1,1,2
 125 465 125 465 125 515 c 0,3,4
 125 602 125 602 179.5 655.5 c 128,-1,5
 234 709 234 709 310.5 709 c 0,6,7
 387 709 387 709 427 684 c 1,8,-1
 412 644 l 1,9,10
 369 668 369 668 310.5 668 c 0,11,12
 252 668 252 668 210.5 624.5 c 128,-1,13
 169 581 169 581 169 513 c 0,14,15
 169 477 169 477 208 358 c 1,16,-1
 421 358 l 1,17,-1
 421 314 l 1,18,-1
 222 314 l 1,19,20
 238.055555556 259.222222222 238.055555556 259.222222222 238.055555556 213.166666667 c 0,21,22
 238.055555556 167.111111111 238.055555556 167.111111111 213.527777778 118.055555556 c 0,23,24
 189 69 189 69 150 45 c 1,25,-1
 438 45 l 1,26,-1
 438 0 l 1,27,-1
 78 0 l 1,28,-1
 78 39 l 1,29,30
 129 65 129 65 160.5 114 c 128,-1,31
 192 163 192 163 192 219 c 1,32,33
 193 251 193 251 175 314 c 1,34,-1
 101 314 l 1,35,-1
 101 358 l 1,0,-1
EndSplineSet
EndChar

StartChar: w_w_w
Encoding: 65541 -1 210
Width: 1916
Flags: HMW
HStem: 0 94 411 106
VStem: 18 654<501 501> 625 654<501 501> 1232 654<501 501>
LayerCount: 2
Fore
SplineSet
18 501 m 1,0,-1
 65 501 l 1,1,-1
 204 52 l 1,2,-1
 324 501 l 1,3,-1
 367 501 l 1,4,-1
 485 52 l 1,5,-1
 625 501 l 1,6,-1
 672 501 l 1,7,-1
 811 52 l 1,8,-1
 931 501 l 1,9,-1
 974 501 l 1,10,-1
 1092 52 l 1,11,-1
 1232 501 l 1,12,-1
 1279 501 l 1,13,-1
 1418 52 l 1,14,-1
 1538 501 l 1,15,-1
 1581 501 l 1,16,-1
 1699 52 l 1,17,-1
 1839 501 l 1,18,-1
 1886 501 l 1,19,-1
 1727 0 l 1,20,-1
 1669 0 l 1,21,-1
 1559 420 l 1,22,-1
 1447 0 l 1,23,-1
 1390 0 l 1,24,-1
 1255 426 l 1,25,-1
 1120 0 l 1,26,-1
 1062 0 l 1,27,-1
 952 420 l 1,28,-1
 840 0 l 1,29,-1
 783 0 l 1,30,-1
 648 426 l 1,31,-1
 513 0 l 1,32,-1
 455 0 l 1,33,-1
 345 420 l 1,34,-1
 233 0 l 1,35,-1
 176 0 l 1,36,-1
 18 501 l 1,0,-1
EndSplineSet
EndChar

StartChar: f_t
Encoding: 65542 -1 211
Width: 516
Flags: HMW
HStem: 419 20
VStem: -184 20
LayerCount: 2
Fore
SplineSet
78 561 m 2,0,1
 78 628 78 628 121.206395349 667.322674419 c 128,-1,2
 164.412790698 706.645348837 164.412790698 706.645348837 230.102300841 706.645348837 c 128,-1,3
 295.791810985 706.645348837 295.791810985 706.645348837 356 657 c 1,4,-1
 356 501 l 1,5,-1
 481 501 l 1,6,-1
 462 458 l 1,7,-1
 356 458 l 1,8,-1
 356 132 l 2,9,10
 356 47 356 47 430 22 c 1,11,-1
 417 -13 l 1,12,13
 361 3 361 3 336 38 c 128,-1,14
 311 73 311 73 311 132 c 2,15,-1
 311 630 l 1,16,17
 265 658.98630137 265 658.98630137 233.383561644 658.98630137 c 128,-1,18
 201.767123288 658.98630137 201.767123288 658.98630137 180.5 649 c 0,19,20
 123 622 123 622 123 552 c 2,21,-1
 123 501 l 1,22,-1
 248 501 l 1,23,-1
 228 458 l 1,24,-1
 123 458 l 1,25,-1
 123 0 l 1,26,-1
 78 0 l 1,27,-1
 78 561 l 2,0,1
EndSplineSet
EndChar

StartChar: t_t
Encoding: 65543 -1 212
Width: 486
Flags: HMW
HStem: 0 75 442 75
VStem: 44 85 49 85 278 85 279 21 364 85 513 21
LayerCount: 2
Fore
SplineSet
278 700 m 1,0,-1
 323 700 l 1,1,-1
 323 501 l 1,2,-1
 454 501 l 1,3,-1
 434 458 l 1,4,-1
 323 458 l 1,5,-1
 323 132 l 2,6,7
 323 47 323 47 397 23 c 1,8,-1
 384 -13 l 1,9,10
 328 3 328 3 303 38 c 128,-1,11
 278 73 278 73 278 132 c 2,12,-1
 278 458 l 1,13,-1
 89 458 l 1,14,-1
 89 132 l 2,15,16
 89 47 89 47 163 23 c 1,17,-1
 150 -13 l 1,18,19
 94 3 94 3 69 38 c 128,-1,20
 44 73 44 73 44 132 c 2,21,-1
 44 700 l 1,22,-1
 89 700 l 1,23,-1
 89 501 l 1,24,-1
 278 501 l 1,25,-1
 278 700 l 1,0,-1
EndSplineSet
EndChar

StartChar: f_f
Encoding: 64256 64256 213
Width: 547
Flags: HMW
HStem: 0 21G<78 123 78 78 311 311 311 356> 458 43<123 228 123 248 356 461> 658 49
VStem: 64 20 106 56 342 56
LayerCount: 2
Fore
SplineSet
351 664 m 1,0,1
 391.268817204 699.666666667 391.268817204 699.666666667 450.125 699.666666667 c 0,2,3
 487.833333333 699.666666667 487.833333333 699.666666667 512 683 c 1,4,-1
 496 644 l 1,5,6
 469.529411765 656.254901961 469.529411765 656.254901961 445.225490196 656.254901961 c 128,-1,7
 420.921568627 656.254901961 420.921568627 656.254901961 399 643 c 0,8,9
 356 617 356 617 356 552 c 2,10,-1
 356 501 l 1,11,-1
 481 501 l 1,12,-1
 461 458 l 1,13,-1
 356 458 l 1,14,-1
 356 0 l 1,15,-1
 311 0 l 1,16,-1
 311 561 l 2,17,18
 311 600 311 600 327 629 c 1,19,20
 283.863013699 659.260273973 283.863013699 659.260273973 240.104240946 659.260273973 c 0,21,22
 215.897260274 659.260273973 215.897260274 659.260273973 191.5 650 c 0,23,24
 123 624 123 624 123 552 c 2,25,-1
 123 501 l 1,26,-1
 248 501 l 1,27,-1
 228 458 l 1,28,-1
 123 458 l 1,29,-1
 123 0 l 1,30,-1
 78 0 l 1,31,-1
 78 561 l 2,32,33
 78 610 78 610 103.5 646 c 0,34,35
 146.040246212 706.056818182 146.040246212 706.056818182 218.948922822 706.056818182 c 128,-1,36
 291.857599432 706.056818182 291.857599432 706.056818182 351 664 c 1,0,1
EndSplineSet
EndChar

StartChar: f_f_l
Encoding: 64260 64260 214
Width: 621
Flags: HMW
HStem: 0 21G<78 123 78 78 308 353 308 308 542 542 542 586>
VStem: 536 56
LayerCount: 2
Fore
SplineSet
349 665 m 1,0,1
 388.069767442 706.023255814 388.069767442 706.023255814 456.906007752 706.023255814 c 128,-1,2
 525.742248062 706.023255814 525.742248062 706.023255814 586 657 c 1,3,-1
 586 0 l 1,4,-1
 542 0 l 1,5,-1
 542 630 l 1,6,7
 496.680851064 658.723404255 496.680851064 658.723404255 465.010638298 658.723404255 c 128,-1,8
 433.340425532 658.723404255 433.340425532 658.723404255 412 649.5 c 0,9,10
 353 624 353 624 353 554 c 2,11,-1
 353 501 l 1,12,-1
 478 501 l 1,13,-1
 459 458 l 1,14,-1
 353 458 l 1,15,-1
 353 0 l 1,16,-1
 308 0 l 1,17,-1
 308 561 l 2,18,19
 308 600 308 600 324 630 c 1,20,21
 281.489655172 659.186206897 281.489655172 659.186206897 238.979310345 659.186206897 c 1,22,-1
 190 649.5 l 1,23,24
 123 623 123 623 123 552 c 2,25,-1
 123 501 l 1,26,-1
 248 501 l 1,27,-1
 228 458 l 1,28,-1
 123 458 l 1,29,-1
 123 0 l 1,30,-1
 78 0 l 1,31,-1
 78 561 l 2,32,33
 78 626 78 626 119.987951807 666.012048193 c 128,-1,34
 161.975903614 706.024096386 161.975903614 706.024096386 222.155873494 706.024096386 c 128,-1,35
 282.335843373 706.024096386 282.335843373 706.024096386 349 665 c 1,0,1
EndSplineSet
EndChar

StartChar: Hcircumflex
Encoding: 292 292 215
Width: 588
Flags: HMW
HStem: 730 142 825 47
VStem: 78 45<0 369 413 700> 79 21 138 251 463 45<0 369 369 369 413 700 0 700>
LayerCount: 2
Fore
SplineSet
78 700 m 1,0,-1
 123 700 l 1,1,-1
 123 413 l 1,2,-1
 463 413 l 1,3,-1
 463 700 l 1,4,-1
 508 700 l 1,5,-1
 508 0 l 1,6,-1
 463 0 l 1,7,-1
 463 369 l 1,8,-1
 123 369 l 1,9,-1
 123 0 l 1,10,-1
 78 0 l 1,11,-1
 78 700 l 1,0,-1
149 772 m 1,12,-1
 297 913 l 1,13,-1
 439 772 l 1,14,-1
 407 740 l 1,15,-1
 296 851 l 1,16,-1
 180 740 l 1,17,-1
 149 772 l 1,12,-1
EndSplineSet
EndChar

StartChar: Cdotaccent
Encoding: 266 266 216
Width: 434
Flags: HMW
HStem: -12 52 659 51 679 104
VStem: 66 45<183 185 185 504 504 513> 225 66
LayerCount: 2
Fore
SplineSet
427 23 m 1,0,1
 341.745951417 -10.0576923077 341.745951417 -10.0576923077 265.350591716 -10.0576923077 c 0,2,3
 248.615384615 -10.0576923077 248.615384615 -10.0576923077 216.307692308 -7.02884615385 c 128,-1,4
 184 -4 184 -4 147.5 15.5 c 128,-1,5
 111 35 111 35 88.5 77.5 c 128,-1,6
 66 120 66 120 66 183 c 2,7,-1
 66 504 l 2,8,9
 66 580 66 580 87.5 619 c 128,-1,10
 109 658 109 658 153 685 c 1,11,12
 198.161290323 710.290322581 198.161290323 710.290322581 260.046826223 710.290322581 c 0,13,14
 337.638709677 710.290322581 337.638709677 710.290322581 402 677 c 1,15,-1
 388 645 l 1,16,17
 330 669 330 669 273 669 c 0,18,19
 192.75 669 192.75 669 151.5 629 c 0,20,21
 135 613 135 613 123 583 c 128,-1,22
 111 553 111 553 111 513 c 2,23,-1
 111 185 l 2,24,25
 111 78 111 78 189.5 44.5 c 0,26,27
 220.994011976 31.0598802395 220.994011976 31.0598802395 274.386227545 31.0598802395 c 128,-1,28
 327.778443114 31.0598802395 327.778443114 31.0598802395 417 61 c 1,29,-1
 427 23 l 1,0,1
237 770 m 128,-1,31
 237 781 237 781 245.5 789 c 128,-1,32
 254 797 254 797 265 797 c 128,-1,33
 276 797 276 797 284 789 c 128,-1,34
 292 781 292 781 292 770 c 128,-1,35
 292 759 292 759 284 750.5 c 128,-1,36
 276 742 276 742 265 742 c 128,-1,37
 254 742 254 742 245.5 750.5 c 128,-1,30
 237 759 237 759 237 770 c 128,-1,31
EndSplineSet
EndChar

StartChar: Ccircumflex
Encoding: 264 264 217
Width: 434
Flags: HMW
HStem: -12 52 659 51 730 142 825 47
VStem: 66 45<183 185 185 504 504 513> 120 251
LayerCount: 2
Fore
SplineSet
131 772 m 1,0,-1
 279 913 l 1,1,-1
 421 772 l 1,2,-1
 389 740 l 1,3,-1
 278 851 l 1,4,-1
 162 740 l 1,5,-1
 131 772 l 1,0,-1
427 23 m 1,6,7
 341.745951417 -10.0576923077 341.745951417 -10.0576923077 265.350591716 -10.0576923077 c 0,8,9
 248.615384615 -10.0576923077 248.615384615 -10.0576923077 216.307692308 -7.02884615385 c 128,-1,10
 184 -4 184 -4 147.5 15.5 c 128,-1,11
 111 35 111 35 88.5 77.5 c 128,-1,12
 66 120 66 120 66 183 c 2,13,-1
 66 504 l 2,14,15
 66 580 66 580 87.5 619 c 128,-1,16
 109 658 109 658 153 685 c 1,17,18
 198.161290323 710.290322581 198.161290323 710.290322581 260.046826223 710.290322581 c 0,19,20
 337.638709677 710.290322581 337.638709677 710.290322581 402 677 c 1,21,-1
 388 645 l 1,22,23
 330 669 330 669 273 669 c 0,24,25
 192.75 669 192.75 669 151.5 629 c 0,26,27
 135 613 135 613 123 583 c 128,-1,28
 111 553 111 553 111 513 c 2,29,-1
 111 185 l 2,30,31
 111 78 111 78 189.5 44.5 c 0,32,33
 220.994011976 31.0598802395 220.994011976 31.0598802395 274.386227545 31.0598802395 c 128,-1,34
 327.778443114 31.0598802395 327.778443114 31.0598802395 417 61 c 1,35,-1
 427 23 l 1,6,7
EndSplineSet
EndChar

StartChar: cdotaccent
Encoding: 267 267 218
Width: 435
Flags: HMW
HStem: -12 51 460 69 487 104
VStem: 78 45<180 308 308 314 169 405.5> 224 66
LayerCount: 2
Fore
SplineSet
385 443 m 1,0,1
 326.941176471 468.941176471 326.941176471 468.941176471 282 468.941176471 c 128,-1,2
 237.058823529 468.941176471 237.058823529 468.941176471 203.529411765 457.470588235 c 128,-1,3
 170 446 170 446 146.5 408.5 c 128,-1,4
 123 371 123 371 123 314 c 2,5,-1
 123 169 l 2,6,7
 123 29.3269230769 123 29.3269230769 283.079881657 29.3269230769 c 0,8,9
 331.889423077 29.3269230769 331.889423077 29.3269230769 390 43 c 1,10,-1
 400 6 l 1,11,12
 336 -11.0666666667 336 -11.0666666667 284 -11.0666666667 c 128,-1,13
 232 -11.0666666667 232 -11.0666666667 181.5 5.46666666667 c 0,14,15
 78 39.3518151815 78 39.3518151815 78 180 c 2,16,-1
 78 308 l 2,17,18
 78 379 78 379 106 427 c 0,19,20
 154.239130435 509.695652174 154.239130435 509.695652174 263.506616257 509.695652174 c 0,21,22
 329.913043478 509.695652174 329.913043478 509.695652174 398 478 c 1,23,-1
 385 443 l 1,0,1
236 578 m 128,-1,25
 236 589 236 589 244.5 597 c 128,-1,26
 253 605 253 605 264 605 c 128,-1,27
 275 605 275 605 283 597 c 128,-1,28
 291 589 291 589 291 578 c 128,-1,29
 291 567 291 567 283 558.5 c 128,-1,30
 275 550 275 550 264 550 c 128,-1,31
 253 550 253 550 244.5 558.5 c 128,-1,24
 236 567 236 567 236 578 c 128,-1,25
EndSplineSet
EndChar

StartChar: ccircumflex
Encoding: 265 265 219
Width: 467
Flags: HMW
HStem: -12 51 460 69 538 142 633 47
VStem: 78 45<180 308 308 314 169 405.5> 107 251
LayerCount: 2
Fore
SplineSet
385 443 m 1,0,1
 326.941176471 468.941176471 326.941176471 468.941176471 282 468.941176471 c 128,-1,2
 237.058823529 468.941176471 237.058823529 468.941176471 203.529411765 457.470588235 c 128,-1,3
 170 446 170 446 146.5 408.5 c 128,-1,4
 123 371 123 371 123 314 c 2,5,-1
 123 169 l 2,6,7
 123 29.3269230769 123 29.3269230769 283.079881657 29.3269230769 c 0,8,9
 331.889423077 29.3269230769 331.889423077 29.3269230769 390 43 c 1,10,-1
 400 6 l 1,11,12
 336 -11.0666666667 336 -11.0666666667 284 -11.0666666667 c 128,-1,13
 232 -11.0666666667 232 -11.0666666667 181.5 5.46666666667 c 0,14,15
 78 39.3518151815 78 39.3518151815 78 180 c 2,16,-1
 78 308 l 2,17,18
 78 379 78 379 106 427 c 0,19,20
 154.239130435 509.695652174 154.239130435 509.695652174 263.506616257 509.695652174 c 0,21,22
 329.913043478 509.695652174 329.913043478 509.695652174 398 478 c 1,23,-1
 385 443 l 1,0,1
118 580 m 1,24,-1
 266 721 l 1,25,-1
 408 580 l 1,26,-1
 376 548 l 1,27,-1
 265 659 l 1,28,-1
 149 548 l 1,29,-1
 118 580 l 1,24,-1
EndSplineSet
EndChar

StartChar: Idotaccent
Encoding: 304 304 220
Width: 280
Flags: HMW
HStem: 679 104
VStem: 133 66 150 45<0 658 658 658> 287 20
LayerCount: 2
Fore
SplineSet
78 700 m 1,0,-1
 195 700 l 1,1,-1
 195 0 l 1,2,-1
 150 0 l 1,3,-1
 150 658 l 1,4,-1
 78 660 l 1,5,-1
 78 700 l 1,0,-1
145 770 m 128,-1,7
 145 781 145 781 153.5 789 c 128,-1,8
 162 797 162 797 173 797 c 128,-1,9
 184 797 184 797 192 789 c 128,-1,10
 200 781 200 781 200 770 c 128,-1,11
 200 759 200 759 192 750.5 c 128,-1,12
 184 742 184 742 173 742 c 128,-1,13
 162 742 162 742 153.5 750.5 c 128,-1,6
 145 759 145 759 145 770 c 128,-1,7
EndSplineSet
EndChar

StartChar: Hbar
Encoding: 294 294 221
Width: 685
Flags: HMW
HStem: 363 80
VStem: 78 527<494 538 494 538> 127 45<0 369 413 494 538 700> 128 21 512 45<0 369 369 369 413 494 0 494 538 700>
LayerCount: 2
Fore
SplineSet
78 538 m 1,0,-1
 127 538 l 1,1,-1
 127 700 l 1,2,-1
 172 700 l 1,3,-1
 172 538 l 1,4,-1
 512 538 l 1,5,-1
 512 700 l 1,6,-1
 557 700 l 1,7,-1
 557 538 l 1,8,-1
 605 538 l 1,9,-1
 605 494 l 1,10,-1
 557 494 l 1,11,-1
 557 0 l 1,12,-1
 512 0 l 1,13,-1
 512 369 l 1,14,-1
 172 369 l 1,15,-1
 172 0 l 1,16,-1
 127 0 l 1,17,-1
 127 494 l 1,18,-1
 78 494 l 1,19,-1
 78 538 l 1,0,-1
172 413 m 1,20,-1
 512 413 l 1,21,-1
 512 494 l 1,22,-1
 172 494 l 1,23,-1
 172 413 l 1,20,-1
EndSplineSet
EndChar

StartChar: Gbreve
Encoding: 286 286 222
Width: 537
Flags: HMW
HStem: 0 21G<442 476 442 442> 35 20G<432 432> 659 51 728 37<253.5 298 253.5 307> 857 20G
VStem: 65 45<189 503 503 507> 163 226<841 846 810 846> 432 44<55 55>
LayerCount: 2
Fore
SplineSet
110 507 m 2,0,-1
 110 187 l 2,1,2
 110 116 110 116 156 74.5 c 128,-1,3
 202 33 202 33 277 33 c 128,-1,4
 352 33 352 33 392.5 76 c 128,-1,5
 433 119 433 119 433 185 c 2,6,-1
 433 256 l 1,7,-1
 354 256 l 1,8,-1
 338 300 l 1,9,-1
 476 300 l 1,10,-1
 476 0 l 1,11,-1
 442 0 l 1,12,-1
 432 55 l 1,13,14
 383 -10 383 -10 276 -10 c 0,15,16
 188 -10 188 -10 126.5 40 c 128,-1,17
 65 90 65 90 65 189 c 2,18,-1
 65 503 l 2,19,20
 65 631 65 631 152 684 c 1,21,22
 197.161290323 709.290322581 197.161290323 709.290322581 258.638917794 709.290322581 c 0,23,24
 335.529032258 709.290322581 335.529032258 709.290322581 401 676 c 1,25,-1
 388 644 l 1,26,27
 331 668 331 668 277 669 c 1,28,29
 110 669 110 669 110 507 c 2,0,-1
163 846 m 1,30,-1
 201 846 l 1,31,-1
 201 841 l 2,32,33
 201 811 201 811 222.5 788 c 128,-1,34
 244 765 244 765 276 765 c 128,-1,35
 308 765 308 765 329.5 788 c 128,-1,36
 351 811 351 811 351 841 c 2,37,-1
 351 846 l 1,38,-1
 389 846 l 1,39,-1
 389 841 l 2,40,41
 389 794 389 794 355.5 761 c 128,-1,42
 322 728 322 728 276 728 c 128,-1,43
 230 728 230 728 196.5 761 c 128,-1,44
 163 794 163 794 163 841 c 2,45,-1
 163 846 l 1,30,-1
EndSplineSet
EndChar

StartChar: Jcircumflex
Encoding: 308 308 223
Width: 260
Flags: HMW
HStem: -17 80 728 37<88.5 133 88.5 142> 857 20G
VStem: -2 226<841 846 810 846> 93 45<115 119 119 658 658 658> 293 20
LayerCount: 2
Fore
SplineSet
21 700 m 1,0,-1
 138 700 l 1,1,-1
 138 119 l 2,2,3
 138 -31 138 -31 19 -37 c 1,4,-1
 8 -6 l 1,5,6
 43 -4 43 -4 68 24 c 128,-1,7
 93 52 93 52 93 115 c 2,8,-1
 93 658 l 1,9,-1
 21 660 l 1,10,-1
 21 700 l 1,0,-1
-2 846 m 1,11,-1
 36 846 l 1,12,-1
 36 841 l 2,13,14
 36 811 36 811 57 788 c 128,-1,15
 78 765 78 765 110.5 765 c 0,16,17
 143 765 143 765 164.5 788 c 128,-1,18
 186 811 186 811 186 841 c 2,19,-1
 186 846 l 1,20,-1
 224 846 l 1,21,-1
 224 841 l 2,22,23
 224 794 224 794 191 761 c 128,-1,24
 158 728 158 728 111 728 c 128,-1,25
 64 728 64 728 31 761 c 128,-1,26
 -2 794 -2 794 -2 841 c 2,27,-1
 -2 846 l 1,11,-1
EndSplineSet
EndChar

StartChar: Zdotaccent
Encoding: 379 379 224
Width: 550
Flags: HMW
HStem: 0 80 634 80
VStem: 31 487<0 41 0 41> 247 66
LayerCount: 2
Fore
SplineSet
44 700 m 1,0,-1
 512 700 l 1,1,-1
 512 659 l 1,2,-1
 88 41 l 1,3,-1
 518 41 l 1,4,-1
 518 0 l 1,5,-1
 31 0 l 1,6,-1
 31 41 l 1,7,-1
 455 659 l 1,8,-1
 44 659 l 1,9,-1
 44 700 l 1,0,-1
259 766 m 128,-1,11
 259 777 259 777 267.5 785 c 128,-1,12
 276 793 276 793 287 793 c 128,-1,13
 298 793 298 793 306 785 c 128,-1,14
 314 777 314 777 314 766 c 128,-1,15
 314 755 314 755 306 746.5 c 128,-1,16
 298 738 298 738 287 738 c 128,-1,17
 276 738 276 738 267.5 746.5 c 128,-1,10
 259 755 259 755 259 766 c 128,-1,11
EndSplineSet
EndChar

StartChar: hbar
Encoding: 295 295 225
Width: 544
Flags: HMW
HStem: 0 21G<140 185 140 140 465 509 465 465> 460 49 694 20G
VStem: 78 234<573 617 573 617> 140 45<0 434 474 573 617 700> 140 56 454 55 465 44<0 344 344 346 0 421.5>
LayerCount: 2
Fore
SplineSet
185 434 m 1,0,-1
 185 0 l 1,1,-1
 140 0 l 1,2,-1
 140 573 l 1,3,-1
 78 573 l 1,4,-1
 78 617 l 1,5,-1
 140 617 l 1,6,-1
 140 700 l 1,7,-1
 185 700 l 1,8,-1
 185 617 l 1,9,-1
 312 617 l 1,10,-1
 312 573 l 1,11,-1
 185 573 l 1,12,-1
 185 474 l 1,13,14
 241.378181818 509.236363636 241.378181818 509.236363636 327.894214876 509.236363636 c 0,15,16
 384.690909091 509.236363636 384.690909091 509.236363636 424 490 c 1,17,18
 509 451 509 451 509 346 c 2,19,-1
 509 0 l 1,20,-1
 465 0 l 1,21,-1
 465 344 l 2,22,23
 465 399 465 399 435 430.5 c 0,24,25
 398.537414966 468.785714286 398.537414966 468.785714286 323.945493197 468.785714286 c 128,-1,26
 249.353571429 468.785714286 249.353571429 468.785714286 185 434 c 1,0,-1
EndSplineSet
EndChar

StartChar: hcircumflex
Encoding: 293 293 226
Width: 579
Flags: HMW
HStem: 0 21G<150 195 150 150 475 519 475 475> 460 49 694 20G 733 142
VStem: 20 251 150 45<0 434 474 700> 475 44<0 344 344 346 0 421.5>
LayerCount: 2
Fore
SplineSet
31 775 m 1,0,-1
 179 916 l 1,1,-1
 321 775 l 1,2,-1
 289 743 l 1,3,-1
 178 854 l 1,4,-1
 62 743 l 1,5,-1
 31 775 l 1,0,-1
195 434 m 1,6,-1
 195 0 l 1,7,-1
 150 0 l 1,8,-1
 150 700 l 1,9,-1
 195 700 l 1,10,-1
 195 474 l 1,11,12
 251.378181818 509.236363636 251.378181818 509.236363636 337.894214876 509.236363636 c 0,13,14
 394.690909091 509.236363636 394.690909091 509.236363636 434 490 c 1,15,16
 519 451 519 451 519 346 c 2,17,-1
 519 0 l 1,18,-1
 475 0 l 1,19,-1
 475 344 l 2,20,21
 475 399 475 399 445 430.5 c 0,22,23
 408.537414966 468.785714286 408.537414966 468.785714286 333.945493197 468.785714286 c 128,-1,24
 259.353571429 468.785714286 259.353571429 468.785714286 195 434 c 1,6,-1
EndSplineSet
EndChar

StartChar: scedilla
Encoding: 351 351 227
Width: 431
Flags: HMW
HStem: -210 38<198.5 226.5 198.5 229.5> -98 50 454 75
VStem: 36 43<127 127> 50 44 239 87 315 16 351 45<90 193.5>
LayerCount: 2
Fore
SplineSet
331 484 m 1,0,-1
 315 446 l 1,1,2
 277 472 277 472 221 472.5 c 128,-1,3
 165 473 165 473 129.209302326 448.040697674 c 128,-1,4
 93.4186046512 423.081395349 93.4186046512 423.081395349 93.4186046512 381.310167658 c 0,5,6
 93.4186046512 340.259033989 93.4186046512 340.259033989 127.709302326 318.629516995 c 128,-1,7
 162 297 162 297 205.5 284 c 128,-1,8
 249 271 249 271 292.5 255.5 c 128,-1,9
 336 240 336 240 366 207.5 c 128,-1,10
 396 175 396 175 396 121 c 128,-1,11
 396 67 396 67 354 27.5 c 128,-1,12
 312 -12 312 -12 231 -15 c 1,13,-1
 202 -55 l 1,14,15
 216.0875 -46.95 216.0875 -46.95 245.69375 -46.95 c 128,-1,16
 275.3 -46.95 275.3 -46.95 300.65 -65.475 c 128,-1,17
 326 -84 326 -84 326 -126.5 c 128,-1,18
 326 -169 326 -169 289 -189.5 c 128,-1,19
 252 -210 252 -210 207 -210 c 128,-1,20
 162 -210 162 -210 110 -191 c 1,21,-1
 130 -148 l 1,22,23
 165 -172 165 -172 202 -172 c 128,-1,24
 239 -172 239 -172 261.5 -159 c 128,-1,25
 284 -146 284 -146 284 -120 c 128,-1,26
 284 -94 284 -94 259 -83 c 0,27,28
 248 -78.16 248 -78.16 232.64 -78.16 c 128,-1,29
 217.28 -78.16 217.28 -78.16 196 -86 c 2,30,-1
 160 -101 l 1,31,-1
 146 -78 l 1,32,-1
 196 -14 l 1,33,34
 122 -8 122 -8 80 32 c 128,-1,35
 38 72 38 72 36 127 c 1,36,-1
 79 127 l 1,37,38
 85 80 85 80 124.5 53.5 c 128,-1,39
 164 27 164 27 218.5 27 c 128,-1,40
 273 27 273 27 312 52 c 128,-1,41
 351 77 351 77 351 119.5 c 128,-1,42
 351 162 351 162 322 187 c 128,-1,43
 293 212 293 212 250 225.5 c 128,-1,44
 207 239 207 239 164 253 c 128,-1,45
 121 267 121 267 88 295 c 0,46,47
 49.0101010101 328.082338537 49.0101010101 328.082338537 49.0101010101 377.329048056 c 128,-1,48
 49.0101010101 426.575757576 49.0101010101 426.575757576 88.5050505051 469.787878788 c 128,-1,49
 128 513 128 513 219 513 c 0,50,51
 250 513 250 513 278 505.5 c 128,-1,52
 306 498 306 498 318.5 491 c 2,53,-1
 331 484 l 1,0,-1
EndSplineSet
EndChar

StartChar: gbreve
Encoding: 287 287 228
Width: 490
Flags: HMW
HStem: -210 35<336 348> -12 42<221 296> 469 41<236 298.5 212 299.5> 532 37<259.5 304 259.5 313> 661 20G
VStem: 78 45<176 320> 169 226<645 650 614 650> 410 45<-63 65 65 65 169 354 354 354>
LayerCount: 2
Fore
SplineSet
169 650 m 1,0,-1
 207 650 l 1,1,-1
 207 645 l 2,2,3
 207 615 207 615 228 592 c 128,-1,4
 249 569 249 569 281.5 569 c 0,5,6
 314 569 314 569 335.5 592 c 128,-1,7
 357 615 357 615 357 645 c 2,8,-1
 357 650 l 1,9,-1
 395 650 l 1,10,-1
 395 645 l 2,11,12
 395 598 395 598 361.5 565 c 128,-1,13
 328 532 328 532 282 532 c 128,-1,14
 236 532 236 532 202.5 565 c 128,-1,15
 169 598 169 598 169 645 c 2,16,-1
 169 650 l 1,0,-1
413 441 m 1,17,-1
 410 501 l 1,18,-1
 455 501 l 1,19,-1
 455 -64 l 2,20,21
 455 -124 455 -124 430 -158 c 128,-1,22
 405 -192 405 -192 348 -210 c 1,23,-1
 336 -175 l 1,24,25
 410 -147 410 -147 410 -63 c 2,26,-1
 410 65 l 1,27,28
 363 -12 363 -12 269.5 -12 c 0,29,30
 176 -12 176 -12 127 36 c 128,-1,31
 78 84 78 84 78 176 c 2,32,-1
 78 325 l 2,33,34
 78 413 78 413 130 461.5 c 128,-1,35
 182 510 182 510 274.5 510 c 0,36,37
 367 510 367 510 413 441 c 1,17,-1
123 320 m 2,38,-1
 123 167 l 2,39,40
 123 101 123 101 160.5 65.5 c 128,-1,41
 198 30 198 30 260 30 c 0,42,43
 322 30 322 30 366 65.5 c 128,-1,44
 410 101 410 101 410 169 c 2,45,-1
 410 354 l 1,46,47
 404 413 404 413 363 441 c 128,-1,48
 322 469 322 469 266 469 c 128,-1,49
 210 469 210 469 166.5 434.5 c 128,-1,50
 123 400 123 400 123 320 c 2,38,-1
EndSplineSet
EndChar

StartChar: jcircumflex
Encoding: 309 309 229
Width: 403
Flags: HMW
HStem: -209 43 457 52 538 142 654 67
VStem: -13 21 194 56
LayerCount: 2
Fore
SplineSet
78 580 m 1,0,-1
 226 721 l 1,1,-1
 368 580 l 1,2,-1
 336 548 l 1,3,-1
 225 659 l 1,4,-1
 109 548 l 1,5,-1
 78 580 l 1,0,-1
126 501 m 1,6,-1
 244 501 l 1,7,-1
 244 -77 l 1,8,9
 242 -131 242 -131 211.5 -168.5 c 128,-1,10
 181 -206 181 -206 126 -209 c 1,11,-1
 120 -174 l 1,12,13
 127.538461538 -174 127.538461538 -174 144.769230769 -166 c 128,-1,14
 162 -158 162 -158 172.5 -147 c 0,15,16
 200 -118.19047619 200 -118.19047619 200 -64 c 2,17,-1
 200 457 l 1,18,-1
 146 459 l 1,19,-1
 126 501 l 1,6,-1
EndSplineSet
EndChar

StartChar: zdotaccent
Encoding: 380 380 230
Width: 480
Flags: HMW
HStem: 0 75 442 75 484 104
VStem: 87 358 220 66
LayerCount: 2
Fore
SplineSet
87 501 m 1,0,-1
 424 501 l 1,1,-1
 424 460 l 1,2,-1
 133 41 l 1,3,-1
 445 41 l 1,4,-1
 445 0 l 1,5,-1
 78 0 l 1,6,-1
 78 41 l 1,7,-1
 367 460 l 1,8,-1
 87 460 l 1,9,-1
 87 501 l 1,0,-1
232 575 m 128,-1,11
 232 586 232 586 240.5 594 c 128,-1,12
 249 602 249 602 260 602 c 128,-1,13
 271 602 271 602 279 594 c 128,-1,14
 287 586 287 586 287 575 c 128,-1,15
 287 564 287 564 279 555.5 c 128,-1,16
 271 547 271 547 260 547 c 128,-1,17
 249 547 249 547 240.5 555.5 c 128,-1,10
 232 564 232 564 232 575 c 128,-1,11
EndSplineSet
EndChar

StartChar: Gdotaccent
Encoding: 288 288 231
Width: 566
Flags: HMW
HStem: -17 80 678 104 694 20G
VStem: 74 45<186 701> 102 20 252 66 450 45<180 186 186 701>
LayerCount: 2
Fore
SplineSet
74 701 m 1,0,-1
 119 701 l 1,1,-1
 119 180 l 2,2,3
 119 110 119 110 168 72 c 128,-1,4
 217 34 217 34 285 34 c 128,-1,5
 353 34 353 34 401.5 72 c 128,-1,6
 450 110 450 110 450 180 c 2,7,-1
 450 701 l 1,8,-1
 495 701 l 1,9,-1
 495 186 l 2,10,11
 495 133 495 133 476.5 94 c 128,-1,12
 458 55 458 55 426.5 34 c 128,-1,13
 395 13 395 13 360 3 c 128,-1,14
 325 -7 325 -7 285 -7 c 128,-1,15
 245 -7 245 -7 209.5 3 c 128,-1,16
 174 13 174 13 142.5 34 c 128,-1,17
 111 55 111 55 92.5 94 c 128,-1,18
 74 133 74 133 74 186 c 2,19,-1
 74 701 l 1,0,-1
264 769 m 128,-1,21
 264 780 264 780 272.5 788 c 128,-1,22
 281 796 281 796 292 796 c 128,-1,23
 303 796 303 796 311 788 c 128,-1,24
 319 780 319 780 319 769 c 128,-1,25
 319 758 319 758 311 749.5 c 128,-1,26
 303 741 303 741 292 741 c 128,-1,27
 281 741 281 741 272.5 749.5 c 128,-1,20
 264 758 264 758 264 769 c 128,-1,21
EndSplineSet
EndChar

StartChar: Gcircumflex
Encoding: 284 284 232
Width: 537
Flags: HMW
HStem: 0 21G<442 476 442 442> 35 20G<432 432> 659 51 730 142 825 47
VStem: 65 45<189 503 503 507> 123 251 432 44<55 55>
LayerCount: 2
Fore
SplineSet
110 507 m 2,0,-1
 110 187 l 2,1,2
 110 116 110 116 156 74.5 c 128,-1,3
 202 33 202 33 277 33 c 128,-1,4
 352 33 352 33 392.5 76 c 128,-1,5
 433 119 433 119 433 185 c 2,6,-1
 433 256 l 1,7,-1
 354 256 l 1,8,-1
 338 300 l 1,9,-1
 476 300 l 1,10,-1
 476 0 l 1,11,-1
 442 0 l 1,12,-1
 432 55 l 1,13,14
 383 -10 383 -10 276 -10 c 0,15,16
 188 -10 188 -10 126.5 40 c 128,-1,17
 65 90 65 90 65 189 c 2,18,-1
 65 503 l 2,19,20
 65 631 65 631 152 684 c 1,21,22
 197.161290323 709.290322581 197.161290323 709.290322581 258.638917794 709.290322581 c 0,23,24
 335.529032258 709.290322581 335.529032258 709.290322581 401 676 c 1,25,-1
 388 644 l 1,26,27
 331 668 331 668 277 669 c 1,28,29
 110 669 110 669 110 507 c 2,0,-1
134 772 m 1,30,-1
 282 913 l 1,31,-1
 424 772 l 1,32,-1
 392 740 l 1,33,-1
 281 851 l 1,34,-1
 165 740 l 1,35,-1
 134 772 l 1,30,-1
EndSplineSet
EndChar

StartChar: gdotaccent
Encoding: 289 289 233
Width: 490
Flags: HMW
HStem: -210 35<336 348> -12 42<221 296> 469 41<236 298.5 212 299.5> 486 104
VStem: 78 45<176 320> 239 66 410 45<-63 65 65 65 169 354 354 354>
LayerCount: 2
Fore
SplineSet
251 577 m 128,-1,1
 251 588 251 588 259.5 596 c 128,-1,2
 268 604 268 604 279 604 c 128,-1,3
 290 604 290 604 298 596 c 128,-1,4
 306 588 306 588 306 577 c 128,-1,5
 306 566 306 566 298 557.5 c 128,-1,6
 290 549 290 549 279 549 c 128,-1,7
 268 549 268 549 259.5 557.5 c 128,-1,0
 251 566 251 566 251 577 c 128,-1,1
413 441 m 1,8,-1
 410 501 l 1,9,-1
 455 501 l 1,10,-1
 455 -64 l 2,11,12
 455 -124 455 -124 430 -158 c 128,-1,13
 405 -192 405 -192 348 -210 c 1,14,-1
 336 -175 l 1,15,16
 410 -147 410 -147 410 -63 c 2,17,-1
 410 65 l 1,18,19
 363 -12 363 -12 269.5 -12 c 0,20,21
 176 -12 176 -12 127 36 c 128,-1,22
 78 84 78 84 78 176 c 2,23,-1
 78 325 l 2,24,25
 78 413 78 413 130 461.5 c 128,-1,26
 182 510 182 510 274.5 510 c 0,27,28
 367 510 367 510 413 441 c 1,8,-1
123 320 m 2,29,-1
 123 167 l 2,30,31
 123 101 123 101 160.5 65.5 c 128,-1,32
 198 30 198 30 260 30 c 0,33,34
 322 30 322 30 366 65.5 c 128,-1,35
 410 101 410 101 410 169 c 2,36,-1
 410 354 l 1,37,38
 404 413 404 413 363 441 c 128,-1,39
 322 469 322 469 266 469 c 128,-1,40
 210 469 210 469 166.5 434.5 c 128,-1,41
 123 400 123 400 123 320 c 2,29,-1
EndSplineSet
EndChar

StartChar: gcircumflex
Encoding: 285 285 234
Width: 491
Flags: HMW
HStem: -210 35<336 348> -12 42<221 296> 469 41<236 298.5 212 299.5> 538 142
VStem: 78 45<176 320> 115 251 410 45<-63 65 65 65 169 354 354 354>
LayerCount: 2
Fore
SplineSet
126 580 m 1,0,-1
 274 721 l 1,1,-1
 416 580 l 1,2,-1
 384 548 l 1,3,-1
 273 659 l 1,4,-1
 157 548 l 1,5,-1
 126 580 l 1,0,-1
413 441 m 1,6,-1
 410 501 l 1,7,-1
 455 501 l 1,8,-1
 455 -64 l 2,9,10
 455 -124 455 -124 430 -158 c 128,-1,11
 405 -192 405 -192 348 -210 c 1,12,-1
 336 -175 l 1,13,14
 410 -147 410 -147 410 -63 c 2,15,-1
 410 65 l 1,16,17
 363 -12 363 -12 269.5 -12 c 0,18,19
 176 -12 176 -12 127 36 c 128,-1,20
 78 84 78 84 78 176 c 2,21,-1
 78 325 l 2,22,23
 78 413 78 413 130 461.5 c 128,-1,24
 182 510 182 510 274.5 510 c 0,25,26
 367 510 367 510 413 441 c 1,6,-1
123 320 m 2,27,-1
 123 167 l 2,28,29
 123 101 123 101 160.5 65.5 c 128,-1,30
 198 30 198 30 260 30 c 0,31,32
 322 30 322 30 366 65.5 c 128,-1,33
 410 101 410 101 410 169 c 2,34,-1
 410 354 l 1,35,36
 404 413 404 413 363 441 c 128,-1,37
 322 469 322 469 266 469 c 128,-1,38
 210 469 210 469 166.5 434.5 c 128,-1,39
 123 400 123 400 123 320 c 2,27,-1
EndSplineSet
EndChar

StartChar: Ubreve
Encoding: 364 364 235
Width: 566
Flags: HMW
HStem: -17 80 694 20G 724 37<261.5 306 261.5 315> 853 20G
VStem: 74 45<186 701> 102 20 171 226<837 842 806 842> 450 45<180 186 186 701>
LayerCount: 2
Fore
SplineSet
74 701 m 1,0,-1
 119 701 l 1,1,-1
 119 180 l 2,2,3
 119 110 119 110 168 72 c 128,-1,4
 217 34 217 34 285 34 c 128,-1,5
 353 34 353 34 401.5 72 c 128,-1,6
 450 110 450 110 450 180 c 2,7,-1
 450 701 l 1,8,-1
 495 701 l 1,9,-1
 495 186 l 2,10,11
 495 133 495 133 476.5 94 c 128,-1,12
 458 55 458 55 426.5 34 c 128,-1,13
 395 13 395 13 360 3 c 128,-1,14
 325 -7 325 -7 285 -7 c 128,-1,15
 245 -7 245 -7 209.5 3 c 128,-1,16
 174 13 174 13 142.5 34 c 128,-1,17
 111 55 111 55 92.5 94 c 128,-1,18
 74 133 74 133 74 186 c 2,19,-1
 74 701 l 1,0,-1
171 842 m 1,20,-1
 209 842 l 1,21,-1
 209 837 l 2,22,23
 209 807 209 807 230.5 784 c 128,-1,24
 252 761 252 761 284 761 c 128,-1,25
 316 761 316 761 337.5 784 c 128,-1,26
 359 807 359 807 359 837 c 2,27,-1
 359 842 l 1,28,-1
 397 842 l 1,29,-1
 397 837 l 2,30,31
 397 790 397 790 363.5 757 c 128,-1,32
 330 724 330 724 284 724 c 128,-1,33
 238 724 238 724 204.5 757 c 128,-1,34
 171 790 171 790 171 837 c 2,35,-1
 171 842 l 1,20,-1
EndSplineSet
EndChar

StartChar: Scircumflex
Encoding: 348 348 236
Width: 561
Flags: HMW
HStem: -17 80 651 80 825 47
VStem: -114 21 37 46<178 178> 55 47<448.5 578 448.5 580> 128 251 412 14 464 48<132.5 287>
LayerCount: 2
Fore
SplineSet
37 178 m 1,0,-1
 83 178 l 1,1,2
 87 122 87 122 138 77 c 128,-1,3
 189 32 189 32 272 32 c 128,-1,4
 355 32 355 32 409.5 69 c 128,-1,5
 464 106 464 106 464 187 c 0,6,7
 464 234 464 234 433.5 267.5 c 128,-1,8
 403 301 403 301 358 318 c 128,-1,9
 313 335 313 335 259.5 354.5 c 128,-1,10
 206 374 206 374 161 393 c 128,-1,11
 116 412 116 412 85.5 449 c 128,-1,12
 55 486 55 486 55 538 c 0,13,14
 55 608 55 608 113 659 c 128,-1,15
 171 710 171 710 280 710 c 0,16,17
 363 710 363 710 426 680 c 1,18,-1
 412 637 l 1,19,20
 355 666 355 666 278.5 666 c 0,21,22
 202 666 202 666 152 632 c 128,-1,23
 102 598 102 598 102 535 c 0,24,25
 102 495 102 495 132.5 465.5 c 128,-1,26
 163 436 163 436 208.5 420.5 c 128,-1,27
 254 405 254 405 307 385.5 c 128,-1,28
 360 366 360 366 405.5 345.5 c 128,-1,29
 451 325 451 325 481.5 285 c 128,-1,30
 512 245 512 245 512 190 c 0,31,32
 512 98 512 98 453.5 43.5 c 128,-1,33
 395 -11 395 -11 279.5 -11 c 0,34,35
 164 -11 164 -11 101.5 46.5 c 128,-1,36
 39 104 39 104 37 178 c 1,0,-1
139 772 m 1,37,-1
 287 913 l 1,38,-1
 429 772 l 1,39,-1
 397 740 l 1,40,-1
 286 851 l 1,41,-1
 170 740 l 1,42,-1
 139 772 l 1,37,-1
EndSplineSet
EndChar

StartChar: ubreve
Encoding: 365 365 237
Width: 486
Flags: HMW
HStem: -12 75 497 20G 535 37<247.5 292 247.5 301> 664 20G
VStem: 78 45<173 501> 157 226<648 653 617 653> 406 45<163 501 0 501>
LayerCount: 2
Fore
SplineSet
157 653 m 1,0,-1
 195 653 l 1,1,-1
 195 648 l 2,2,3
 195 618 195 618 216.5 595 c 128,-1,4
 238 572 238 572 270 572 c 128,-1,5
 302 572 302 572 323.5 595 c 128,-1,6
 345 618 345 618 345 648 c 2,7,-1
 345 653 l 1,8,-1
 383 653 l 1,9,-1
 383 648 l 2,10,11
 383 602 383 602 349.5 568.5 c 128,-1,12
 316 535 316 535 270 535 c 128,-1,13
 224 535 224 535 190.5 568.5 c 128,-1,14
 157 602 157 602 157 648 c 2,15,-1
 157 653 l 1,0,-1
78 501 m 1,16,-1
 123 501 l 1,17,-1
 123 168 l 2,18,19
 123 30 123 30 266 30 c 0,20,21
 330 30 330 30 368 63.5 c 128,-1,22
 406 97 406 97 406 163 c 2,23,-1
 406 501 l 1,24,-1
 451 501 l 1,25,-1
 451 0 l 1,26,-1
 407 0 l 1,27,-1
 410 59 l 1,28,29
 359 -11 359 -11 266 -11 c 0,30,31
 78 -11 78 -11 78 173 c 2,32,-1
 78 501 l 1,16,-1
EndSplineSet
EndChar

StartChar: scircumflex
Encoding: 349 349 238
Width: 473
Flags: HMW
HStem: 454 75 538 142
VStem: 78 43<127 127> 92 44 105 251 357 16 393 45<90 193.5>
LayerCount: 2
Fore
SplineSet
116 580 m 1,0,-1
 264 721 l 1,1,-1
 406 580 l 1,2,-1
 374 548 l 1,3,-1
 263 659 l 1,4,-1
 147 548 l 1,5,-1
 116 580 l 1,0,-1
373 484 m 1,6,-1
 357 446 l 1,7,8
 319 472 319 472 263 472.5 c 128,-1,9
 207 473 207 473 171.209302326 448.040697674 c 128,-1,10
 135.418604651 423.081395349 135.418604651 423.081395349 135.418604651 381.310167658 c 0,11,12
 135.418604651 340.259033989 135.418604651 340.259033989 169.709302326 318.629516995 c 128,-1,13
 204 297 204 297 247.5 284 c 128,-1,14
 291 271 291 271 334.5 255.5 c 128,-1,15
 378 240 378 240 408 207.5 c 128,-1,16
 438 175 438 175 438 120 c 128,-1,17
 438 65 438 65 393.5 25 c 128,-1,18
 349 -15 349 -15 263.5 -15 c 128,-1,19
 178 -15 178 -15 129 26 c 128,-1,20
 80 67 80 67 78 127 c 1,21,-1
 121 127 l 1,22,23
 127 80 127 80 166.5 53.5 c 128,-1,24
 206 27 206 27 260.5 27 c 128,-1,25
 315 27 315 27 354 52 c 128,-1,26
 393 77 393 77 393 119.5 c 128,-1,27
 393 162 393 162 364 187 c 128,-1,28
 335 212 335 212 292 225.5 c 128,-1,29
 249 239 249 239 206 253 c 128,-1,30
 163 267 163 267 130 295 c 0,31,32
 91.0101010101 328.082338537 91.0101010101 328.082338537 91.0101010101 377.329048056 c 128,-1,33
 91.0101010101 426.575757576 91.0101010101 426.575757576 130.505050505 469.787878788 c 128,-1,34
 170 513 170 513 261 513 c 0,35,36
 292 513 292 513 320 505.5 c 128,-1,37
 348 498 348 498 360.5 491 c 2,38,-1
 373 484 l 1,6,-1
EndSplineSet
EndChar

StartChar: Rcommaaccent
Encoding: 342 342 239
Width: 564
Flags: HMW
HStem: -100 111 657 43<123 123 123 322 322 324>
VStem: 78 45<0 256 0 300 300 657> 255 58<-73.5 -70> 324 188<453 657> 597 21
LayerCount: 2
Fore
SplineSet
78 700 m 1,0,-1
 322 700 l 2,1,2
 418 700 418 700 465 642 c 128,-1,3
 512 584 512 584 512 486 c 0,4,5
 512 317 512 317 410 272 c 1,6,-1
 513 0 l 1,7,-1
 467 0 l 1,8,-1
 367 258 l 1,9,10
 345 256 345 256 331 256 c 2,11,-1
 123 256 l 1,12,-1
 123 0 l 1,13,-1
 78 0 l 1,14,-1
 78 700 l 1,0,-1
123 657 m 1,15,-1
 123 300 l 1,16,-1
 327 300 l 2,17,18
 467 300 467 300 467 486 c 0,19,20
 467 570 467 570 429.5 613.5 c 128,-1,21
 392 657 392 657 324 657 c 2,22,-1
 123 657 l 1,15,-1
279 -102 m 1,23,-1
 272 -100 l 1,24,25
 255 -90 255 -90 255.5 -74.5 c 0,26,27
 256 -59 256 -59 263.529411765 -51.9411764706 c 0,28,29
 271.058823529 -44.8823529412 271.058823529 -44.8823529412 276.823529412 -44.8823529412 c 0,30,31
 282.588235294 -44.8823529412 282.588235294 -44.8823529412 288.794117647 -45.4411764706 c 0,32,33
 295 -46 295 -46 304 -55.5 c 128,-1,34
 313 -65 313 -65 313 -76 c 0,35,36
 313 -131 313 -131 249 -184 c 1,37,-1
 217 -161 l 1,38,39
 239 -149 239 -149 254.5 -134 c 128,-1,40
 270 -119 270 -119 279 -102 c 1,23,-1
EndSplineSet
EndChar

StartChar: kgreenlandic
Encoding: 312 312 240
Width: 482
Flags: HMW
HStem: 497 20G 694 20G
VStem: 83 85
LayerCount: 2
Fore
SplineSet
78 512 m 1,0,-1
 123 501 l 1,1,-1
 123 253 l 1,2,-1
 350 501 l 1,3,-1
 410 501 l 1,4,-1
 221 295 l 1,5,-1
 348 116 l 1,6,7
 405 39 405 39 446 39 c 1,8,-1
 448 -1 l 1,9,10
 404 0 404 0 372 27 c 128,-1,11
 340 54 340 54 302 106 c 2,12,-1
 190 261 l 1,13,-1
 123 192 l 1,14,-1
 123 0 l 1,15,-1
 78 0 l 1,16,-1
 78 512 l 1,0,-1
EndSplineSet
EndChar

StartChar: Aogonek
Encoding: 260 260 241
Width: 662
Flags: HMW
HStem: -213 50 0 21G<78 125 78 78 534 535 535 535 582 582 582 583> 607 20G<329 329>
VStem: 125 410<0 0> 438 68
LayerCount: 2
Fore
SplineSet
582 0 m 1,0,1
 478.75 -81.5675 478.75 -81.5675 478.75 -129.1484375 c 0,2,3
 478.75 -146.8125 478.75 -146.8125 491.875 -160.40625 c 128,-1,4
 505 -174 505 -174 528 -174 c 0,5,6
 570 -174 570 -174 596 -132 c 1,7,-1
 627 -163 l 1,8,9
 595 -213 595 -213 530 -213 c 0,10,11
 504.375 -213 504.375 -213 481.6875 -202 c 0,12,13
 438 -180.818181818 438 -180.818181818 438 -130 c 0,14,15
 438 -63 438 -63 534 0 c 1,16,-1
 535 0 l 1,17,-1
 449 256 l 1,18,-1
 209 256 l 1,19,-1
 125 0 l 1,20,-1
 78 0 l 1,21,-1
 308 700 l 1,22,-1
 350 700 l 1,23,-1
 583 0 l 1,24,-1
 582 0 l 1,0,1
329 627 m 1,25,-1
 223 300 l 1,26,-1
 437 300 l 1,27,-1
 329 627 l 1,25,-1
EndSplineSet
EndChar

StartChar: Itilde
Encoding: 296 296 242
Width: 488
Flags: HMW
HStem: 744 36 786 33<388 408>
VStem: 78 330<775 786> 235 45<0 658 658 658> 372 20
LayerCount: 2
Fore
SplineSet
163 700 m 1,0,-1
 280 700 l 1,1,-1
 280 0 l 1,2,-1
 235 0 l 1,3,-1
 235 658 l 1,4,-1
 163 660 l 1,5,-1
 163 700 l 1,0,-1
176.280073462 780.96969697 m 0,6,7
 133.517906336 780.96969697 133.517906336 780.96969697 99 743 c 1,8,-1
 78 775 l 1,9,10
 124.622889306 826.951219512 124.622889306 826.951219512 177.575252826 826.951219512 c 0,11,12
 201.645403377 826.951219512 201.645403377 826.951219512 269.5 796 c 0,13,14
 292.65625 785.4375 292.65625 785.4375 317.462890625 785.4375 c 0,15,16
 356.675 785.4375 356.675 785.4375 388 819 c 1,17,-1
 408 786 l 1,18,19
 365.19772404 739.421052632 365.19772404 739.421052632 315.693905817 739.421052632 c 0,20,21
 295.5 739.421052632 295.5 739.421052632 272.25 749.210526316 c 128,-1,22
 249 759 249 759 224.393939394 769.984848485 c 128,-1,23
 199.787878788 780.96969697 199.787878788 780.96969697 176.280073462 780.96969697 c 0,6,7
EndSplineSet
EndChar

